<?xml version="1.0" encoding="utf-8" standalone="no"?>
<!DOCTYPE svg PUBLIC "-//W3C//DTD SVG 1.1//EN"
  "http://www.w3.org/Graphics/SVG/1.1/DTD/svg11.dtd">
<svg xmlns:xlink="http://www.w3.org/1999/xlink" width="360pt" height="288pt" viewBox="0 0 360 288" xmlns="http://www.w3.org/2000/svg" version="1.1">
 <metadata>
  <rdf:RDF xmlns:dc="http://purl.org/dc/elements/1.1/" xmlns:cc="http://creativecommons.org/ns#" xmlns:rdf="http://www.w3.org/1999/02/22-rdf-syntax-ns#">
   <cc:Work>
    <dc:type rdf:resource="http://purl.org/dc/dcmitype/StillImage"/>
    <dc:date>2023-02-23T16:02:00.379709</dc:date>
    <dc:format>image/svg+xml</dc:format>
    <dc:creator>
     <cc:Agent>
      <dc:title>Matplotlib v3.7.0, https://matplotlib.org/</dc:title>
     </cc:Agent>
    </dc:creator>
   </cc:Work>
  </rdf:RDF>
 </metadata>
 <defs>
  <style type="text/css">*{stroke-linejoin: round; stroke-linecap: butt}</style>
 </defs>
 <g id="figure_1">
  <g id="patch_1">
   <path d="M 0 288 
L 360 288 
L 360 0 
L 0 0 
z
" style="fill: #ffffff"/>
  </g>
  <g id="axes_1">
   <g id="patch_2">
    <path d="M 45 256.32 
L 324 256.32 
L 324 34.56 
L 45 34.56 
z
" style="fill: #ffffff"/>
   </g>
   <g id="matplotlib.axis_1">
    <g id="xtick_1">
     <g id="line2d_1">
      <defs>
       <path id="mba4b5a61e4" d="M 0 0 
L 0 3.5 
" style="stroke: #000000; stroke-width: 0.8"/>
      </defs>
      <g>
       <use xlink:href="#mba4b5a61e4" x="45" y="256.32" style="stroke: #000000; stroke-width: 0.8"/>
      </g>
     </g>
     <g id="text_1">
      <!-- 485 -->
      <g transform="translate(29.985469 276.204063) scale(0.18 -0.18)">
       <defs>
        <path id="ArialMT-34" d="M 2069 0 
L 2069 1097 
L 81 1097 
L 81 1613 
L 2172 4581 
L 2631 4581 
L 2631 1613 
L 3250 1613 
L 3250 1097 
L 2631 1097 
L 2631 0 
L 2069 0 
z
M 2069 1613 
L 2069 3678 
L 634 1613 
L 2069 1613 
z
" transform="scale(0.015625)"/>
        <path id="ArialMT-38" d="M 1131 2484 
Q 781 2613 612 2850 
Q 444 3088 444 3419 
Q 444 3919 803 4259 
Q 1163 4600 1759 4600 
Q 2359 4600 2725 4251 
Q 3091 3903 3091 3403 
Q 3091 3084 2923 2848 
Q 2756 2613 2416 2484 
Q 2838 2347 3058 2040 
Q 3278 1734 3278 1309 
Q 3278 722 2862 322 
Q 2447 -78 1769 -78 
Q 1091 -78 675 323 
Q 259 725 259 1325 
Q 259 1772 486 2073 
Q 713 2375 1131 2484 
z
M 1019 3438 
Q 1019 3113 1228 2906 
Q 1438 2700 1772 2700 
Q 2097 2700 2305 2904 
Q 2513 3109 2513 3406 
Q 2513 3716 2298 3927 
Q 2084 4138 1766 4138 
Q 1444 4138 1231 3931 
Q 1019 3725 1019 3438 
z
M 838 1322 
Q 838 1081 952 856 
Q 1066 631 1291 507 
Q 1516 384 1775 384 
Q 2178 384 2440 643 
Q 2703 903 2703 1303 
Q 2703 1709 2433 1975 
Q 2163 2241 1756 2241 
Q 1359 2241 1098 1978 
Q 838 1716 838 1322 
z
" transform="scale(0.015625)"/>
        <path id="ArialMT-35" d="M 266 1200 
L 856 1250 
Q 922 819 1161 601 
Q 1400 384 1738 384 
Q 2144 384 2425 690 
Q 2706 997 2706 1503 
Q 2706 1984 2436 2262 
Q 2166 2541 1728 2541 
Q 1456 2541 1237 2417 
Q 1019 2294 894 2097 
L 366 2166 
L 809 4519 
L 3088 4519 
L 3088 3981 
L 1259 3981 
L 1013 2750 
Q 1425 3038 1878 3038 
Q 2478 3038 2890 2622 
Q 3303 2206 3303 1553 
Q 3303 931 2941 478 
Q 2500 -78 1738 -78 
Q 1113 -78 717 272 
Q 322 622 266 1200 
z
" transform="scale(0.015625)"/>
       </defs>
       <use xlink:href="#ArialMT-34"/>
       <use xlink:href="#ArialMT-38" x="55.615234"/>
       <use xlink:href="#ArialMT-35" x="111.230469"/>
      </g>
     </g>
    </g>
    <g id="xtick_2">
     <g id="line2d_2">
      <g>
       <use xlink:href="#mba4b5a61e4" x="91.5" y="256.32" style="stroke: #000000; stroke-width: 0.8"/>
      </g>
     </g>
     <g id="text_2">
      <!-- 490 -->
      <g transform="translate(76.485469 276.204063) scale(0.18 -0.18)">
       <defs>
        <path id="ArialMT-39" d="M 350 1059 
L 891 1109 
Q 959 728 1153 556 
Q 1347 384 1650 384 
Q 1909 384 2104 503 
Q 2300 622 2425 820 
Q 2550 1019 2634 1356 
Q 2719 1694 2719 2044 
Q 2719 2081 2716 2156 
Q 2547 1888 2255 1720 
Q 1963 1553 1622 1553 
Q 1053 1553 659 1965 
Q 266 2378 266 3053 
Q 266 3750 677 4175 
Q 1088 4600 1706 4600 
Q 2153 4600 2523 4359 
Q 2894 4119 3086 3673 
Q 3278 3228 3278 2384 
Q 3278 1506 3087 986 
Q 2897 466 2520 194 
Q 2144 -78 1638 -78 
Q 1100 -78 759 220 
Q 419 519 350 1059 
z
M 2653 3081 
Q 2653 3566 2395 3850 
Q 2138 4134 1775 4134 
Q 1400 4134 1122 3828 
Q 844 3522 844 3034 
Q 844 2597 1108 2323 
Q 1372 2050 1759 2050 
Q 2150 2050 2401 2323 
Q 2653 2597 2653 3081 
z
" transform="scale(0.015625)"/>
        <path id="ArialMT-30" d="M 266 2259 
Q 266 3072 433 3567 
Q 600 4063 929 4331 
Q 1259 4600 1759 4600 
Q 2128 4600 2406 4451 
Q 2684 4303 2865 4023 
Q 3047 3744 3150 3342 
Q 3253 2941 3253 2259 
Q 3253 1453 3087 958 
Q 2922 463 2592 192 
Q 2263 -78 1759 -78 
Q 1097 -78 719 397 
Q 266 969 266 2259 
z
M 844 2259 
Q 844 1131 1108 757 
Q 1372 384 1759 384 
Q 2147 384 2411 759 
Q 2675 1134 2675 2259 
Q 2675 3391 2411 3762 
Q 2147 4134 1753 4134 
Q 1366 4134 1134 3806 
Q 844 3388 844 2259 
z
" transform="scale(0.015625)"/>
       </defs>
       <use xlink:href="#ArialMT-34"/>
       <use xlink:href="#ArialMT-39" x="55.615234"/>
       <use xlink:href="#ArialMT-30" x="111.230469"/>
      </g>
     </g>
    </g>
    <g id="xtick_3">
     <g id="line2d_3">
      <g>
       <use xlink:href="#mba4b5a61e4" x="138" y="256.32" style="stroke: #000000; stroke-width: 0.8"/>
      </g>
     </g>
     <g id="text_3">
      <!-- 495 -->
      <g transform="translate(122.985469 276.204063) scale(0.18 -0.18)">
       <use xlink:href="#ArialMT-34"/>
       <use xlink:href="#ArialMT-39" x="55.615234"/>
       <use xlink:href="#ArialMT-35" x="111.230469"/>
      </g>
     </g>
    </g>
    <g id="xtick_4">
     <g id="line2d_4">
      <g>
       <use xlink:href="#mba4b5a61e4" x="184.5" y="256.32" style="stroke: #000000; stroke-width: 0.8"/>
      </g>
     </g>
     <g id="text_4">
      <!-- 500 -->
      <g transform="translate(169.485469 276.204063) scale(0.18 -0.18)">
       <use xlink:href="#ArialMT-35"/>
       <use xlink:href="#ArialMT-30" x="55.615234"/>
       <use xlink:href="#ArialMT-30" x="111.230469"/>
      </g>
     </g>
    </g>
    <g id="xtick_5">
     <g id="line2d_5">
      <g>
       <use xlink:href="#mba4b5a61e4" x="231" y="256.32" style="stroke: #000000; stroke-width: 0.8"/>
      </g>
     </g>
     <g id="text_5">
      <!-- 505 -->
      <g transform="translate(215.985469 276.204063) scale(0.18 -0.18)">
       <use xlink:href="#ArialMT-35"/>
       <use xlink:href="#ArialMT-30" x="55.615234"/>
       <use xlink:href="#ArialMT-35" x="111.230469"/>
      </g>
     </g>
    </g>
    <g id="xtick_6">
     <g id="line2d_6">
      <g>
       <use xlink:href="#mba4b5a61e4" x="277.5" y="256.32" style="stroke: #000000; stroke-width: 0.8"/>
      </g>
     </g>
     <g id="text_6">
      <!-- 510 -->
      <g transform="translate(262.485469 276.204063) scale(0.18 -0.18)">
       <defs>
        <path id="ArialMT-31" d="M 2384 0 
L 1822 0 
L 1822 3584 
Q 1619 3391 1289 3197 
Q 959 3003 697 2906 
L 697 3450 
Q 1169 3672 1522 3987 
Q 1875 4303 2022 4600 
L 2384 4600 
L 2384 0 
z
" transform="scale(0.015625)"/>
       </defs>
       <use xlink:href="#ArialMT-35"/>
       <use xlink:href="#ArialMT-31" x="55.615234"/>
       <use xlink:href="#ArialMT-30" x="111.230469"/>
      </g>
     </g>
    </g>
    <g id="xtick_7">
     <g id="line2d_7">
      <g>
       <use xlink:href="#mba4b5a61e4" x="324" y="256.32" style="stroke: #000000; stroke-width: 0.8"/>
      </g>
     </g>
     <g id="text_7">
      <!-- 515 -->
      <g transform="translate(308.985469 276.204063) scale(0.18 -0.18)">
       <use xlink:href="#ArialMT-35"/>
       <use xlink:href="#ArialMT-31" x="55.615234"/>
       <use xlink:href="#ArialMT-35" x="111.230469"/>
      </g>
     </g>
    </g>
   </g>
   <g id="matplotlib.axis_2">
    <g id="ytick_1">
     <g id="line2d_8">
      <defs>
       <path id="mf13e547cc9" d="M 0 0 
L -3.5 0 
" style="stroke: #000000; stroke-width: 0.8"/>
      </defs>
      <g>
       <use xlink:href="#mf13e547cc9" x="45" y="256.32" style="stroke: #000000; stroke-width: 0.8"/>
      </g>
     </g>
     <g id="text_8">
      <!-- 0.00 -->
      <g transform="translate(2.970312 262.762031) scale(0.18 -0.18)">
       <defs>
        <path id="ArialMT-2e" d="M 581 0 
L 581 641 
L 1222 641 
L 1222 0 
L 581 0 
z
" transform="scale(0.015625)"/>
       </defs>
       <use xlink:href="#ArialMT-30"/>
       <use xlink:href="#ArialMT-2e" x="55.615234"/>
       <use xlink:href="#ArialMT-30" x="83.398438"/>
       <use xlink:href="#ArialMT-30" x="139.013672"/>
      </g>
     </g>
    </g>
    <g id="ytick_2">
     <g id="line2d_9">
      <g>
       <use xlink:href="#mf13e547cc9" x="45" y="215.501481" style="stroke: #000000; stroke-width: 0.8"/>
      </g>
     </g>
     <g id="text_9">
      <!-- 0.02 -->
      <g transform="translate(2.970312 221.943512) scale(0.18 -0.18)">
       <defs>
        <path id="ArialMT-32" d="M 3222 541 
L 3222 0 
L 194 0 
Q 188 203 259 391 
Q 375 700 629 1000 
Q 884 1300 1366 1694 
Q 2113 2306 2375 2664 
Q 2638 3022 2638 3341 
Q 2638 3675 2398 3904 
Q 2159 4134 1775 4134 
Q 1369 4134 1125 3890 
Q 881 3647 878 3216 
L 300 3275 
Q 359 3922 746 4261 
Q 1134 4600 1788 4600 
Q 2447 4600 2831 4234 
Q 3216 3869 3216 3328 
Q 3216 3053 3103 2787 
Q 2991 2522 2730 2228 
Q 2469 1934 1863 1422 
Q 1356 997 1212 845 
Q 1069 694 975 541 
L 3222 541 
z
" transform="scale(0.015625)"/>
       </defs>
       <use xlink:href="#ArialMT-30"/>
       <use xlink:href="#ArialMT-2e" x="55.615234"/>
       <use xlink:href="#ArialMT-30" x="83.398438"/>
       <use xlink:href="#ArialMT-32" x="139.013672"/>
      </g>
     </g>
    </g>
    <g id="ytick_3">
     <g id="line2d_10">
      <g>
       <use xlink:href="#mf13e547cc9" x="45" y="174.682962" style="stroke: #000000; stroke-width: 0.8"/>
      </g>
     </g>
     <g id="text_10">
      <!-- 0.04 -->
      <g transform="translate(2.970312 181.124993) scale(0.18 -0.18)">
       <use xlink:href="#ArialMT-30"/>
       <use xlink:href="#ArialMT-2e" x="55.615234"/>
       <use xlink:href="#ArialMT-30" x="83.398438"/>
       <use xlink:href="#ArialMT-34" x="139.013672"/>
      </g>
     </g>
    </g>
    <g id="ytick_4">
     <g id="line2d_11">
      <g>
       <use xlink:href="#mf13e547cc9" x="45" y="133.864442" style="stroke: #000000; stroke-width: 0.8"/>
      </g>
     </g>
     <g id="text_11">
      <!-- 0.06 -->
      <g transform="translate(2.970312 140.306474) scale(0.18 -0.18)">
       <defs>
        <path id="ArialMT-36" d="M 3184 3459 
L 2625 3416 
Q 2550 3747 2413 3897 
Q 2184 4138 1850 4138 
Q 1581 4138 1378 3988 
Q 1113 3794 959 3422 
Q 806 3050 800 2363 
Q 1003 2672 1297 2822 
Q 1591 2972 1913 2972 
Q 2475 2972 2870 2558 
Q 3266 2144 3266 1488 
Q 3266 1056 3080 686 
Q 2894 316 2569 119 
Q 2244 -78 1831 -78 
Q 1128 -78 684 439 
Q 241 956 241 2144 
Q 241 3472 731 4075 
Q 1159 4600 1884 4600 
Q 2425 4600 2770 4297 
Q 3116 3994 3184 3459 
z
M 888 1484 
Q 888 1194 1011 928 
Q 1134 663 1356 523 
Q 1578 384 1822 384 
Q 2178 384 2434 671 
Q 2691 959 2691 1453 
Q 2691 1928 2437 2201 
Q 2184 2475 1800 2475 
Q 1419 2475 1153 2201 
Q 888 1928 888 1484 
z
" transform="scale(0.015625)"/>
       </defs>
       <use xlink:href="#ArialMT-30"/>
       <use xlink:href="#ArialMT-2e" x="55.615234"/>
       <use xlink:href="#ArialMT-30" x="83.398438"/>
       <use xlink:href="#ArialMT-36" x="139.013672"/>
      </g>
     </g>
    </g>
    <g id="ytick_5">
     <g id="line2d_12">
      <g>
       <use xlink:href="#mf13e547cc9" x="45" y="93.045923" style="stroke: #000000; stroke-width: 0.8"/>
      </g>
     </g>
     <g id="text_12">
      <!-- 0.08 -->
      <g transform="translate(2.970312 99.487954) scale(0.18 -0.18)">
       <use xlink:href="#ArialMT-30"/>
       <use xlink:href="#ArialMT-2e" x="55.615234"/>
       <use xlink:href="#ArialMT-30" x="83.398438"/>
       <use xlink:href="#ArialMT-38" x="139.013672"/>
      </g>
     </g>
    </g>
    <g id="ytick_6">
     <g id="line2d_13">
      <g>
       <use xlink:href="#mf13e547cc9" x="45" y="52.227404" style="stroke: #000000; stroke-width: 0.8"/>
      </g>
     </g>
     <g id="text_13">
      <!-- 0.10 -->
      <g transform="translate(2.970312 58.669435) scale(0.18 -0.18)">
       <use xlink:href="#ArialMT-30"/>
       <use xlink:href="#ArialMT-2e" x="55.615234"/>
       <use xlink:href="#ArialMT-31" x="83.398438"/>
       <use xlink:href="#ArialMT-30" x="139.013672"/>
      </g>
     </g>
    </g>
   </g>
   <g id="line2d_14">
    <path d="M 44.9969 256.311099 
L 45.3627 256.311324 
L 45.5115 256.317012 
L 45.5146 256.313958 
L 45.8432 256.315505 
L 45.9517 256.303366 
L 45.9548 256.305534 
L 46.1129 256.31843 
L 46.1222 256.301237 
L 46.1439 256.316366 
L 46.2369 256.303677 
L 46.3423 256.318733 
L 46.3578 256.306798 
L 46.5066 256.297536 
L 46.5159 256.315549 
L 46.7298 256.314259 
L 46.8383 256.304902 
L 46.8445 256.313403 
L 47.0181 256.307632 
L 47.0212 256.302113 
L 47.0274 256.311199 
L 47.1483 256.289628 
L 47.263 256.31838 
L 47.3715 256.296981 
L 47.3777 256.30291 
L 47.4862 256.319179 
L 47.4986 256.303498 
L 47.6412 256.309622 
L 47.7466 256.297764 
L 47.6536 256.314852 
L 47.7559 256.307487 
L 48.0814 256.307471 
L 48.1806 256.290848 
L 48.0907 256.313844 
L 48.1961 256.296407 
L 48.3108 256.318809 
L 48.4007 256.30305 
L 48.4255 256.309543 
L 48.6642 256.316417 
L 48.7789 256.302113 
L 48.782 256.306031 
L 48.8905 256.303786 
L 48.7913 256.312209 
L 48.8967 256.308284 
L 48.9029 256.302942 
L 49.0145 256.314504 
L 49.1261 256.300057 
L 49.2718 256.312408 
L 49.3927 256.299523 
L 49.5105 256.31417 
L 49.6252 256.303754 
L 49.6283 256.317559 
L 49.7647 256.308516 
L 49.8887 256.311329 
L 50.0468 256.301735 
L 50.1522 256.31698 
L 50.1584 256.305385 
L 50.27 256.301418 
L 50.1708 256.312831 
L 50.2793 256.308777 
L 50.4188 256.315635 
L 50.2917 256.292936 
L 50.4219 256.3119 
L 50.5459 256.304884 
L 50.6544 256.314311 
L 50.6606 256.304354 
L 50.9272 256.312316 
L 51.0357 256.306497 
L 50.9396 256.31775 
L 51.0419 256.310584 
L 51.231 256.298922 
L 51.2341 256.303893 
L 51.2837 256.287656 
L 51.3457 256.316389 
L 51.4325 256.297318 
L 51.4573 256.316701 
L 51.7642 256.313693 
L 52.4369 256.310355 
L 52.5454 256.312897 
L 52.4431 256.304891 
L 52.5516 256.306562 
L 52.6849 256.299986 
L 52.7965 256.318184 
L 52.9019 256.303021 
L 52.9143 256.316852 
L 53.0414 256.295934 
L 53.0507 256.308955 
L 53.0569 256.30236 
L 53.1716 256.317014 
L 53.2739 256.297613 
L 53.2863 256.304929 
L 54.0923 256.314517 
L 54.0985 256.297901 
L 54.2256 256.317243 
L 54.3372 256.300057 
L 54.3403 256.303066 
L 54.4426 256.317811 
L 54.455 256.309965 
L 55.6919 256.315321 
L 55.7942 256.30467 
L 55.8035 256.306919 
L 56.0019 256.308242 
L 56.1972 256.312639 
L 56.0081 256.291553 
L 56.2003 256.303541 
L 56.2096 256.316814 
L 56.3243 256.296372 
L 56.4049 256.317721 
L 56.4359 256.312423 
L 56.8761 256.30613 
L 56.9846 256.314434 
L 56.9908 256.311079 
L 57.1458 256.315557 
L 57.1489 256.312193 
L 57.2388 256.293052 
L 57.2636 256.309869 
L 57.4062 256.311966 
L 57.4093 256.306848 
L 57.4155 256.315863 
L 57.5488 256.308472 
L 57.6759 256.318354 
L 57.679 256.308884 
L 57.7906 256.301145 
L 57.6945 256.318769 
L 57.7937 256.311016 
L 57.9022 256.318753 
L 57.9146 256.302737 
L 58.0541 256.289034 
L 57.927 256.316426 
L 58.0603 256.312364 
L 58.2153 256.313279 
L 58.3362 256.296714 
L 58.4385 256.319295 
L 58.4509 256.311621 
L 58.6214 256.310576 
L 58.7268 256.317681 
L 58.6276 256.305724 
L 58.733 256.307725 
L 58.7392 256.31637 
L 58.8601 256.300203 
L 58.9624 256.317094 
L 58.8818 256.284692 
L 58.9748 256.309484 
L 59.0988 256.313353 
L 59.2383 256.307852 
L 59.3654 256.312595 
L 59.4677 256.301039 
L 59.3716 256.314962 
L 59.4832 256.307437 
L 59.6165 256.314611 
L 59.7343 256.297458 
L 59.8614 256.318573 
L 59.8645 256.316868 
L 59.9823 256.31183 
L 60.1435 256.295251 
L 59.9885 256.319641 
L 60.1466 256.304802 
L 60.2644 256.311024 
L 60.4845 256.308722 
L 60.4907 256.294173 
L 60.6023 256.315092 
L 60.7201 256.298235 
L 60.8131 256.315629 
L 60.8317 256.300453 
L 60.8379 256.319112 
L 60.9712 256.306094 
L 61.3308 256.312474 
L 61.4486 256.306787 
L 61.3432 256.318504 
L 61.4517 256.308872 
L 61.5726 256.315424 
L 61.5757 256.31209 
L 61.6935 256.310091 
L 61.8175 256.319119 
L 61.9384 256.296758 
L 61.9415 256.312136 
L 62.5801 256.299149 
L 62.5894 256.313784 
L 62.6948 256.297482 
L 62.7971 256.315184 
L 62.8064 256.302202 
L 62.9676 256.297724 
L 62.9738 256.311564 
L 63.0823 256.313684 
L 62.98 256.302202 
L 63.0916 256.308638 
L 63.1939 256.297597 
L 63.1071 256.317098 
L 63.2032 256.31807 
L 63.4822 256.303001 
L 63.4853 256.311136 
L 63.6062 256.316524 
L 63.4977 256.300325 
L 63.6093 256.312893 
L 63.7085 256.289234 
L 63.6186 256.318317 
L 63.724 256.30545 
L 63.7302 256.316715 
L 63.8635 256.300357 
L 64.0061 256.312031 
L 64.1208 256.300559 
L 64.127 256.308882 
L 64.5052 256.305091 
L 64.5269 256.289681 
L 64.6354 256.318131 
L 64.7284 256.290967 
L 64.7563 256.31151 
L 64.8617 256.316331 
L 64.8772 256.305086 
L 65.1841 256.3043 
L 65.2864 256.304537 
L 65.1996 256.312256 
L 65.2957 256.30836 
L 65.3019 256.316884 
L 65.4228 256.302971 
L 65.5375 256.314632 
L 65.5406 256.302679 
L 66.0304 256.314662 
L 66.1141 256.283094 
L 66.142 256.312415 
L 66.2691 256.296369 
L 66.2753 256.303687 
L 66.3745 256.316435 
L 66.2815 256.299732 
L 66.3869 256.307413 
L 66.5202 256.304135 
L 66.5233 256.311118 
L 66.7651 256.319438 
L 66.8736 256.303453 
L 66.8767 256.306695 
L 67.4502 256.306083 
L 67.5401 256.292986 
L 67.5618 256.311629 
L 67.568 256.295742 
L 67.6858 256.313767 
L 67.8284 256.304741 
L 67.9431 256.317351 
L 68.0671 256.293964 
L 68.1539 256.315216 
L 68.1787 256.30705 
L 68.4019 256.305862 
L 68.5197 256.314978 
L 68.6716 256.293666 
L 68.6809 256.309997 
L 68.8948 256.312347 
L 69.0095 256.307999 
L 69.0126 256.314698 
L 69.2823 256.311723 
L 69.3443 256.297517 
L 69.2916 256.314908 
L 69.3939 256.310973 
L 69.5241 256.29945 
L 69.6388 256.312631 
L 69.7473 256.308736 
L 69.7504 256.313511 
L 70.048 256.311189 
L 70.1534 256.298175 
L 70.1658 256.311588 
L 70.544 256.317309 
L 70.6587 256.303388 
L 70.8664 256.314064 
L 70.8695 256.299656 
L 70.8757 256.310826 
L 70.9966 256.306306 
L 71.1361 256.317311 
L 71.1392 256.314098 
L 71.2508 256.290291 
L 71.2539 256.308718 
L 71.35 256.314508 
L 71.2725 256.295739 
L 71.3655 256.30259 
L 71.7561 256.308105 
L 71.7623 256.318256 
L 71.8925 256.309489 
L 71.9917 256.316919 
L 71.9111 256.295554 
L 72.0072 256.305452 
L 72.0165 256.3146 
L 72.1436 256.301387 
L 72.156 256.297537 
L 72.2614 256.314715 
L 72.3699 256.30164 
L 72.3792 256.312877 
L 72.5032 256.310701 
L 72.3854 256.304111 
L 72.5094 256.304099 
L 72.528 256.315541 
L 72.6241 256.295745 
L 72.7047 256.31911 
L 72.7357 256.299814 
L 72.9465 256.313986 
L 73.0457 256.298746 
L 73.0581 256.307968 
L 73.1635 256.316505 
L 73.0829 256.293151 
L 73.1728 256.297768 
L 73.2999 256.318042 
L 73.1852 256.286277 
L 73.3092 256.309484 
L 73.4549 256.304393 
L 73.5262 256.294297 
L 73.489 256.31634 
L 73.5665 256.316916 
L 73.892 256.309797 
L 73.985 256.296677 
L 73.8982 256.312667 
L 74.0036 256.31038 
L 74.016 256.294124 
L 74.1772 256.312311 
L 74.2702 256.298669 
L 74.295 256.309389 
L 74.4407 256.308413 
L 74.6267 256.313308 
L 74.6298 256.308561 
L 74.7321 256.302876 
L 74.6391 256.311861 
L 74.7445 256.31261 
L 75.8047 256.300896 
L 75.814 256.311446 
L 75.9225 256.310336 
L 76.0558 256.305177 
L 76.0589 256.314119 
L 76.7843 256.295074 
L 76.899 256.316971 
L 77.023 256.282136 
L 77.0292 256.294781 
L 77.1408 256.317156 
L 77.147 256.314309 
L 77.2431 256.295475 
L 77.2648 256.308578 
L 77.3764 256.288146 
L 77.2772 256.318076 
L 77.395 256.304316 
L 77.5128 256.318419 
L 77.5221 256.312256 
L 77.6523 256.299504 
L 77.6554 256.313955 
L 78.2537 256.304015 
L 78.3529 256.313577 
L 78.2692 256.287635 
L 78.3653 256.302949 
L 78.3715 256.313696 
L 78.4924 256.296958 
L 78.6071 256.313826 
L 78.6102 256.307899 
L 78.7466 256.303505 
L 78.7497 256.308634 
L 78.7559 256.289568 
L 78.8675 256.312672 
L 78.9915 256.290433 
L 79.0659 256.313995 
L 79.1031 256.300897 
L 79.2519 256.31359 
L 79.3418 256.291272 
L 79.3635 256.306989 
L 79.4968 256.314189 
L 79.4999 256.311568 
L 79.6115 256.303658 
L 79.5154 256.318834 
L 79.6146 256.304325 
L 79.7479 256.316066 
L 79.7541 256.309748 
L 79.9804 256.311806 
L 79.9835 256.30384 
L 80.1044 256.288573 
L 79.9928 256.312104 
L 80.1075 256.306942 
L 80.2191 256.314518 
L 80.1292 256.298658 
L 80.2222 256.309308 
L 80.3462 256.309976 
L 80.5105 256.29836 
L 80.6314 256.313719 
L 80.6345 256.308004 
L 80.6438 256.314993 
L 80.7492 256.295264 
L 80.8639 256.31667 
L 80.867 256.309664 
L 80.9755 256.289734 
L 80.8825 256.314941 
L 80.9817 256.306805 
L 81.1243 256.298693 
L 80.9879 256.313945 
L 81.1305 256.305373 
L 81.2514 256.316181 
L 81.2576 256.311078 
L 81.3692 256.29035 
L 81.3754 256.305199 
L 81.3909 256.291549 
L 81.4963 256.310122 
L 81.6017 256.290722 
L 81.5056 256.315072 
L 81.611 256.304116 
L 81.735 256.314097 
L 81.8497 256.303377 
L 81.8776 256.277757 
L 81.9799 256.314801 
L 82.0915 256.290715 
L 82.1969 256.314738 
L 82.2062 256.302847 
L 82.3178 256.319531 
L 82.2124 256.297128 
L 82.3209 256.317656 
L 82.3643 256.289279 
L 82.4325 256.314052 
L 82.5844 256.292747 
L 82.6836 256.315578 
L 82.6991 256.309075 
L 82.8944 256.295566 
L 82.8975 256.304901 
L 82.913 256.299015 
L 83.0153 256.308192 
L 83.1982 256.314838 
L 83.2571 256.289122 
L 83.2044 256.31946 
L 83.3129 256.313943 
L 83.5237 256.312579 
L 83.5299 256.298755 
L 83.657 256.307154 
L 83.7655 256.302425 
L 83.6663 256.31724 
L 83.7717 256.306694 
L 83.8895 256.315823 
L 83.7903 256.286362 
L 83.8926 256.306616 
L 84.0724 256.315229 
L 84.0786 256.304832 
L 84.0848 256.308715 
L 84.2057 256.303725 
L 84.3793 256.309555 
L 84.4909 256.29114 
L 84.3886 256.316629 
L 84.4971 256.298184 
L 84.6056 256.317945 
L 84.5343 256.285531 
L 84.6118 256.312279 
L 84.8567 256.307066 
L 84.9342 256.285508 
L 84.8629 256.313806 
L 84.9683 256.312879 
L 86.6857 256.305785 
L 86.7725 256.280466 
L 86.7167 256.318162 
L 86.7973 256.307726 
L 86.9089 256.289468 
L 86.9182 256.303858 
L 87.1414 256.315319 
L 87.1445 256.308909 
L 87.2158 256.291243 
L 87.1507 256.31745 
L 87.2561 256.30076 
L 87.563 256.298667 
L 87.5661 256.307873 
L 87.7087 256.315587 
L 87.7118 256.311718 
L 87.8172 256.297518 
L 87.8265 256.308882 
L 88.0993 256.312111 
L 88.1024 256.294631 
L 88.1086 256.312112 
L 88.2822 256.302976 
L 88.2884 256.29152 
L 88.4279 256.316044 
L 88.5488 256.296692 
L 88.5519 256.301689 
L 88.6604 256.313604 
L 88.5581 256.292442 
L 88.6635 256.296871 
L 88.6697 256.310466 
L 88.7906 256.291549 
L 88.9239 256.318141 
L 89.02 256.287696 
L 89.0479 256.303661 
L 89.1595 256.315111 
L 89.0634 256.294468 
L 89.1626 256.30972 
L 89.2959 256.299547 
L 89.392 256.31669 
L 89.4075 256.302532 
L 89.5222 256.301431 
L 89.4199 256.315963 
L 89.5253 256.306163 
L 89.5346 256.292217 
L 89.6803 256.315621 
L 89.795 256.283798 
L 89.8849 256.316595 
L 89.9066 256.305674 
L 90.0337 256.293775 
L 90.043 256.307132 
L 90.0523 256.290025 
L 90.1701 256.306842 
L 90.1763 256.314669 
L 90.3127 256.300663 
L 90.4243 256.316413 
L 90.3189 256.285338 
L 90.4274 256.304521 
L 90.8056 256.311206 
L 90.9234 256.298325 
L 90.9265 256.304854 
L 91.0412 256.309843 
L 90.9575 256.288061 
L 91.0474 256.304339 
L 91.221 256.284554 
L 91.2272 256.303938 
L 91.3326 256.318977 
L 91.2737 256.278977 
L 91.3388 256.30432 
L 91.438 256.282526 
L 91.4566 256.300769 
L 91.5682 256.287014 
L 91.4721 256.315346 
L 91.5775 256.301796 
L 91.686 256.316127 
L 91.593 256.287561 
L 91.6922 256.307854 
L 91.8038 256.289628 
L 91.6984 256.313206 
L 91.8069 256.293483 
L 91.9278 256.311382 
L 91.934 256.302599 
L 92.0425 256.289931 
L 91.9464 256.31598 
L 92.0518 256.296786 
L 92.0797 256.286347 
L 92.1665 256.31638 
L 92.3215 256.298348 
L 92.337 256.291167 
L 92.4486 256.316978 
L 92.5571 256.286291 
L 92.5633 256.29913 
L 92.6532 256.314185 
L 92.5757 256.282143 
L 92.678 256.297691 
L 92.7989 256.318144 
L 92.8082 256.299502 
L 92.9415 256.29608 
L 92.9477 256.310701 
L 93.0903 256.315995 
L 92.9539 256.293903 
L 93.0965 256.293774 
L 93.1089 256.311952 
L 93.2112 256.287115 
L 93.3321 256.317848 
L 93.3352 256.314974 
L 93.6607 256.288705 
L 93.6638 256.30177 
L 93.7754 256.312576 
L 93.67 256.294911 
L 93.7785 256.292463 
L 93.9149 256.315347 
L 93.918 256.295716 
L 94.0141 256.279698 
L 93.9397 256.317116 
L 94.0265 256.305082 
L 94.2187 256.286501 
L 94.228 256.309034 
L 94.2373 256.299908 
L 94.3365 256.303779 
L 94.4233 256.276825 
L 94.3551 256.31692 
L 94.445 256.311459 
L 94.5969 256.276139 
L 94.6062 256.298629 
L 94.7488 256.315949 
L 94.6124 256.290412 
L 94.7581 256.304109 
L 94.7612 256.276506 
L 94.7798 256.315238 
L 94.8666 256.293166 
L 94.879 256.282888 
L 94.9813 256.316199 
L 95.1053 256.259175 
L 95.2138 256.314142 
L 95.2231 256.299934 
L 95.3192 256.28374 
L 95.2324 256.30972 
L 95.3409 256.29141 
L 95.3781 256.280745 
L 95.4494 256.312048 
L 95.5331 256.272386 
L 95.4587 256.316272 
L 95.561 256.295071 
L 95.9485 256.305916 
L 96.0632 256.311108 
L 95.9609 256.284169 
L 96.0725 256.301536 
L 96.1748 256.278168 
L 96.0818 256.306399 
L 96.1903 256.290855 
L 96.2368 256.281868 
L 96.3019 256.317031 
L 96.3887 256.256375 
L 96.4197 256.2855 
L 96.429 256.277741 
L 96.5313 256.315184 
L 96.5995 256.280898 
L 96.6429 256.305078 
L 96.6739 256.263348 
L 96.7576 256.31062 
L 97.0397 256.280431 
L 97.1141 256.316575 
L 97.1513 256.292031 
L 97.2474 256.312806 
L 97.1761 256.260745 
L 97.2629 256.306026 
L 97.3187 256.275933 
L 97.3063 256.318439 
L 97.3745 256.289089 
L 97.4923 256.310628 
L 97.4985 256.287644 
L 97.6163 256.291365 
L 97.5171 256.313416 
L 97.6194 256.299393 
L 97.7279 256.311879 
L 97.6318 256.282278 
L 97.731 256.296877 
L 97.7403 256.314858 
L 97.8457 256.278551 
L 97.855 256.263421 
L 97.9604 256.313026 
L 98.0162 256.273762 
L 98.0751 256.288178 
L 98.1681 256.316096 
L 98.1464 256.263684 
L 98.1898 256.311874 
L 98.196 256.264885 
L 98.3014 256.306754 
L 98.3138 256.31421 
L 98.4192 256.277036 
L 98.4626 256.25524 
L 98.5277 256.314584 
L 98.6424 256.264199 
L 98.754 256.314116 
L 98.8532 256.276079 
L 98.7695 256.318905 
L 98.8687 256.29533 
L 98.9865 256.311446 
L 98.8904 256.281646 
L 98.9896 256.299942 
L 99.095 256.278071 
L 99.0082 256.314234 
L 99.1012 256.309883 
L 99.1198 256.250522 
L 99.2159 256.303985 
L 99.3182 256.312785 
L 99.2252 256.274406 
L 99.3244 256.29966 
L 99.3988 256.268812 
L 99.3554 256.312001 
L 99.4329 256.301847 
L 99.5166 256.317904 
L 99.4918 256.267031 
L 99.5445 256.290057 
L 99.777 256.306778 
L 99.7801 256.257927 
L 99.8018 256.318966 
L 99.8886 256.28513 
L 99.9909 256.3128 
L 99.9475 256.267404 
L 100.0002 256.307796 
L 100.087 256.269135 
L 100.0095 256.310655 
L 100.1118 256.298368 
L 100.2172 256.306297 
L 100.1428 256.280193 
L 100.2234 256.283828 
L 100.2296 256.302455 
L 100.4528 256.295708 
L 100.5427 256.313587 
L 100.4652 256.274788 
L 100.5644 256.307954 
L 100.6605 256.250371 
L 100.6822 256.267425 
L 100.8093 256.303305 
L 100.8496 256.260102 
L 100.8155 256.307565 
L 100.9209 256.29336 
L 101.0325 256.307961 
L 100.9519 256.248025 
L 101.0356 256.304414 
L 101.141 256.281245 
L 101.0635 256.315075 
L 101.1503 256.285175 
L 101.2557 256.314963 
L 101.1844 256.246307 
L 101.265 256.310765 
L 101.2805 256.318752 
L 101.3766 256.279121 
L 101.7145 256.289768 
L 101.7207 256.308861 
L 101.8292 256.273612 
L 101.8416 256.270596 
L 101.9439 256.31319 
L 102.0493 256.29712 
L 101.9501 256.27879 
L 102.0555 256.273517 
L 102.0586 256.24445 
L 102.0648 256.314886 
L 102.164 256.278209 
L 102.2694 256.31499 
L 102.1764 256.274736 
L 102.2818 256.306156 
L 102.9018 256.291219 
L 102.9049 256.223638 
L 102.9793 256.313748 
L 103.0103 256.272788 
L 103.1126 256.315839 
L 103.0816 256.238575 
L 103.1219 256.299187 
L 103.2273 256.242113 
L 103.1374 256.313677 
L 103.2335 256.248538 
L 103.2862 256.318255 
L 103.3451 256.305173 
L 103.3482 256.247862 
L 103.3792 256.316811 
L 103.4567 256.275989 
L 103.4908 256.245378 
L 103.5869 256.314744 
L 103.6241 256.263829 
L 103.6985 256.281888 
L 103.7822 256.312143 
L 103.7419 256.250692 
L 103.8101 256.292918 
L 103.9062 256.261159 
L 103.8504 256.309956 
L 103.9217 256.283096 
L 104.0426 256.301038 
L 104.0519 256.271041 
L 104.055 256.24369 
L 104.0767 256.315747 
L 104.1604 256.28011 
L 104.2627 256.311649 
L 104.2224 256.25683 
L 104.272 256.308833 
L 104.3247 256.255536 
L 104.2813 256.313835 
L 104.3805 256.305507 
L 104.458 256.308429 
L 104.4611 256.240079 
L 104.4828 256.286766 
L 104.5789 256.248833 
L 104.4921 256.314175 
L 104.5882 256.295835 
L 104.6781 256.310882 
L 104.5944 256.260538 
L 104.6936 256.269062 
L 104.8238 256.249575 
L 104.7029 256.303281 
L 104.8269 256.267094 
L 104.8827 256.316962 
L 104.9292 256.229522 
L 104.9385 256.280364 
L 104.9416 256.215481 
L 105.0253 256.310068 
L 105.047 256.296907 
L 105.078 256.315167 
L 105.1648 256.250544 
L 105.3043 256.293605 
L 105.3136 256.263121 
L 105.419 256.240785 
L 105.3198 256.30016 
L 105.4221 256.251799 
L 105.5182 256.304623 
L 105.4562 256.244745 
L 105.5306 256.290364 
L 105.5523 256.230178 
L 105.6205 256.315124 
L 105.6422 256.263814 
L 105.667 256.258944 
L 105.76 256.313959 
L 105.8468 256.226254 
L 105.8096 256.316183 
L 105.8716 256.288078 
L 105.9708 256.30632 
L 105.8964 256.257728 
L 105.9739 256.28377 
L 106.07 256.196318 
L 106.0204 256.314435 
L 106.0855 256.278093 
L 106.1072 256.298303 
L 106.2033 256.218826 
L 106.2653 256.313527 
L 106.3149 256.295113 
L 106.4203 256.227047 
L 106.3769 256.314774 
L 106.4265 256.260821 
L 106.4668 256.318482 
L 106.4575 256.231817 
L 106.5412 256.279538 
L 106.6156 256.312794 
L 106.5815 256.231327 
L 106.6435 256.263585 
L 106.6838 256.217388 
L 106.6528 256.309833 
L 106.752 256.276625 
L 106.8326 256.314154 
L 106.845 256.202981 
L 106.8636 256.301716 
L 106.9752 256.242581 
L 106.9783 256.279531 
L 107.8184 256.259441 
L 107.8835 256.31394 
L 107.9238 256.191467 
L 107.9269 256.306469 
L 107.992 256.18214 
L 107.9579 256.309164 
L 108.0354 256.294678 
L 108.1222 256.295415 
L 108.0664 256.165474 
L 108.1284 256.257747 
L 108.1315 256.199367 
L 108.2245 256.30399 
L 108.24 256.247529 
L 108.2865 256.194181 
L 108.2555 256.308666 
L 108.3485 256.222556 
L 108.3733 256.14727 
L 108.457 256.31023 
L 108.55 256.166789 
L 108.5686 256.270634 
L 108.6461 256.170718 
L 108.5965 256.304405 
L 108.6802 256.217832 
L 108.7856 256.305421 
L 108.7174 256.162881 
L 108.7918 256.28117 
L 108.8693 256.145363 
L 108.8383 256.300587 
L 108.9003 256.258382 
L 108.9964 256.289882 
L 108.9406 256.158499 
L 109.0026 256.239722 
L 109.0832 256.076401 
L 109.0088 256.302541 
L 109.1142 256.209665 
L 109.1576 256.31542 
L 109.2165 256.135878 
L 109.2258 256.240945 
L 109.2971 256.309864 
L 109.2909 256.023114 
L 109.325 256.29457 
L 109.3839 256.097856 
L 109.4335 256.18923 
L 109.4614 256.311871 
L 109.48 256.031859 
L 109.542 256.163564 
L 109.6288 255.959104 
L 109.5606 256.281824 
L 109.6412 256.215814 
L 109.6443 256.297538 
L 109.7311 255.80398 
L 109.7466 256.247992 
L 109.821 255.868785 
L 109.7869 256.298187 
L 109.8582 256.180916 
L 109.9853 255.31901 
L 109.8706 256.267348 
L 109.9884 255.662335 
L 110.0039 256.21493 
L 110.069 253.594548 
L 110.0845 254.660239 
L 110.0938 250.670808 
L 110.0969 252.859727 
L 110.1 36.005399 
L 110.193 256.224657 
L 110.2054 255.792509 
L 110.2302 255.631131 
L 110.2488 256.205228 
L 110.2829 255.938545 
L 110.3728 256.293425 
L 110.3139 255.844129 
L 110.3945 256.18836 
L 110.4937 255.984707 
L 110.503 256.317328 
L 110.5526 256.03613 
L 110.6146 256.188185 
L 110.6921 256.312809 
L 110.7076 256.112513 
L 110.7262 256.279171 
L 110.8099 256.047305 
L 110.7851 256.288225 
L 110.8378 256.193302 
L 110.8781 256.149277 
L 110.844 256.295867 
L 110.9122 256.253336 
L 110.9525 256.112433 
L 111.0176 256.295995 
L 111.0579 256.087866 
L 111.0393 256.303375 
L 111.1292 256.271157 
L 111.1478 256.140913 
L 111.216 256.291617 
L 111.2377 256.186795 
L 111.3462 256.311046 
L 111.3369 256.173075 
L 111.3493 256.25167 
L 111.4547 256.305172 
L 111.3555 256.21382 
L 111.4578 256.270783 
L 111.5539 256.176407 
L 111.5043 256.29792 
L 111.5694 256.214767 
L 111.588 256.152673 
L 111.6872 256.299059 
L 111.6903 256.181843 
L 111.7554 256.309573 
L 111.7988 256.251505 
L 111.8515 256.315616 
L 111.836 256.201226 
L 111.9011 256.297408 
L 111.9042 256.174736 
L 111.9228 256.31488 
L 112.0096 256.290594 
L 112.0716 256.187044 
L 112.0189 256.311614 
L 112.1243 256.278489 
L 112.2173 256.301021 
L 112.1801 256.210896 
L 112.2328 256.2822 
L 112.3041 256.187991 
L 112.3196 256.305257 
L 112.3413 256.271044 
L 112.425 256.31457 
L 112.3661 256.208325 
L 112.4467 256.304372 
L 112.456 256.314483 
L 112.5583 256.199591 
L 112.6482 256.311212 
L 112.6699 256.249298 
L 112.8497 256.296631 
L 112.859 256.272791 
L 112.8621 256.169023 
L 112.8869 256.316787 
L 112.9675 256.259195 
L 113.045 256.319656 
L 113.0667 256.198416 
L 113.076 256.249624 
L 113.1721 256.313766 
L 113.1845 256.204816 
L 113.2682 256.312798 
L 113.2992 256.295723 
L 113.4139 256.240607 
L 113.3116 256.308 
L 113.417 256.272312 
L 113.6247 256.257139 
L 113.4263 256.313625 
L 113.6309 256.277547 
L 113.7301 256.312712 
L 113.7177 256.248921 
L 113.7394 256.28983 
L 113.8386 256.246721 
L 113.7549 256.314127 
L 113.8541 256.260658 
L 113.9564 256.310591 
L 113.9409 256.224358 
L 113.9657 256.276513 
L 114.0556 256.239952 
L 113.975 256.314357 
L 114.0773 256.254648 
L 114.1734 256.318108 
L 114.1362 256.24368 
L 114.1889 256.296534 
L 114.3346 256.263611 
L 114.3377 256.298624 
L 114.4338 256.312649 
L 114.4028 256.233488 
L 114.4493 256.305599 
L 114.6167 256.313651 
L 114.6198 256.246545 
L 114.7283 256.276807 
L 114.8554 256.241976 
L 114.7407 256.313134 
L 114.8616 256.27015 
L 114.9205 256.304791 
L 114.8895 256.255287 
L 114.9732 256.278819 
L 115.0972 256.264812 
L 114.9825 256.299398 
L 115.1003 256.273183 
L 115.2088 256.308997 
L 115.1468 256.25647 
L 115.2119 256.273342 
L 115.3235 256.313551 
L 115.2553 256.246209 
L 115.3266 256.287683 
L 115.3328 256.249062 
L 115.5529 256.31208 
L 115.6707 256.26502 
L 115.7234 256.31295 
L 115.7296 256.25134 
L 115.7823 256.297126 
L 115.9342 256.313589 
L 115.7916 256.279407 
L 115.9435 256.278228 
L 116.0055 256.249298 
L 115.9559 256.308383 
L 116.052 256.301073 
L 116.145 256.315276 
L 116.1419 256.245013 
L 116.1543 256.307899 
L 116.2318 256.254474 
L 116.2132 256.313189 
L 116.2628 256.275915 
L 116.3558 256.258558 
L 116.3744 256.315424 
L 116.4891 256.272388 
L 116.4922 256.28821 
L 116.672 256.295547 
L 116.6813 256.243534 
L 116.734 256.318375 
L 116.7805 256.298575 
L 117.0223 256.313744 
L 117.0254 256.295484 
L 117.1215 256.269617 
L 117.0564 256.317093 
L 117.1339 256.302726 
L 117.1432 256.280464 
L 117.2703 256.293701 
L 117.3106 256.244416 
L 117.3478 256.319374 
L 117.3819 256.272466 
L 117.4501 256.316036 
L 117.4935 256.30344 
L 117.5865 256.26079 
L 117.4997 256.307057 
L 117.6051 256.285215 
L 117.6795 256.31921 
L 117.633 256.271432 
L 117.7167 256.29765 
L 117.8128 256.316396 
L 117.7353 256.273557 
L 117.8345 256.303305 
L 117.8872 256.257087 
L 117.85 256.310777 
L 117.9554 256.283732 
L 118.0391 256.31825 
L 118.067 256.293112 
L 118.0701 256.255866 
L 118.0887 256.310668 
L 118.1755 256.286856 
L 118.2623 256.314804 
L 118.222 256.275874 
L 118.2871 256.28857 
L 118.3925 256.318196 
L 118.4111 256.286477 
L 118.4142 256.257835 
L 118.4731 256.316919 
L 118.5196 256.306032 
L 119.2481 256.306793 
L 119.2574 256.259083 
L 119.2853 256.310231 
L 119.3597 256.269672 
L 119.4031 256.3193 
L 119.3752 256.263857 
L 119.4713 256.292802 
L 119.4992 256.317104 
L 119.586 256.289728 
L 119.6046 256.250951 
L 119.7007 256.309783 
L 119.8805 256.288505 
L 119.9859 256.315828 
L 119.8929 256.277483 
L 119.9921 256.281909 
L 120.1006 256.313748 
L 120.0014 256.268312 
L 120.1037 256.291354 
L 120.1068 256.265029 
L 120.1626 256.31424 
L 120.2122 256.301568 
L 120.3424 256.288443 
L 120.3455 256.294508 
L 120.4478 256.31643 
L 120.3827 256.265544 
L 120.4571 256.306137 
L 120.5532 256.275926 
L 120.4943 256.317368 
L 120.5687 256.293488 
L 120.6803 256.316301 
L 120.6152 256.274937 
L 120.6834 256.310095 
L 120.8012 256.284886 
L 120.8105 256.304518 
L 120.8973 256.31498 
L 120.9097 256.267559 
L 120.9252 256.303596 
L 121.5297 256.290046 
L 121.5328 256.272266 
L 121.5855 256.317804 
L 121.6382 256.308025 
L 121.6537 256.286667 
L 121.7746 256.310187 
L 121.88 256.286543 
L 121.8862 256.306287 
L 122.0102 256.29568 
L 122.1063 256.314267 
L 122.0629 256.274458 
L 122.1218 256.300123 
L 122.221 256.317956 
L 122.1342 256.290529 
L 122.2365 256.304529 
L 122.3016 256.281472 
L 122.2427 256.317181 
L 122.3481 256.301288 
L 122.4535 256.317877 
L 122.3574 256.267104 
L 122.469 256.304626 
L 122.5589 256.283889 
L 122.4938 256.318919 
L 122.5868 256.303866 
L 122.7294 256.315318 
L 122.7573 256.280651 
L 122.8441 256.303474 
L 123.089 256.296685 
L 123.0921 256.306636 
L 152.0864 256.307176 
L 152.0895 256.284897 
L 152.0926 256.319386 
L 152.1949 256.30708 
L 152.3189 256.31211 
L 152.57 256.294168 
L 152.5762 256.291591 
L 152.6847 256.316848 
L 152.6909 256.291352 
L 152.7963 256.315885 
L 152.9172 256.298715 
L 153.0319 256.31559 
L 153.4907 256.307941 
L 153.6023 256.305454 
L 153.5062 256.318877 
L 153.6085 256.312588 
L 154.0022 256.299274 
L 154.1014 256.315006 
L 154.0456 256.291645 
L 154.1138 256.301612 
L 154.2378 256.31909 
L 154.3494 256.300518 
L 154.4517 256.318622 
L 154.368 256.291893 
L 154.4641 256.304083 
L 154.5788 256.315852 
L 154.6904 256.297149 
L 154.7059 256.312655 
L 154.7121 256.295277 
L 154.9136 256.310836 
L 155.0593 256.306968 
L 155.0624 256.310133 
L 155.6142 256.31015 
L 155.7227 256.297282 
L 155.6266 256.316294 
L 155.732 256.305204 
L 156.1691 256.312719 
L 156.1815 256.295956 
L 156.2962 256.315162 
L 156.476 256.29705 
L 156.5442 256.316959 
L 156.5535 256.26982 
L 156.5845 256.298446 
L 156.6775 256.264741 
L 156.5969 256.316388 
L 156.6992 256.302662 
L 156.8976 256.287596 
L 156.9007 256.307803 
L 167.0718 256.313514 
L 167.0873 256.295881 
L 167.1958 256.307751 
L 167.3136 256.30494 
L 167.202 256.315733 
L 167.3167 256.31364 
L 167.5027 256.313087 
L 167.6112 256.293729 
L 167.6205 256.305905 
L 167.7786 256.302864 
L 167.7817 256.309456 
L 167.8034 256.299921 
L 167.8933 256.311269 
L 168.008 256.304873 
L 168.1444 256.314503 
L 168.0142 256.2993 
L 168.1475 256.305596 
L 168.2343 256.296104 
L 168.1599 256.314383 
L 168.2591 256.305433 
L 168.3831 256.318592 
L 168.3862 256.309401 
L 168.6094 256.285046 
L 168.7179 256.316431 
L 168.7241 256.310111 
L 168.7489 256.317025 
L 168.8388 256.306995 
L 168.8512 256.292919 
L 168.9721 256.317419 
L 169.4681 256.313649 
L 169.4743 256.293999 
L 169.5921 256.314005 
L 169.713 256.302223 
L 169.7161 256.307965 
L 169.8277 256.315607 
L 169.7347 256.299026 
L 169.8339 256.310093 
L 169.9703 256.314959 
L 170.0788 256.293928 
L 170.0819 256.315315 
L 170.2431 256.315254 
L 170.0912 256.299667 
L 170.2462 256.310657 
L 170.3764 256.300492 
L 170.2555 256.319206 
L 170.3795 256.302826 
L 170.5066 256.317246 
L 170.5097 256.314163 
L 170.6058 256.293273 
L 170.5252 256.319066 
L 170.6244 256.308354 
L 170.7515 256.311336 
L 170.9003 256.315534 
L 171.0274 256.298262 
L 171.0305 256.30646 
L 171.2661 256.317809 
L 171.2692 256.309498 
L 171.2754 256.315107 
L 171.4087 256.299761 
L 171.5172 256.318119 
L 171.5203 256.315272 
L 171.6443 256.306525 
L 184.4938 256.28979 
L 184.5 255.759139 
L 184.6023 256.318479 
L 184.7201 256.305498 
L 184.7232 256.313851 
L 184.8844 256.306742 
L 185.0053 256.309667 
L 185.12 256.30738 
L 185.0146 256.317361 
L 185.1231 256.308599 
L 185.1386 256.29584 
L 185.244 256.308426 
L 185.3835 256.304619 
L 193.9767 256.317439 
L 194.1875 256.317161 
L 194.2991 256.306263 
L 194.3022 256.312116 
L 194.4696 256.315952 
L 194.7176 256.290954 
L 194.7207 256.305201 
L 194.823 256.312709 
L 194.8354 256.306697 
L 195.0276 256.306346 
L 195.133 256.314697 
L 195.1423 256.302579 
L 195.2446 256.296614 
L 195.1578 256.317351 
L 195.2539 256.310242 
L 195.3717 256.315733 
L 195.2632 256.29667 
L 195.3779 256.309485 
L 195.4027 256.318736 
L 195.4926 256.304248 
L 195.4988 256.29506 
L 195.6073 256.312183 
L 195.7158 256.301768 
L 195.7251 256.307704 
L 195.7313 256.299923 
L 195.8491 256.314621 
L 195.9483 256.295493 
L 195.9638 256.315256 
L 196.1126 256.308054 
L 196.2428 256.314023 
L 196.3513 256.296466 
L 196.3699 256.305922 
L 196.4784 256.316018 
L 196.3823 256.301462 
L 196.4846 256.309259 
L 196.6272 256.313756 
L 196.8008 256.290804 
L 196.8039 256.30115 
L 196.9062 256.313021 
L 196.8194 256.296095 
L 196.9186 256.308428 
L 197.024 256.317271 
L 196.9465 256.294743 
L 197.0364 256.308652 
L 197.1232 256.297295 
L 197.0612 256.317895 
L 197.1511 256.309093 
L 197.3154 256.315456 
L 197.4363 256.300822 
L 197.4425 256.311368 
L 197.5541 256.314663 
L 197.5603 256.311199 
L 197.6781 256.306453 
L 197.8331 256.319526 
L 197.8362 256.31192 
L 197.9416 256.299377 
L 197.8455 256.317754 
L 197.9478 256.303373 
L 198.0532 256.315896 
L 197.9571 256.300438 
L 198.0625 256.310658 
L 198.3508 256.314077 
L 198.4469 256.300759 
L 198.4686 256.310498 
L 198.7848 256.30719 
L 198.8034 256.299208 
L 198.9026 256.311431 
L 199.0297 256.297618 
L 199.1413 256.316274 
L 199.2529 256.295039 
L 199.3676 256.31535 
L 199.4575 256.30082 
L 199.4823 256.315731 
L 199.6001 256.297998 
L 199.7086 256.315975 
L 199.7148 256.3039 
L 199.9132 256.31196 
L 200.9331 256.318214 
L 201.0447 256.295256 
L 201.0664 256.291048 
L 201.1594 256.31878 
L 201.2772 256.304992 
L 202.2258 256.314014 
L 202.2351 256.317163 
L 202.3405 256.300652 
L 202.4552 256.313306 
L 202.5854 256.301525 
L 202.604 256.290868 
L 202.7032 256.314896 
L 202.8272 256.303148 
L 202.9357 256.315043 
L 202.9388 256.309288 
L 203.1124 256.307001 
L 202.945 256.318112 
L 203.1186 256.316327 
L 204.2811 256.305378 
L 204.3896 256.311649 
L 204.3927 256.309787 
L 204.4981 256.297143 
L 204.3989 256.315666 
L 204.5043 256.311488 
L 204.6066 256.290171 
L 204.6252 256.314298 
L 204.8205 256.30894 
L 204.8267 256.316024 
L 204.9724 256.313187 
L 205.1336 256.314755 
L 204.9786 256.295828 
L 205.1367 256.307135 
L 205.2607 256.302175 
L 205.1429 256.312869 
L 205.2638 256.31057 
L 205.7939 256.312762 
L 205.9086 256.302123 
L 206.0233 256.311628 
L 206.1473 256.315926 
L 206.0295 256.30329 
L 206.1535 256.309541 
L 206.2434 256.299949 
L 206.1721 256.317997 
L 206.2651 256.313419 
L 206.7208 256.302757 
L 206.727 256.293378 
L 206.8324 256.308372 
L 206.8417 256.317335 
L 206.944 256.306122 
L 206.9502 256.298242 
L 207.0618 256.318631 
L 207.1703 256.297811 
L 207.1765 256.305898 
L 207.3439 256.313133 
L 207.4772 256.29973 
L 207.4834 256.306148 
L 207.5113 256.295045 
L 207.5981 256.31049 
L 207.7159 256.306288 
L 207.6043 256.316007 
L 207.719 256.310769 
L 207.9794 256.310617 
L 208.0569 256.294252 
L 207.9949 256.316133 
L 208.091 256.315615 
L 209.2194 256.304456 
L 209.3248 256.317201 
L 209.331 256.313391 
L 209.4085 256.297587 
L 209.4426 256.315566 
L 209.7619 256.299806 
L 210.5245 256.302577 
L 210.6144 256.319678 
L 210.54 256.296505 
L 210.6361 256.306216 
L 210.6423 256.28894 
L 210.7942 256.311848 
L 210.9213 256.304508 
L 210.9244 256.311008 
L 211.0701 256.31479 
L 211.3088 256.299073 
L 211.4142 256.319214 
L 211.4235 256.314463 
L 211.5444 256.303064 
L 212.059 256.315536 
L 212.1706 256.314272 
L 212.0683 256.301808 
L 212.1799 256.304226 
L 212.2636 256.301509 
L 212.1861 256.317273 
L 212.2884 256.314599 
L 212.5643 256.294011 
L 212.5922 256.285652 
L 212.679 256.31555 
L 212.7906 256.301128 
L 212.7968 256.308024 
L 212.9487 256.303972 
L 213.0758 256.311903 
L 213.1998 256.305951 
L 213.2029 256.308192 
L 213.3114 256.313097 
L 213.2246 256.299538 
L 213.3145 256.309607 
L 213.4075 256.295831 
L 213.3362 256.318007 
L 213.4261 256.315005 
L 213.6741 256.316361 
L 213.7857 256.30137 
L 213.9066 256.317464 
L 214.0306 256.304044 
L 214.0337 256.306649 
L 214.1763 256.31426 
L 214.3406 256.305263 
L 214.446 256.319177 
L 214.3561 256.297575 
L 214.4553 256.305345 
L 214.4646 256.300883 
L 214.5731 256.315931 
L 215.9402 256.312908 
L 216.0177 256.293798 
L 216.0487 256.297859 
L 216.1603 256.317199 
L 216.275 256.306025 
L 216.2812 256.318942 
L 216.461 256.312509 
L 216.5819 256.31305 
L 216.4796 256.290033 
L 216.585 256.307533 
L 216.6904 256.292386 
L 216.5974 256.31595 
L 216.7028 256.3089 
L 216.8547 256.315461 
L 217.0097 256.309489 
L 217.1678 256.314369 
L 217.1709 256.308047 
L 217.2794 256.302443 
L 217.1833 256.31575 
L 217.2887 256.307018 
L 217.4313 256.31247 
L 217.4344 256.309722 
L 217.6607 256.31072 
L 217.8033 256.311219 
L 217.9149 256.29578 
L 217.8095 256.317685 
L 217.9242 256.306157 
L 218.0358 256.31491 
L 217.9428 256.297761 
L 218.042 256.311614 
L 218.0482 256.297588 
L 218.1722 256.308421 
L 218.445 256.290609 
L 218.5473 256.318108 
L 218.5597 256.315927 
L 218.8232 256.299593 
L 218.9193 256.31809 
L 218.8449 256.294679 
L 218.9348 256.30959 
L 218.9472 256.317 
L 219.0495 256.304563 
L 219.158 256.317544 
L 219.0619 256.301141 
L 219.1642 256.307432 
L 219.282 256.314475 
L 219.1797 256.298312 
L 219.2851 256.310015 
L 219.4184 256.304476 
L 219.5331 256.315126 
L 219.5362 256.309779 
L 219.6385 256.294585 
L 219.5424 256.319824 
L 219.6571 256.312614 
L 219.902 256.315957 
L 219.9051 256.304974 
L 220.7824 256.308374 
L 220.7948 256.304341 
L 220.8971 256.31654 
L 221.0118 256.300024 
L 221.018 256.310905 
L 221.1358 256.314958 
L 221.2257 256.301564 
L 221.2474 256.313828 
L 221.3497 256.300157 
L 221.3652 256.30959 
L 221.4985 256.318294 
L 221.3745 256.300186 
L 221.5047 256.312503 
L 221.6752 256.30669 
L 221.7868 256.318065 
L 221.6907 256.29586 
L 221.793 256.305585 
L 222.8749 256.313884 
L 222.9493 256.284701 
L 222.9865 256.300204 
L 222.9958 256.294053 
L 223.1012 256.316394 
L 223.3399 256.310019 
L 223.3554 256.294934 
L 223.4701 256.310393 
L 223.5011 256.316744 
L 223.5817 256.288138 
L 223.6995 256.317769 
L 223.8049 256.292664 
L 223.8142 256.315063 
L 226.0927 256.31147 
L 226.195 256.294971 
L 226.1082 256.314287 
L 226.2043 256.308027 
L 226.319 256.292266 
L 226.4151 256.313702 
L 226.3376 256.282373 
L 226.4306 256.308089 
L 226.5608 256.297339 
L 226.6786 256.316959 
L 226.7809 256.303323 
L 226.7964 256.310834 
L 227.0227 256.315827 
L 227.1343 256.297246 
L 227.1374 256.302491 
L 227.3823 256.311676 
L 227.5466 256.309537 
L 227.559 256.291891 
L 227.6861 256.319055 
L 227.7667 256.285726 
L 227.7977 256.311015 
L 228.0891 256.309253 
L 228.1883 256.315402 
L 228.1263 256.292932 
L 228.2038 256.305732 
L 228.3309 256.316691 
L 228.4425 256.298982 
L 228.5572 256.315589 
L 228.5603 256.311821 
L 228.6812 256.305202 
L 228.8827 256.307772 
L 228.9943 256.296897 
L 228.8889 256.313389 
L 228.9974 256.299966 
L 229.2516 256.314573 
L 229.3601 256.297314 
L 229.3663 256.30981 
L 229.4779 256.317427 
L 229.3942 256.296325 
L 229.481 256.312174 
L 229.4903 256.318477 
L 229.5957 256.299985 
L 229.7011 256.311481 
L 229.7073 256.298645 
L 229.9274 256.307704 
L 230.0452 256.302983 
L 230.0514 256.312455 
L 230.0638 256.30023 
L 230.1785 256.317323 
L 230.2901 256.29864 
L 230.2963 256.311427 
L 230.4792 256.285885 
L 230.4823 256.299088 
L 230.5908 256.316181 
L 230.5288 256.288879 
L 230.597 256.313832 
L 230.7241 256.306147 
L 236.7009 256.301677 
L 236.7939 256.316079 
L 236.8125 256.305956 
L 236.9396 256.311842 
L 237.0729 256.29692 
L 237.076 256.302793 
L 237.2062 256.28603 
L 237.2155 256.302468 
L 237.5038 256.310457 
L 237.5875 256.282909 
L 237.5193 256.315412 
L 237.6216 256.291058 
L 237.7363 256.316213 
L 237.82 256.290364 
L 237.851 256.306112 
L 237.8944 256.285689 
L 237.9688 256.313832 
L 238.0959 256.293122 
L 238.2013 256.316959 
L 238.1238 256.276729 
L 238.2075 256.295726 
L 238.5578 256.311597 
L 238.6632 256.283767 
L 238.5826 256.315397 
L 238.6694 256.307423 
L 238.7686 256.315911 
L 238.7004 256.29658 
L 238.781 256.303506 
L 238.9019 256.290424 
L 238.7934 256.315168 
L 238.9143 256.303899 
L 239.029 256.317299 
L 239.1406 256.290085 
L 239.1437 256.301059 
L 239.2863 256.304531 
L 239.3917 256.283943 
L 239.3018 256.314236 
L 239.401 256.308948 
L 240.1946 256.295222 
L 240.2783 256.316157 
L 240.2163 256.285526 
L 240.3062 256.298353 
L 240.3155 256.312162 
L 240.4333 256.296751 
L 240.8022 256.290091 
L 240.8983 256.314943 
L 240.9138 256.312945 
L 241.0285 256.29173 
L 241.1401 256.311963 
L 241.2238 256.277813 
L 241.1525 256.314017 
L 241.2548 256.296633 
L 241.354 256.316593 
L 241.261 256.285701 
L 241.3664 256.3129 
L 241.5121 256.291884 
L 241.5462 256.269748 
L 241.6237 256.317176 
L 241.7322 256.291958 
L 241.7353 256.300333 
L 241.8345 256.309926 
L 241.7415 256.292951 
L 241.8469 256.300861 
L 241.9771 256.29336 
L 241.8562 256.308887 
L 241.9833 256.308306 
L 242.1352 256.315339 
L 241.9957 256.29347 
L 242.1383 256.301501 
L 242.408 256.295449 
L 242.4328 256.284686 
L 242.5227 256.314438 
L 242.6002 256.280916 
L 242.6343 256.30038 
L 242.6622 256.270893 
L 242.749 256.308476 
L 242.8079 256.280638 
L 242.7552 256.316078 
L 242.8575 256.306555 
L 242.8637 256.276715 
L 242.9722 256.310467 
L 243.0528 256.288256 
L 243.0001 256.316046 
L 243.0838 256.294418 
L 243.1923 256.309421 
L 243.1241 256.276761 
L 243.1985 256.306102 
L 243.3194 256.288227 
L 243.2078 256.315751 
L 243.3256 256.301424 
L 243.6201 256.294453 
L 243.6387 256.318161 
L 243.7317 256.282974 
L 243.834 256.310843 
L 243.8464 256.296716 
L 243.958 256.282373 
L 243.8619 256.315915 
L 243.9735 256.298749 
L 244.0169 256.266551 
L 244.0913 256.308724 
L 244.1781 256.27996 
L 244.1006 256.316389 
L 244.2091 256.29217 
L 244.3114 256.313318 
L 244.237 256.272311 
L 244.3238 256.290216 
L 244.3331 256.270526 
L 244.4695 256.303593 
L 244.4726 256.261163 
L 244.4943 256.318229 
L 244.578 256.295687 
L 244.6772 256.310061 
L 244.5842 256.280318 
L 244.6927 256.296533 
L 244.795 256.27273 
L 244.7082 256.317905 
L 244.8012 256.315434 
L 244.9407 256.27674 
L 244.9438 256.295739 
L 247.0301 256.298871 
L 247.089 256.273644 
L 247.1448 256.31296 
L 253.8439 256.310424 
L 253.8563 256.27244 
L 253.9524 256.291279 
L 254.0051 256.232665 
L 253.9741 256.315937 
L 254.0609 256.313048 
L 254.157 256.218596 
L 254.1973 256.255511 
L 254.2934 256.311854 
L 254.2097 256.24097 
L 254.312 256.296763 
L 254.3523 256.235118 
L 254.3182 256.309832 
L 254.4236 256.277164 
L 254.498 256.312016 
L 254.4422 256.265208 
L 254.5352 256.287371 
L 254.5414 256.314588 
L 254.6468 256.224431 
L 254.6499 256.316224 
L 254.7584 256.295148 
L 254.7677 256.311772 
L 254.87 256.211182 
L 254.9568 256.316877 
L 254.9816 256.305026 
L 255.0033 256.222069 
L 255.0963 256.301841 
L 255.1769 256.314415 
L 255.1304 256.230934 
L 255.2048 256.290302 
L 255.2575 256.229935 
L 255.2141 256.309352 
L 255.3226 256.268177 
L 255.428 256.311142 
L 255.3815 256.228408 
L 255.4342 256.292066 
L 255.4838 256.211969 
L 255.5055 256.305366 
L 255.5427 256.287791 
L 255.6326 256.301865 
L 255.5985 256.246363 
L 255.6419 256.276429 
L 255.7101 256.219003 
L 255.6946 256.315273 
L 255.7504 256.28685 
L 255.8155 256.221526 
L 255.7628 256.310143 
L 255.8651 256.250399 
L 255.9364 256.313209 
L 255.9488 256.227407 
L 255.9767 256.287171 
L 256.0635 256.224767 
L 256.0077 256.296662 
L 256.0914 256.25299 
L 256.1131 256.309358 
L 256.1906 256.209099 
L 256.203 256.278947 
L 256.2898 256.306165 
L 256.2371 256.192894 
L 256.3053 256.265547 
L 256.3084 256.20875 
L 256.3487 256.316492 
L 256.4169 256.239935 
L 256.513 256.312031 
L 256.4541 256.218119 
L 256.5285 256.309172 
L 256.544 256.189777 
L 256.6401 256.262982 
L 256.7548 256.308731 
L 256.7238 256.191797 
L 256.7579 256.306243 
L 256.8664 256.147266 
L 256.8695 256.282181 
L 256.9532 256.202085 
L 256.9098 256.312407 
L 256.9811 256.269663 
L 257.0803 256.303077 
L 257.0524 256.196718 
L 257.0834 256.286844 
L 257.1733 256.147606 
L 257.1175 256.308033 
L 257.195 256.248837 
L 257.2167 256.146619 
L 257.257 256.31494 
L 257.3035 256.238147 
L 257.3965 256.296802 
L 257.35 256.177545 
L 257.412 256.194721 
L 257.5112 256.293439 
L 257.5174 256.157509 
L 257.5236 256.200383 
L 257.6383 256.305742 
L 257.6104 256.173034 
L 257.6414 256.278416 
L 257.6693 256.137653 
L 257.7096 256.294936 
L 257.753 256.223083 
L 257.8646 256.072278 
L 257.7964 256.306383 
L 257.8677 256.141427 
L 257.8832 256.086225 
L 257.9793 256.311204 
L 258.0909 256.016167 
L 258.094 256.20613 
L 258.1064 256.305488 
L 258.1839 256.099615 
L 258.2025 256.221494 
L 258.28 256.040572 
L 258.2614 256.304837 
L 258.3141 256.116204 
L 258.3203 256.309965 
L 258.4195 256.033667 
L 258.4226 256.216923 
L 258.5311 255.803013 
L 258.4443 256.303088 
L 258.5373 256.040423 
L 258.5869 256.293366 
L 258.621 255.832382 
L 258.6489 256.079578 
L 258.7202 255.608614 
L 258.6706 256.273793 
L 258.7543 256.141293 
L 258.7574 256.184542 
L 258.7853 255.30567 
L 258.7977 255.615752 
L 258.8938 250.592851 
L 258.8752 256.232666 
L 258.8969 252.948198 
L 258.9 34.56 
L 258.993 256.228523 
L 259.0054 255.753497 
L 259.1728 256.283196 
L 259.0302 255.604348 
L 259.1852 256.231779 
L 259.2937 255.976457 
L 259.2317 256.281811 
L 259.2968 256.057968 
L 259.303 256.307668 
L 259.3526 256.045351 
L 259.4084 256.134749 
L 259.427 256.302308 
L 259.4425 256.115658 
L 259.52 256.217864 
L 259.5603 256.290636 
L 259.5293 256.088161 
L 259.6068 256.247058 
L 259.6099 256.025561 
L 259.7153 256.300038 
L 259.8579 256.0954 
L 259.861 256.238054 
L 259.8641 256.294768 
L 259.8734 256.137368 
L 259.9726 256.277804 
L 259.9943 256.157868 
L 260.0408 256.311984 
L 260.0811 256.212554 
L 260.109 256.313043 
L 260.1369 256.172157 
L 260.1927 256.254541 
L 260.2609 256.180851 
L 260.2237 256.309585 
L 260.3012 256.222707 
L 260.4004 256.308279 
L 260.388 256.152139 
L 260.4128 256.249153 
L 260.4903 256.189915 
L 260.4283 256.304429 
L 260.5151 256.221776 
L 260.5585 256.309193 
L 260.5275 256.192545 
L 260.6267 256.263585 
L 260.7042 256.181434 
L 260.6422 256.310894 
L 260.7476 256.266486 
L 260.8406 256.306069 
L 260.8034 256.210575 
L 260.8468 256.288263 
L 260.8499 256.181387 
L 260.8685 256.310497 
L 260.9584 256.266628 
L 260.9801 256.193084 
L 261.0638 256.294337 
L 261.1041 256.184958 
L 261.1475 256.312008 
L 261.1754 256.272798 
L 261.2653 256.31555 
L 261.1847 256.214302 
L 261.287 256.298154 
L 261.3583 256.202033 
L 261.38 256.315302 
L 261.3986 256.263586 
L 261.5133 256.299071 
L 261.411 256.238957 
L 261.5226 256.275247 
L 261.5257 256.205335 
L 261.6187 256.308837 
L 261.6311 256.275904 
L 261.7365 256.306485 
L 261.6621 256.179491 
L 261.7427 256.287607 
L 261.8388 256.233235 
L 261.7861 256.314657 
L 261.8605 256.27352 
L 261.8667 256.204288 
L 261.9721 256.309341 
L 261.9845 256.209707 
L 262.0837 256.261521 
L 262.1395 256.316563 
L 262.093 256.240521 
L 262.1922 256.276814 
L 262.2728 256.229114 
L 262.2263 256.315467 
L 262.3007 256.276143 
L 262.3038 256.31085 
L 262.3689 256.225834 
L 262.4123 256.282752 
L 262.4495 256.305311 
L 262.5177 256.254128 
L 262.5425 256.246038 
L 262.6293 256.314251 
L 262.7409 256.22618 
L 262.744 256.265129 
L 262.8246 256.312801 
L 262.8525 256.290697 
L 262.9362 256.242937 
L 262.8928 256.311275 
L 262.9641 256.256226 
L 263.0416 256.311052 
L 263.054 256.217039 
L 263.0757 256.281492 
L 263.085 256.230318 
L 263.147 256.315285 
L 263.1842 256.290841 
L 263.271 256.313175 
L 263.2028 256.226247 
L 263.2958 256.307045 
L 263.3237 256.229848 
L 263.3082 256.315923 
L 263.4105 256.262342 
L 263.4167 256.317824 
L 263.4198 256.248123 
L 263.5221 256.284207 
L 263.55 256.24624 
L 263.5407 256.316799 
L 263.6306 256.295501 
L 263.6399 256.240124 
L 263.736 256.30378 
L 263.7887 256.250142 
L 263.7701 256.311623 
L 263.8476 256.297984 
L 263.9778 256.310959 
L 263.8538 256.272077 
L 263.984 256.298327 
L 264.0553 256.237403 
L 263.9933 256.312368 
L 264.0987 256.24472 
L 264.1886 256.315118 
L 264.1452 256.228636 
L 264.2103 256.275728 
L 264.3529 256.314853 
L 264.3653 256.300238 
L 264.4707 256.258184 
L 264.3777 256.308668 
L 264.4769 256.289573 
L 264.5389 256.254793 
L 264.5947 256.315504 
L 264.7063 256.259108 
L 264.7094 256.284136 
L 264.8427 256.274557 
L 264.8489 256.297885 
L 264.945 256.31282 
L 264.8737 256.275881 
L 264.9543 256.304391 
L 265.0318 256.249995 
L 264.9884 256.31828 
L 265.0628 256.291471 
L 265.1744 256.31045 
L 265.1093 256.262739 
L 265.1775 256.304915 
L 265.2519 256.274957 
L 265.193 256.309313 
L 265.2922 256.289561 
L 265.4379 256.280755 
L 265.2984 256.304622 
L 265.4503 256.308314 
L 265.6022 256.304859 
L 265.4813 256.246367 
L 265.6053 256.293919 
L 265.7107 256.267717 
L 265.627 256.317046 
L 265.7138 256.27561 
L 265.8223 256.311126 
L 265.7448 256.262175 
L 265.8254 256.299559 
L 265.8285 256.267544 
L 265.8409 256.315578 
L 265.9339 256.293757 
L 266.0331 256.31855 
L 265.9432 256.268233 
L 266.0486 256.303454 
L 266.1106 256.243886 
L 266.0858 256.316175 
L 266.1633 256.27593 
L 266.278 256.304623 
L 266.2842 256.302229 
L 266.3865 256.264881 
L 266.3059 256.308419 
L 266.3958 256.294815 
L 266.4981 256.309776 
L 266.4051 256.285002 
L 266.5136 256.302257 
L 266.6438 256.280023 
L 266.5198 256.307867 
L 266.6469 256.307292 
L 266.6624 256.262871 
L 266.8236 256.30131 
L 266.9259 256.272823 
L 266.8391 256.307129 
L 266.9352 256.288772 
L 266.9445 256.277679 
L 267.0809 256.306334 
L 267.1336 256.276954 
L 267.1119 256.315236 
L 267.1894 256.295086 
L 267.2731 256.318701 
L 267.2142 256.253976 
L 267.3041 256.302243 
L 267.4033 256.280263 
L 267.3103 256.312042 
L 267.4188 256.294016 
L 267.456 256.271677 
L 267.5304 256.310229 
L 267.642 256.287052 
L 267.6451 256.298002 
L 269.0804 256.296053 
L 269.1827 256.266662 
L 269.1176 256.318416 
L 269.192 256.272185 
L 269.3036 256.314221 
L 269.4152 256.283478 
L 269.4183 256.291822 
L 269.5144 256.318433 
L 269.4586 256.275049 
L 269.5299 256.300344 
L 269.5702 256.317048 
L 269.6415 256.283078 
L 269.7438 256.313922 
L 269.6508 256.281762 
L 269.7531 256.296223 
L 269.8709 256.31708 
L 269.7872 256.283229 
L 269.874 256.308396 
L 269.8833 256.284488 
L 270.029 256.303744 
L 270.0414 256.274535 
L 270.0507 256.314973 
L 270.1406 256.30162 
L 270.2336 256.319151 
L 270.1499 256.282566 
L 270.2553 256.307209 
L 270.8195 256.307675 
L 270.9187 256.267404 
L 270.835 256.310285 
L 270.9311 256.291639 
L 273.2344 256.303253 
L 273.3398 256.282821 
L 273.2499 256.313665 
L 273.346 256.298084 
L 273.532 256.274464 
L 273.3522 256.309639 
L 273.5351 256.306092 
L 273.5413 256.299895 
L 273.6467 256.309124 
L 273.6994 256.2752 
L 273.6529 256.318605 
L 273.7645 256.303259 
L 273.8792 256.319791 
L 273.8854 256.297902 
L 273.8916 256.310739 
L 274.0125 256.300507 
L 274.0931 256.316016 
L 274.0373 256.274463 
L 274.1241 256.302581 
L 274.1334 256.295183 
L 274.2543 256.317727 
L 274.3194 256.275605 
L 274.369 256.298809 
L 274.4806 256.308312 
L 274.4837 256.27695 
L 274.4868 256.315591 
L 274.5891 256.307171 
L 274.6015 256.29852 
L 274.71 256.309445 
L 274.7565 256.285192 
L 274.7162 256.317765 
L 274.8216 256.296805 
L 274.9425 256.313722 
L 274.9518 256.303673 
L 274.9642 256.315236 
L 275.0696 256.28007 
L 275.175 256.316476 
L 275.1843 256.311725 
L 275.2091 256.287356 
L 275.3114 256.314426 
L 275.4044 256.295516 
L 275.423 256.30802 
L 275.4292 256.296618 
L 275.5594 256.308103 
L 275.6679 256.296046 
L 275.5749 256.317581 
L 275.6741 256.300701 
L 275.7826 256.31891 
L 275.7206 256.282577 
L 275.7888 256.317774 
L 275.9035 256.28551 
L 275.9128 256.302443 
L 276.0833 256.313006 
L 276.0864 256.30458 
L 276.0988 256.312487 
L 276.2042 256.287075 
L 276.3096 256.318405 
L 276.3189 256.313977 
L 276.4832 256.310004 
L 276.5917 256.285762 
L 276.5979 256.310603 
L 276.7467 256.305686 
L 276.8831 256.317897 
L 276.9916 256.299162 
L 276.9947 256.317775 
L 277.004 256.297192 
L 277.1807 256.312616 
L 277.2923 256.301938 
L 277.2985 256.307404 
L 277.4101 256.318397 
L 277.3202 256.294501 
L 277.4163 256.314698 
L 277.562 256.300721 
L 277.6581 256.313967 
L 277.6736 256.298597 
L 277.686 256.319097 
L 277.8193 256.301377 
L 277.934 256.311225 
L 278.0208 256.290933 
L 277.9495 256.316358 
L 278.0487 256.301169 
L 278.1789 256.293882 
L 278.0549 256.316682 
L 278.182 256.297646 
L 278.2812 256.310316 
L 278.2037 256.292691 
L 278.2936 256.306844 
L 278.3835 256.288689 
L 278.3308 256.316564 
L 278.4083 256.297254 
L 278.5106 256.29337 
L 278.4145 256.312822 
L 278.523 256.304853 
L 278.5323 256.295421 
L 278.647 256.310086 
L 278.7958 256.302343 
L 278.8919 256.312946 
L 278.8144 256.291036 
L 278.9074 256.304237 
L 279.1616 256.310218 
L 279.2639 256.300567 
L 279.2794 256.306274 
L 279.4158 256.299099 
L 279.5429 256.31501 
L 279.6638 256.297951 
L 279.7723 256.314132 
L 279.7072 256.286029 
L 279.7785 256.297819 
L 279.8002 256.31657 
L 279.9025 256.301082 
L 280.073 256.316573 
L 280.1908 256.308252 
L 280.3303 256.311057 
L 280.3396 256.316728 
L 280.445 256.303414 
L 280.569 256.310996 
L 280.7643 256.302946 
L 280.7674 256.279513 
L 280.7891 256.314561 
L 280.8728 256.317171 
L 280.9906 256.285253 
L 280.9968 256.304797 
L 281.127 256.310853 
L 281.2014 256.285026 
L 281.2417 256.306216 
L 281.2479 256.317363 
L 281.3688 256.296417 
L 281.4711 256.317696 
L 281.4804 256.314243 
L 281.592 256.294526 
L 281.5951 256.313819 
L 282.3391 256.308002 
L 282.4135 256.28995 
L 282.4538 256.300691 
L 282.5561 256.317934 
L 282.4817 256.292556 
L 282.5685 256.312835 
L 282.6584 256.296686 
L 282.6801 256.311428 
L 282.6863 256.316327 
L 282.801 256.301486 
L 282.925 256.312082 
L 283.0335 256.294036 
L 283.049 256.303127 
L 283.1637 256.317053 
L 283.0614 256.298551 
L 283.1668 256.314309 
L 283.2443 256.29296 
L 283.2784 256.308131 
L 283.421 256.313788 
L 283.5202 256.288875 
L 283.4365 256.317116 
L 283.5326 256.310289 
L 283.6566 256.303295 
L 283.6814 256.296021 
L 283.7682 256.309725 
L 283.886 256.29851 
L 283.8953 256.311787 
L 284.3727 256.303381 
L 284.382 256.298276 
L 284.4874 256.310261 
L 284.5959 256.284208 
L 284.4967 256.314187 
L 284.6021 256.305885 
L 284.7075 256.317792 
L 284.7168 256.305547 
L 284.8129 256.293965 
L 284.723 256.314414 
L 284.8346 256.306923 
L 284.9586 256.316578 
L 284.9617 256.310832 
L 285.0826 256.303585 
L 285.2221 256.310363 
L 285.0888 256.284275 
L 285.2252 256.307423 
L 285.3926 256.309559 
L 285.3988 256.296097 
L 285.5507 256.3133 
L 285.6623 256.302399 
L 285.6654 256.311693 
L 285.7832 256.31813 
L 285.6716 256.306402 
L 285.7894 256.311468 
L 285.9072 256.304757 
L 286.056 256.316987 
L 286.1335 256.289849 
L 286.1707 256.301072 
L 286.2885 256.314499 
L 286.5582 256.311461 
L 286.6636 256.294473 
L 286.6729 256.303423 
L 286.7845 256.317247 
L 286.6822 256.292227 
L 286.7876 256.312542 
L 287.0759 256.311247 
L 287.0821 256.300324 
L 287.1968 256.309727 
L 287.3208 256.297284 
L 287.4603 256.3138 
L 287.5688 256.302658 
L 287.5781 256.312929 
L 287.9749 256.307003 
L 288.0896 256.296163 
L 287.9842 256.31439 
L 288.0958 256.308603 
L 288.3035 256.312578 
L 288.4337 256.30042 
L 288.5515 256.318636 
L 288.5546 256.314075 
L 288.5608 256.301311 
L 288.6972 256.31485 
L 288.8057 256.296377 
L 288.8088 256.304199 
L 288.8429 256.29296 
L 288.9204 256.315158 
L 288.9421 256.281414 
L 288.9297 256.31685 
L 289.032 256.315567 
L 289.5559 256.301078 
L 289.6613 256.318378 
L 289.6675 256.311154 
L 290.148 256.306493 
L 290.2565 256.316856 
L 290.1542 256.303781 
L 290.2627 256.312832 
L 293.3224 256.31041 
L 293.4433 256.311453 
L 293.3379 256.297086 
L 293.4464 256.308656 
L 293.5549 256.291688 
L 293.465 256.31593 
L 293.5611 256.312349 
L 293.8153 256.305939 
L 293.9331 256.311678 
L 293.9362 256.310269 
L 294.1315 256.296299 
L 294.1346 256.314052 
L 294.3361 256.305017 
L 294.4353 256.305542 
L 294.3485 256.31774 
L 294.4477 256.313516 
L 294.5872 256.310089 
L 294.705 256.299827 
L 294.5934 256.31492 
L 294.7081 256.303788 
L 294.8073 256.315765 
L 294.7267 256.298475 
L 294.8228 256.310734 
L 294.9964 256.304293 
L 295.1111 256.311413 
L 295.2227 256.305329 
L 295.2289 256.312282 
L 295.6784 256.303001 
L 295.7869 256.298283 
L 295.6908 256.314269 
L 295.79 256.310957 
L 299.4449 256.311259 
L 299.5534 256.303352 
L 299.5565 256.311499 
L 299.5658 256.318834 
L 299.6774 256.294582 
L 299.7797 256.313866 
L 299.789 256.310277 
L 299.9099 256.304136 
L 300.0215 256.318884 
L 300.0246 256.316091 
L 300.1269 256.304235 
L 300.1393 256.312812 
L 300.2571 256.316222 
L 300.2602 256.3054 
L 300.378 256.30266 
L 300.2695 256.317922 
L 300.3811 256.306101 
L 300.3873 256.302304 
L 300.5113 256.314018 
L 300.6322 256.300833 
L 300.7438 256.318654 
L 300.8616 256.291549 
L 300.9763 256.318506 
L 301.06 256.300184 
L 301.0879 256.315151 
L 301.2305 256.30199 
L 301.2336 256.305678 
L 301.3514 256.315428 
L 301.3545 256.313496 
L 301.5405 256.30191 
L 301.5467 256.312234 
L 301.5529 256.294084 
L 301.6676 256.313229 
L 301.7947 256.304175 
L 301.7978 256.30663 
L 301.9249 256.316972 
L 302.0458 256.296171 
L 302.0551 256.304476 
L 302.1636 256.312443 
L 302.1729 256.305925 
L 302.4116 256.309796 
L 302.5449 256.307935 
L 302.4178 256.316226 
L 302.548 256.312517 
L 324.0031 256.307383 
L 324.0031 256.307383 
" clip-path="url(#p51340f887d)" style="fill: none; stroke: #ff800e; stroke-width: 2; stroke-linecap: square"/>
   </g>
   <g id="patch_3">
    <path d="M 45 256.32 
L 45 34.56 
" style="fill: none; stroke: #000000; stroke-width: 2; stroke-linejoin: miter; stroke-linecap: square"/>
   </g>
   <g id="patch_4">
    <path d="M 45 256.32 
L 324 256.32 
" style="fill: none; stroke: #000000; stroke-width: 2; stroke-linejoin: miter; stroke-linecap: square"/>
   </g>
  </g>
 </g>
 <defs>
  <clipPath id="p51340f887d">
   <rect x="45" y="34.56" width="279" height="221.76"/>
  </clipPath>
 </defs>
</svg>
