<?xml version="1.0" encoding="utf-8" standalone="no"?>
<!DOCTYPE svg PUBLIC "-//W3C//DTD SVG 1.1//EN"
  "http://www.w3.org/Graphics/SVG/1.1/DTD/svg11.dtd">
<svg xmlns:xlink="http://www.w3.org/1999/xlink" width="288pt" height="288pt" viewBox="0 0 288 288" xmlns="http://www.w3.org/2000/svg" version="1.1">
 <metadata>
  <rdf:RDF xmlns:dc="http://purl.org/dc/elements/1.1/" xmlns:cc="http://creativecommons.org/ns#" xmlns:rdf="http://www.w3.org/1999/02/22-rdf-syntax-ns#">
   <cc:Work>
    <dc:type rdf:resource="http://purl.org/dc/dcmitype/StillImage"/>
    <dc:date>2023-02-23T16:01:14.760365</dc:date>
    <dc:format>image/svg+xml</dc:format>
    <dc:creator>
     <cc:Agent>
      <dc:title>Matplotlib v3.7.0, https://matplotlib.org/</dc:title>
     </cc:Agent>
    </dc:creator>
   </cc:Work>
  </rdf:RDF>
 </metadata>
 <defs>
  <style type="text/css">*{stroke-linejoin: round; stroke-linecap: butt}</style>
 </defs>
 <g id="figure_1">
  <g id="patch_1">
   <path d="M 0 288 
L 288 288 
L 288 0 
L 0 0 
z
" style="fill: #ffffff"/>
  </g>
  <g id="axes_1">
   <g id="patch_2">
    <path d="M 36 256.32 
L 259.2 256.32 
L 259.2 34.56 
L 36 34.56 
z
" style="fill: #ffffff"/>
   </g>
   <g id="matplotlib.axis_1">
    <g id="xtick_1">
     <g id="line2d_1">
      <defs>
       <path id="m90d4f78703" d="M 0 0 
L 0 3.5 
" style="stroke: #000000; stroke-width: 0.8"/>
      </defs>
      <g>
       <use xlink:href="#m90d4f78703" x="36" y="256.32" style="stroke: #000000; stroke-width: 0.8"/>
      </g>
     </g>
     <g id="text_1">
      <!-- $\mathdefault{10^{0}}$ -->
      <g transform="translate(21.87 281.8825) scale(0.18 -0.18)">
       <defs>
        <path id="ArialMT-31" d="M 2384 0 
L 1822 0 
L 1822 3584 
Q 1619 3391 1289 3197 
Q 959 3003 697 2906 
L 697 3450 
Q 1169 3672 1522 3987 
Q 1875 4303 2022 4600 
L 2384 4600 
L 2384 0 
z
" transform="scale(0.015625)"/>
        <path id="ArialMT-30" d="M 266 2259 
Q 266 3072 433 3567 
Q 600 4063 929 4331 
Q 1259 4600 1759 4600 
Q 2128 4600 2406 4451 
Q 2684 4303 2865 4023 
Q 3047 3744 3150 3342 
Q 3253 2941 3253 2259 
Q 3253 1453 3087 958 
Q 2922 463 2592 192 
Q 2263 -78 1759 -78 
Q 1097 -78 719 397 
Q 266 969 266 2259 
z
M 844 2259 
Q 844 1131 1108 757 
Q 1372 384 1759 384 
Q 2147 384 2411 759 
Q 2675 1134 2675 2259 
Q 2675 3391 2411 3762 
Q 2147 4134 1753 4134 
Q 1366 4134 1134 3806 
Q 844 3388 844 2259 
z
" transform="scale(0.015625)"/>
       </defs>
       <use xlink:href="#ArialMT-31" transform="translate(0 0.99375)"/>
       <use xlink:href="#ArialMT-30" transform="translate(55.615234 0.99375)"/>
       <use xlink:href="#ArialMT-30" transform="translate(112.972813 70.6875) scale(0.7)"/>
      </g>
     </g>
    </g>
    <g id="xtick_2">
     <g id="line2d_2">
      <g>
       <use xlink:href="#m90d4f78703" x="110.4" y="256.32" style="stroke: #000000; stroke-width: 0.8"/>
      </g>
     </g>
     <g id="text_2">
      <!-- $\mathdefault{10^{1}}$ -->
      <g transform="translate(96.27 281.8825) scale(0.18 -0.18)">
       <use xlink:href="#ArialMT-31" transform="translate(0 0.99375)"/>
       <use xlink:href="#ArialMT-30" transform="translate(55.615234 0.99375)"/>
       <use xlink:href="#ArialMT-31" transform="translate(112.972813 70.6875) scale(0.7)"/>
      </g>
     </g>
    </g>
    <g id="xtick_3">
     <g id="line2d_3">
      <g>
       <use xlink:href="#m90d4f78703" x="184.8" y="256.32" style="stroke: #000000; stroke-width: 0.8"/>
      </g>
     </g>
     <g id="text_3">
      <!-- $\mathdefault{10^{2}}$ -->
      <g transform="translate(170.67 281.8825) scale(0.18 -0.18)">
       <defs>
        <path id="ArialMT-32" d="M 3222 541 
L 3222 0 
L 194 0 
Q 188 203 259 391 
Q 375 700 629 1000 
Q 884 1300 1366 1694 
Q 2113 2306 2375 2664 
Q 2638 3022 2638 3341 
Q 2638 3675 2398 3904 
Q 2159 4134 1775 4134 
Q 1369 4134 1125 3890 
Q 881 3647 878 3216 
L 300 3275 
Q 359 3922 746 4261 
Q 1134 4600 1788 4600 
Q 2447 4600 2831 4234 
Q 3216 3869 3216 3328 
Q 3216 3053 3103 2787 
Q 2991 2522 2730 2228 
Q 2469 1934 1863 1422 
Q 1356 997 1212 845 
Q 1069 694 975 541 
L 3222 541 
z
" transform="scale(0.015625)"/>
       </defs>
       <use xlink:href="#ArialMT-31" transform="translate(0 0.99375)"/>
       <use xlink:href="#ArialMT-30" transform="translate(55.615234 0.99375)"/>
       <use xlink:href="#ArialMT-32" transform="translate(112.972813 70.6875) scale(0.7)"/>
      </g>
     </g>
    </g>
    <g id="xtick_4">
     <g id="line2d_4">
      <g>
       <use xlink:href="#m90d4f78703" x="259.2" y="256.32" style="stroke: #000000; stroke-width: 0.8"/>
      </g>
     </g>
     <g id="text_4">
      <!-- $\mathdefault{10^{3}}$ -->
      <g transform="translate(245.07 281.8825) scale(0.18 -0.18)">
       <defs>
        <path id="ArialMT-33" d="M 269 1209 
L 831 1284 
Q 928 806 1161 595 
Q 1394 384 1728 384 
Q 2125 384 2398 659 
Q 2672 934 2672 1341 
Q 2672 1728 2419 1979 
Q 2166 2231 1775 2231 
Q 1616 2231 1378 2169 
L 1441 2663 
Q 1497 2656 1531 2656 
Q 1891 2656 2178 2843 
Q 2466 3031 2466 3422 
Q 2466 3731 2256 3934 
Q 2047 4138 1716 4138 
Q 1388 4138 1169 3931 
Q 950 3725 888 3313 
L 325 3413 
Q 428 3978 793 4289 
Q 1159 4600 1703 4600 
Q 2078 4600 2393 4439 
Q 2709 4278 2876 4000 
Q 3044 3722 3044 3409 
Q 3044 3113 2884 2869 
Q 2725 2625 2413 2481 
Q 2819 2388 3044 2092 
Q 3269 1797 3269 1353 
Q 3269 753 2831 336 
Q 2394 -81 1725 -81 
Q 1122 -81 723 278 
Q 325 638 269 1209 
z
" transform="scale(0.015625)"/>
       </defs>
       <use xlink:href="#ArialMT-31" transform="translate(0 0.99375)"/>
       <use xlink:href="#ArialMT-30" transform="translate(55.615234 0.99375)"/>
       <use xlink:href="#ArialMT-33" transform="translate(112.972813 70.6875) scale(0.7)"/>
      </g>
     </g>
    </g>
    <g id="xtick_5">
     <g id="line2d_5">
      <defs>
       <path id="m9631d7b35a" d="M 0 0 
L 0 2 
" style="stroke: #000000; stroke-width: 0.6"/>
      </defs>
      <g>
       <use xlink:href="#m9631d7b35a" x="58.396632" y="256.32" style="stroke: #000000; stroke-width: 0.6"/>
      </g>
     </g>
    </g>
    <g id="xtick_6">
     <g id="line2d_6">
      <g>
       <use xlink:href="#m9631d7b35a" x="71.497821" y="256.32" style="stroke: #000000; stroke-width: 0.6"/>
      </g>
     </g>
    </g>
    <g id="xtick_7">
     <g id="line2d_7">
      <g>
       <use xlink:href="#m9631d7b35a" x="80.793263" y="256.32" style="stroke: #000000; stroke-width: 0.6"/>
      </g>
     </g>
    </g>
    <g id="xtick_8">
     <g id="line2d_8">
      <g>
       <use xlink:href="#m9631d7b35a" x="88.003368" y="256.32" style="stroke: #000000; stroke-width: 0.6"/>
      </g>
     </g>
    </g>
    <g id="xtick_9">
     <g id="line2d_9">
      <g>
       <use xlink:href="#m9631d7b35a" x="93.894453" y="256.32" style="stroke: #000000; stroke-width: 0.6"/>
      </g>
     </g>
    </g>
    <g id="xtick_10">
     <g id="line2d_10">
      <g>
       <use xlink:href="#m9631d7b35a" x="98.875294" y="256.32" style="stroke: #000000; stroke-width: 0.6"/>
      </g>
     </g>
    </g>
    <g id="xtick_11">
     <g id="line2d_11">
      <g>
       <use xlink:href="#m9631d7b35a" x="103.189895" y="256.32" style="stroke: #000000; stroke-width: 0.6"/>
      </g>
     </g>
    </g>
    <g id="xtick_12">
     <g id="line2d_12">
      <g>
       <use xlink:href="#m9631d7b35a" x="106.995643" y="256.32" style="stroke: #000000; stroke-width: 0.6"/>
      </g>
     </g>
    </g>
    <g id="xtick_13">
     <g id="line2d_13">
      <g>
       <use xlink:href="#m9631d7b35a" x="132.796632" y="256.32" style="stroke: #000000; stroke-width: 0.6"/>
      </g>
     </g>
    </g>
    <g id="xtick_14">
     <g id="line2d_14">
      <g>
       <use xlink:href="#m9631d7b35a" x="145.897821" y="256.32" style="stroke: #000000; stroke-width: 0.6"/>
      </g>
     </g>
    </g>
    <g id="xtick_15">
     <g id="line2d_15">
      <g>
       <use xlink:href="#m9631d7b35a" x="155.193263" y="256.32" style="stroke: #000000; stroke-width: 0.6"/>
      </g>
     </g>
    </g>
    <g id="xtick_16">
     <g id="line2d_16">
      <g>
       <use xlink:href="#m9631d7b35a" x="162.403368" y="256.32" style="stroke: #000000; stroke-width: 0.6"/>
      </g>
     </g>
    </g>
    <g id="xtick_17">
     <g id="line2d_17">
      <g>
       <use xlink:href="#m9631d7b35a" x="168.294453" y="256.32" style="stroke: #000000; stroke-width: 0.6"/>
      </g>
     </g>
    </g>
    <g id="xtick_18">
     <g id="line2d_18">
      <g>
       <use xlink:href="#m9631d7b35a" x="173.275294" y="256.32" style="stroke: #000000; stroke-width: 0.6"/>
      </g>
     </g>
    </g>
    <g id="xtick_19">
     <g id="line2d_19">
      <g>
       <use xlink:href="#m9631d7b35a" x="177.589895" y="256.32" style="stroke: #000000; stroke-width: 0.6"/>
      </g>
     </g>
    </g>
    <g id="xtick_20">
     <g id="line2d_20">
      <g>
       <use xlink:href="#m9631d7b35a" x="181.395643" y="256.32" style="stroke: #000000; stroke-width: 0.6"/>
      </g>
     </g>
    </g>
    <g id="xtick_21">
     <g id="line2d_21">
      <g>
       <use xlink:href="#m9631d7b35a" x="207.196632" y="256.32" style="stroke: #000000; stroke-width: 0.6"/>
      </g>
     </g>
    </g>
    <g id="xtick_22">
     <g id="line2d_22">
      <g>
       <use xlink:href="#m9631d7b35a" x="220.297821" y="256.32" style="stroke: #000000; stroke-width: 0.6"/>
      </g>
     </g>
    </g>
    <g id="xtick_23">
     <g id="line2d_23">
      <g>
       <use xlink:href="#m9631d7b35a" x="229.593263" y="256.32" style="stroke: #000000; stroke-width: 0.6"/>
      </g>
     </g>
    </g>
    <g id="xtick_24">
     <g id="line2d_24">
      <g>
       <use xlink:href="#m9631d7b35a" x="236.803368" y="256.32" style="stroke: #000000; stroke-width: 0.6"/>
      </g>
     </g>
    </g>
    <g id="xtick_25">
     <g id="line2d_25">
      <g>
       <use xlink:href="#m9631d7b35a" x="242.694453" y="256.32" style="stroke: #000000; stroke-width: 0.6"/>
      </g>
     </g>
    </g>
    <g id="xtick_26">
     <g id="line2d_26">
      <g>
       <use xlink:href="#m9631d7b35a" x="247.675294" y="256.32" style="stroke: #000000; stroke-width: 0.6"/>
      </g>
     </g>
    </g>
    <g id="xtick_27">
     <g id="line2d_27">
      <g>
       <use xlink:href="#m9631d7b35a" x="251.989895" y="256.32" style="stroke: #000000; stroke-width: 0.6"/>
      </g>
     </g>
    </g>
    <g id="xtick_28">
     <g id="line2d_28">
      <g>
       <use xlink:href="#m9631d7b35a" x="255.795643" y="256.32" style="stroke: #000000; stroke-width: 0.6"/>
      </g>
     </g>
    </g>
   </g>
   <g id="matplotlib.axis_2">
    <g id="ytick_1">
     <g id="line2d_29">
      <defs>
       <path id="m59f5d6af29" d="M 0 0 
L -3.5 0 
" style="stroke: #000000; stroke-width: 0.8"/>
      </defs>
      <g>
       <use xlink:href="#m59f5d6af29" x="36" y="256.32" style="stroke: #000000; stroke-width: 0.8"/>
      </g>
     </g>
     <g id="text_5">
      <!-- 0 -->
      <g transform="translate(18.990313 262.762031) scale(0.18 -0.18)">
       <use xlink:href="#ArialMT-30"/>
      </g>
     </g>
    </g>
    <g id="ytick_2">
     <g id="line2d_30">
      <g>
       <use xlink:href="#m59f5d6af29" x="36" y="230.094235" style="stroke: #000000; stroke-width: 0.8"/>
      </g>
     </g>
     <g id="text_6">
      <!-- 2 -->
      <g transform="translate(18.990313 236.536266) scale(0.18 -0.18)">
       <use xlink:href="#ArialMT-32"/>
      </g>
     </g>
    </g>
    <g id="ytick_3">
     <g id="line2d_31">
      <g>
       <use xlink:href="#m59f5d6af29" x="36" y="203.86847" style="stroke: #000000; stroke-width: 0.8"/>
      </g>
     </g>
     <g id="text_7">
      <!-- 4 -->
      <g transform="translate(18.990313 210.310501) scale(0.18 -0.18)">
       <defs>
        <path id="ArialMT-34" d="M 2069 0 
L 2069 1097 
L 81 1097 
L 81 1613 
L 2172 4581 
L 2631 4581 
L 2631 1613 
L 3250 1613 
L 3250 1097 
L 2631 1097 
L 2631 0 
L 2069 0 
z
M 2069 1613 
L 2069 3678 
L 634 1613 
L 2069 1613 
z
" transform="scale(0.015625)"/>
       </defs>
       <use xlink:href="#ArialMT-34"/>
      </g>
     </g>
    </g>
    <g id="ytick_4">
     <g id="line2d_32">
      <g>
       <use xlink:href="#m59f5d6af29" x="36" y="177.642705" style="stroke: #000000; stroke-width: 0.8"/>
      </g>
     </g>
     <g id="text_8">
      <!-- 6 -->
      <g transform="translate(18.990313 184.084736) scale(0.18 -0.18)">
       <defs>
        <path id="ArialMT-36" d="M 3184 3459 
L 2625 3416 
Q 2550 3747 2413 3897 
Q 2184 4138 1850 4138 
Q 1581 4138 1378 3988 
Q 1113 3794 959 3422 
Q 806 3050 800 2363 
Q 1003 2672 1297 2822 
Q 1591 2972 1913 2972 
Q 2475 2972 2870 2558 
Q 3266 2144 3266 1488 
Q 3266 1056 3080 686 
Q 2894 316 2569 119 
Q 2244 -78 1831 -78 
Q 1128 -78 684 439 
Q 241 956 241 2144 
Q 241 3472 731 4075 
Q 1159 4600 1884 4600 
Q 2425 4600 2770 4297 
Q 3116 3994 3184 3459 
z
M 888 1484 
Q 888 1194 1011 928 
Q 1134 663 1356 523 
Q 1578 384 1822 384 
Q 2178 384 2434 671 
Q 2691 959 2691 1453 
Q 2691 1928 2437 2201 
Q 2184 2475 1800 2475 
Q 1419 2475 1153 2201 
Q 888 1928 888 1484 
z
" transform="scale(0.015625)"/>
       </defs>
       <use xlink:href="#ArialMT-36"/>
      </g>
     </g>
    </g>
    <g id="ytick_5">
     <g id="line2d_33">
      <g>
       <use xlink:href="#m59f5d6af29" x="36" y="151.41694" style="stroke: #000000; stroke-width: 0.8"/>
      </g>
     </g>
     <g id="text_9">
      <!-- 8 -->
      <g transform="translate(18.990313 157.858971) scale(0.18 -0.18)">
       <defs>
        <path id="ArialMT-38" d="M 1131 2484 
Q 781 2613 612 2850 
Q 444 3088 444 3419 
Q 444 3919 803 4259 
Q 1163 4600 1759 4600 
Q 2359 4600 2725 4251 
Q 3091 3903 3091 3403 
Q 3091 3084 2923 2848 
Q 2756 2613 2416 2484 
Q 2838 2347 3058 2040 
Q 3278 1734 3278 1309 
Q 3278 722 2862 322 
Q 2447 -78 1769 -78 
Q 1091 -78 675 323 
Q 259 725 259 1325 
Q 259 1772 486 2073 
Q 713 2375 1131 2484 
z
M 1019 3438 
Q 1019 3113 1228 2906 
Q 1438 2700 1772 2700 
Q 2097 2700 2305 2904 
Q 2513 3109 2513 3406 
Q 2513 3716 2298 3927 
Q 2084 4138 1766 4138 
Q 1444 4138 1231 3931 
Q 1019 3725 1019 3438 
z
M 838 1322 
Q 838 1081 952 856 
Q 1066 631 1291 507 
Q 1516 384 1775 384 
Q 2178 384 2440 643 
Q 2703 903 2703 1303 
Q 2703 1709 2433 1975 
Q 2163 2241 1756 2241 
Q 1359 2241 1098 1978 
Q 838 1716 838 1322 
z
" transform="scale(0.015625)"/>
       </defs>
       <use xlink:href="#ArialMT-38"/>
      </g>
     </g>
    </g>
    <g id="ytick_6">
     <g id="line2d_34">
      <g>
       <use xlink:href="#m59f5d6af29" x="36" y="125.191175" style="stroke: #000000; stroke-width: 0.8"/>
      </g>
     </g>
     <g id="text_10">
      <!-- 10 -->
      <g transform="translate(8.980625 131.633206) scale(0.18 -0.18)">
       <use xlink:href="#ArialMT-31"/>
       <use xlink:href="#ArialMT-30" x="55.615234"/>
      </g>
     </g>
    </g>
    <g id="ytick_7">
     <g id="line2d_35">
      <g>
       <use xlink:href="#m59f5d6af29" x="36" y="98.96541" style="stroke: #000000; stroke-width: 0.8"/>
      </g>
     </g>
     <g id="text_11">
      <!-- 12 -->
      <g transform="translate(8.980625 105.407441) scale(0.18 -0.18)">
       <use xlink:href="#ArialMT-31"/>
       <use xlink:href="#ArialMT-32" x="55.615234"/>
      </g>
     </g>
    </g>
    <g id="ytick_8">
     <g id="line2d_36">
      <g>
       <use xlink:href="#m59f5d6af29" x="36" y="72.739645" style="stroke: #000000; stroke-width: 0.8"/>
      </g>
     </g>
     <g id="text_12">
      <!-- 14 -->
      <g transform="translate(8.980625 79.181676) scale(0.18 -0.18)">
       <use xlink:href="#ArialMT-31"/>
       <use xlink:href="#ArialMT-34" x="55.615234"/>
      </g>
     </g>
    </g>
    <g id="ytick_9">
     <g id="line2d_37">
      <g>
       <use xlink:href="#m59f5d6af29" x="36" y="46.51388" style="stroke: #000000; stroke-width: 0.8"/>
      </g>
     </g>
     <g id="text_13">
      <!-- 16 -->
      <g transform="translate(8.980625 52.955911) scale(0.18 -0.18)">
       <use xlink:href="#ArialMT-31"/>
       <use xlink:href="#ArialMT-36" x="55.615234"/>
      </g>
     </g>
    </g>
   </g>
   <g id="line2d_38">
    <path d="M 35.989228 256.319099 
L 38.296689 256.319757 
L 44.535328 256.318862 
L 45.680872 256.319534 
L 94.439132 256.319474 
L 94.713317 256.319556 
L 107.527375 256.319373 
L 107.764297 256.319129 
L 107.969317 256.319503 
L 108.841121 256.319711 
L 109.182914 256.319592 
L 111.702473 256.319558 
L 113.212187 256.319351 
L 113.737079 256.319306 
L 117.102948 256.319647 
L 117.269693 256.31964 
L 126.271884 256.319506 
L 126.46244 256.319793 
L 126.75722 256.318975 
L 126.897791 256.319737 
L 127.062844 256.319695 
L 128.030218 256.319634 
L 130.234466 256.319243 
L 130.432648 256.318778 
L 130.555249 256.319841 
L 130.555826 256.319218 
L 130.783591 256.31949 
L 131.267692 256.319481 
L 131.460778 256.319393 
L 131.916654 256.319541 
L 132.165276 256.319383 
L 132.324138 256.31945 
L 132.518637 256.319698 
L 132.733023 256.319175 
L 133.023094 256.319741 
L 133.203872 256.319783 
L 134.38696 256.319301 
L 134.518957 256.319929 
L 134.770707 256.319465 
L 134.995868 256.319857 
L 135.149949 256.319389 
L 135.526771 256.319421 
L 135.715269 256.318458 
L 135.839999 256.319785 
L 136.228765 256.319658 
L 136.362626 256.319166 
L 136.51514 256.319421 
L 137.023738 256.319604 
L 137.411208 256.319916 
L 137.545383 256.318886 
L 137.679467 256.319429 
L 137.846177 256.319204 
L 139.188238 256.319361 
L 139.383397 256.319685 
L 140.97688 256.319377 
L 141.110805 256.319075 
L 141.111222 256.319429 
L 142.694287 256.31932 
L 142.816949 256.319321 
L 143.02245 256.319743 
L 143.170839 256.319356 
L 143.344982 256.319871 
L 143.522055 256.319236 
L 143.683556 256.319204 
L 144.032315 256.319121 
L 144.170847 256.319669 
L 144.386003 256.319445 
L 144.997547 256.318916 
L 145.118037 256.319843 
L 145.246507 256.318389 
L 145.246873 256.319755 
L 145.390153 256.31933 
L 145.540425 256.319491 
L 145.677714 256.319485 
L 161.394081 256.318794 
L 161.507228 256.319556 
L 161.507449 256.319412 
L 161.684139 256.319579 
L 161.684579 256.31901 
L 161.828964 256.319545 
L 161.943004 256.31931 
L 161.829622 256.319832 
L 161.943441 256.319567 
L 162.112987 256.319912 
L 162.230796 256.319437 
L 162.231229 256.319754 
L 162.36263 256.319714 
L 162.550159 256.319928 
L 162.666601 256.318893 
L 162.667242 256.319172 
L 162.786031 256.31983 
L 162.786244 256.319111 
L 162.786883 256.31856 
L 162.93025 256.319426 
L 163.056734 256.31924 
L 163.056945 256.319471 
L 163.377902 256.318788 
L 163.490987 256.319859 
L 163.491404 256.3188 
L 163.659255 256.319481 
L 163.659669 256.31988 
L 163.778794 256.319574 
L 165.035767 256.319401 
L 165.150923 256.319005 
L 165.036561 256.319697 
L 165.151714 256.319608 
L 165.15211 256.319862 
L 165.270007 256.318382 
L 165.382761 256.319653 
L 165.382957 256.319618 
L 165.516649 256.319631 
L 165.516844 256.319359 
L 165.628157 256.318904 
L 165.517236 256.319483 
L 165.629717 256.319819 
L 165.749966 256.318755 
L 165.750548 256.319483 
L 165.953445 256.319587 
L 166.14932 256.319952 
L 166.149512 256.319651 
L 166.263641 256.319003 
L 166.380796 256.319571 
L 166.381367 256.318687 
L 166.537924 256.319487 
L 166.538303 256.319868 
L 166.652958 256.318502 
L 166.763819 256.319854 
L 166.765325 256.319572 
L 166.882928 256.318925 
L 166.884054 256.319475 
L 167.193471 256.318812 
L 167.193657 256.319419 
L 167.337462 256.319697 
L 167.194028 256.319044 
L 167.337647 256.319538 
L 167.663829 256.319538 
L 167.664744 256.318887 
L 167.790067 256.319716 
L 167.909093 256.319188 
L 167.909275 256.319593 
L 168.031664 256.31936 
L 168.032569 256.318557 
L 168.164768 256.319969 
L 168.286374 256.319275 
L 168.400369 256.31985 
L 168.401442 256.319494 
L 168.567406 256.319121 
L 168.688574 256.319674 
L 168.568652 256.318356 
L 168.688751 256.319274 
L 168.810702 256.318754 
L 168.689638 256.319732 
L 168.810878 256.319449 
L 168.811232 256.319136 
L 168.931842 256.31961 
L 169.048146 256.319212 
L 169.17434 256.319665 
L 169.292909 256.319149 
L 169.293083 256.319425 
L 169.409657 256.319882 
L 169.410351 256.319643 
L 169.677344 256.319533 
L 169.789628 256.318817 
L 169.791514 256.319378 
L 169.913137 256.319518 
L 169.791856 256.318579 
L 169.913307 256.319426 
L 170.084443 256.319639 
L 170.20497 256.31906 
L 170.20514 256.319404 
L 170.337185 256.319688 
L 170.459964 256.319392 
L 170.583283 256.319666 
L 170.460804 256.318644 
L 170.583617 256.319394 
L 170.584286 256.319973 
L 170.723454 256.319454 
L 170.895995 256.319844 
L 170.896326 256.319197 
L 171.006936 256.318564 
L 170.896657 256.319708 
L 171.009907 256.319352 
L 171.754661 256.319733 
L 171.866556 256.318965 
L 171.755145 256.319836 
L 171.867198 256.319889 
L 171.980787 256.319111 
L 171.981427 256.319277 
L 172.12301 256.319675 
L 172.238723 256.3192 
L 172.239041 256.318787 
L 172.35339 256.319624 
L 172.978205 256.319475 
L 173.092603 256.319235 
L 172.978671 256.319741 
L 173.093532 256.319621 
L 173.2385 256.319633 
L 173.355512 256.319178 
L 173.355819 256.319732 
L 173.844776 256.319025 
L 173.957055 256.319829 
L 173.957809 256.319571 
L 173.958562 256.318579 
L 174.103758 256.319743 
L 174.217086 256.319071 
L 174.218281 256.319787 
L 174.440478 256.319478 
L 174.599779 256.319789 
L 174.715946 256.31898 
L 174.71624 256.319379 
L 174.834922 256.318777 
L 174.716682 256.31983 
L 174.835068 256.319082 
L 174.94864 256.319887 
L 174.948933 256.319643 
L 174.949371 256.319845 
L 175.069093 256.319079 
L 175.183008 256.319803 
L 175.183443 256.319606 
L 175.304326 256.318812 
L 175.304904 256.319397 
L 175.421734 256.319942 
L 175.305915 256.3187 
L 175.421878 256.319391 
L 176.37225 256.319821 
L 176.483341 256.318848 
L 176.484873 256.319257 
L 176.695942 256.319768 
L 176.69608 256.319433 
L 176.824543 256.3196 
L 177.032042 256.319652 
L 177.144577 256.31888 
L 177.145123 256.31933 
L 177.260257 256.319699 
L 177.145396 256.318983 
L 177.260393 256.319655 
L 177.26121 256.318814 
L 177.391785 256.319827 
L 177.50753 256.319132 
L 177.620576 256.319764 
L 177.620711 256.319265 
L 177.758685 256.318461 
L 177.621114 256.319942 
L 177.758819 256.319185 
L 177.760292 256.318505 
L 177.872993 256.319839 
L 178.006573 256.318708 
L 178.006706 256.319286 
L 178.618882 256.319818 
L 178.730841 256.318868 
L 178.731101 256.319182 
L 178.731881 256.318754 
L 178.850961 256.319704 
L 178.85135 256.318938 
L 179.02052 256.319726 
L 179.132896 256.31901 
L 179.134051 256.31949 
L 179.249359 256.319756 
L 179.135078 256.318844 
L 179.249487 256.319488 
L 179.366933 256.319135 
L 179.250126 256.319715 
L 179.367315 256.319553 
L 179.489539 256.318963 
L 179.602955 256.319887 
L 179.603461 256.319764 
L 179.714336 256.319039 
L 179.715344 256.319273 
L 179.840406 256.319802 
L 179.840531 256.319691 
L 179.957229 256.318698 
L 179.840782 256.319911 
L 179.957854 256.319327 
L 179.958104 256.318986 
L 180.075625 256.319637 
L 180.205263 256.318594 
L 180.316941 256.319759 
L 180.317065 256.319592 
L 180.444137 256.319059 
L 180.44463 256.319375 
L 182.586427 256.318548 
L 182.697426 256.319845 
L 182.698 256.319671 
L 182.846741 256.318745 
L 182.957877 256.319799 
L 182.958333 256.319511 
L 182.958789 256.319923 
L 183.084196 256.319353 
L 183.085445 256.318653 
L 183.198255 256.319871 
L 183.32488 256.318981 
L 183.325443 256.319583 
L 183.445283 256.319701 
L 183.326233 256.319066 
L 183.44562 256.319504 
L 183.573518 256.319502 
L 183.573742 256.319762 
L 183.574301 256.318941 
L 183.73054 256.319514 
L 183.846227 256.318774 
L 183.730763 256.319891 
L 183.846448 256.319568 
L 183.982606 256.319863 
L 183.846892 256.319128 
L 183.982827 256.319338 
L 184.098276 256.318975 
L 183.983159 256.319713 
L 184.098606 256.319464 
L 184.213204 256.319814 
L 184.099817 256.319049 
L 184.213424 256.319701 
L 184.329037 256.318514 
L 184.329911 256.319354 
L 184.330785 256.318699 
L 184.456432 256.319626 
L 184.568143 256.318632 
L 184.456758 256.319849 
L 184.56836 256.319486 
L 184.728189 256.319217 
L 184.840902 256.31997 
L 184.72862 256.319052 
L 184.841117 256.319621 
L 184.956439 256.31911 
L 184.959547 256.317973 
L 185.069001 256.31973 
L 185.179044 256.318608 
L 185.181066 256.31986 
L 185.306319 256.319022 
L 185.306531 256.319195 
L 185.307167 256.318625 
L 185.421474 256.319819 
L 185.537274 256.319097 
L 185.537379 256.319337 
L 186.751269 256.319738 
L 186.8616 256.318424 
L 186.863115 256.319637 
L 186.98716 256.318486 
L 186.86362 256.319945 
L 186.988367 256.319434 
L 187.101503 256.319841 
L 186.98877 256.319017 
L 187.101905 256.319386 
L 187.102205 256.319889 
L 187.213545 256.318997 
L 187.324801 256.319922 
L 187.325996 256.319664 
L 187.439546 256.318582 
L 187.440439 256.319461 
L 187.440936 256.318639 
L 187.583444 256.319612 
L 187.69639 256.318492 
L 187.58384 256.319865 
L 187.69767 256.319215 
L 187.697966 256.319943 
L 187.824639 256.319199 
L 187.940754 256.319934 
L 187.940949 256.319636 
L 188.0547 256.319332 
L 187.941243 256.319769 
L 188.054992 256.319565 
L 188.055381 256.319138 
L 188.181925 256.319819 
L 188.293189 256.318909 
L 188.293672 256.319219 
L 188.443448 256.319718 
L 188.557268 256.319346 
L 188.443641 256.319932 
L 188.55746 256.3199 
L 189.015576 256.319502 
L 189.015954 256.319323 
L 189.136067 256.319863 
L 189.249542 256.318478 
L 189.249636 256.319072 
L 189.361217 256.319848 
L 189.361778 256.319577 
L 189.361966 256.31984 
L 189.486951 256.318917 
L 189.682928 256.319538 
L 189.795978 256.319019 
L 189.683298 256.319773 
L 189.79607 256.319464 
L 189.915989 256.319898 
L 189.796439 256.319047 
L 189.916541 256.319388 
L 190.037023 256.318567 
L 189.917736 256.319967 
L 190.03748 256.319424 
L 190.154866 256.319802 
L 190.03803 256.319039 
L 190.154958 256.319586 
L 190.268008 256.318565 
L 190.155779 256.319892 
L 190.268372 256.319536 
L 190.446569 256.319806 
L 190.557344 256.318795 
L 190.558876 256.319192 
L 190.67259 256.319825 
L 190.559327 256.318657 
L 190.672859 256.319203 
L 190.801831 256.319817 
L 190.80201 256.31947 
L 190.915051 256.318983 
L 190.802278 256.319852 
L 190.915586 256.319499 
L 191.058949 256.319622 
L 190.915943 256.318585 
L 191.059127 256.31935 
L 191.059571 256.319758 
L 191.178348 256.319348 
L 191.291051 256.319789 
L 191.17932 256.319145 
L 191.291404 256.319584 
L 191.414161 256.318992 
L 191.29158 256.319766 
L 191.414687 256.319368 
L 191.415214 256.318918 
L 191.527883 256.319965 
L 191.641294 256.319116 
L 191.641555 256.31943 
L 191.642776 256.318917 
L 191.757695 256.31948 
L 191.758737 256.319945 
L 191.872294 256.318789 
L 191.983297 256.319814 
L 191.9839 256.319103 
L 192.095295 256.319925 
L 191.985625 256.318704 
L 192.095811 256.319268 
L 192.096068 256.318798 
L 192.247902 256.319692 
L 192.358392 256.318629 
L 192.248672 256.319932 
L 192.359415 256.319256 
L 192.359585 256.319088 
L 192.473347 256.31975 
L 192.473856 256.318794 
L 192.600672 256.319538 
L 192.710216 256.318678 
L 192.600925 256.319872 
L 192.71224 256.319756 
L 192.841148 256.319774 
L 192.712746 256.319345 
L 192.841568 256.319469 
L 192.954067 256.318937 
L 192.84182 256.319813 
L 192.955238 256.319495 
L 193.069927 256.319715 
L 192.955908 256.318852 
L 193.070344 256.31943 
L 193.207799 256.319151 
L 193.070594 256.319644 
L 193.208048 256.319337 
L 193.209128 256.318866 
L 193.320356 256.319836 
L 193.509359 256.319496 
L 193.62202 256.319875 
L 193.509524 256.318949 
L 193.622512 256.319134 
L 193.622675 256.319895 
L 193.850158 256.319205 
L 193.962287 256.319894 
L 193.850402 256.31825 
L 193.962368 256.319703 
L 194.073544 256.318741 
L 193.962692 256.319802 
L 194.073948 256.319691 
L 194.074271 256.319861 
L 194.188446 256.319156 
L 194.30262 256.319671 
L 194.303182 256.319936 
L 194.415433 256.318845 
L 194.525621 256.319923 
L 194.526896 256.319477 
L 200.050548 256.319825 
L 200.160539 256.318364 
L 200.052026 256.319912 
L 200.161812 256.319285 
L 200.272827 256.319944 
L 200.163753 256.318523 
L 200.274362 256.319344 
L 200.399816 256.318838 
L 200.274495 256.319771 
L 200.400148 256.319611 
L 200.400347 256.319344 
L 200.561242 256.319826 
L 200.67195 256.318853 
L 200.672741 256.319022 
L 200.868401 256.319977 
L 200.868467 256.319538 
L 200.979369 256.318619 
L 200.869973 256.319965 
L 200.979826 256.319594 
L 201.099389 256.319963 
L 200.980087 256.318232 
L 201.100105 256.319301 
L 201.222853 256.319085 
L 201.1003 256.319757 
L 201.222983 256.319257 
L 201.338811 256.319863 
L 201.223242 256.318888 
L 201.338875 256.31984 
L 201.449786 256.318658 
L 201.450301 256.319079 
L 201.45088 256.318904 
L 201.561857 256.319904 
L 201.675648 256.318925 
L 201.787194 256.319921 
L 201.675967 256.318787 
L 201.787321 256.319231 
L 203.336353 256.319487 
L 203.448126 256.31989 
L 203.339023 256.31848 
L 203.448428 256.319224 
L 203.561381 256.318413 
L 203.448609 256.319811 
L 203.562105 256.319587 
L 203.562225 256.318555 
L 203.876414 256.319691 
L 203.985743 256.318591 
L 203.877488 256.319937 
L 203.987646 256.319055 
L 203.988478 256.318875 
L 204.101104 256.31989 
L 204.211389 256.31853 
L 204.21257 256.319152 
L 204.375762 256.319849 
L 204.212748 256.318482 
L 204.376055 256.319331 
L 204.487048 256.318792 
L 204.377348 256.31982 
L 204.487867 256.318999 
L 204.488394 256.318738 
L 204.599411 256.319897 
L 204.706557 256.318549 
L 204.599761 256.319945 
L 204.710686 256.319729 
L 204.828824 256.318779 
L 204.710803 256.319924 
L 204.82894 256.319367 
L 204.829114 256.318955 
L 204.971233 256.319833 
L 205.075431 256.318477 
L 204.972099 256.319945 
L 205.082618 256.319389 
L 205.218477 256.319014 
L 205.082791 256.319716 
L 205.218706 256.31969 
L 205.345841 256.319829 
L 205.218992 256.318901 
L 205.345955 256.319616 
L 205.456456 256.318465 
L 205.34664 256.319798 
L 205.458331 256.319644 
L 205.594547 256.319766 
L 205.458615 256.31911 
L 205.594604 256.319198 
L 205.705386 256.318742 
L 205.594887 256.319852 
L 205.706345 256.319434 
L 205.81978 256.319768 
L 205.706627 256.318685 
L 205.819949 256.31962 
L 205.938419 256.318434 
L 205.820061 256.319781 
L 205.939986 256.319368 
L 206.052327 256.31989 
L 205.940546 256.318624 
L 206.052829 256.319437 
L 206.244522 256.318771 
L 206.052941 256.319877 
L 206.244578 256.319092 
L 206.353932 256.319933 
L 206.2448 256.319 
L 206.355921 256.319609 
L 206.466222 256.318736 
L 206.356529 256.319837 
L 206.467709 256.31943 
L 206.580484 256.319834 
L 206.467819 256.318887 
L 206.580703 256.319397 
L 206.691991 256.319009 
L 206.580813 256.319891 
L 206.692483 256.319411 
L 206.808456 256.319771 
L 206.69303 256.31884 
L 206.808565 256.319556 
L 206.919398 256.318755 
L 206.808783 256.319885 
L 206.920212 256.319619 
L 207.190707 256.319075 
L 207.190761 256.3197 
L 207.307646 256.31971 
L 207.191354 256.319169 
L 207.3077 256.319302 
L 207.419297 256.31875 
L 207.307807 256.319734 
L 207.419939 256.319038 
L 207.53051 256.319945 
L 207.424805 256.318408 
L 207.531309 256.319741 
L 207.638632 256.318282 
L 207.643041 256.31964 
L 207.643253 256.318825 
L 207.779784 256.31979 
L 207.8885 256.318617 
L 207.779996 256.319924 
L 207.89103 256.319652 
L 208.020536 256.318867 
L 207.891135 256.319937 
L 208.020641 256.31909 
L 208.132527 256.31991 
L 208.020904 256.318624 
L 208.133103 256.318898 
L 208.24434 256.318876 
L 208.133835 256.319942 
L 208.244497 256.319526 
L 208.245018 256.318778 
L 208.422098 256.319565 
L 208.534155 256.318859 
L 208.422875 256.319887 
L 208.534361 256.319227 
L 208.647627 256.319777 
L 208.53462 256.318472 
L 208.64773 256.319626 
L 208.86745 256.319117 
L 208.867604 256.319444 
L 208.978843 256.319979 
L 208.869496 256.31891 
L 208.979607 256.319319 
L 209.407739 256.319345 
L 209.520845 256.318935 
L 209.408241 256.319884 
L 209.521346 256.319348 
L 209.633907 256.319751 
L 209.521747 256.318778 
L 209.634306 256.319472 
L 209.749112 256.318931 
L 209.634556 256.319744 
L 209.74941 256.319421 
L 209.875509 256.318707 
L 209.749709 256.319857 
L 209.876004 256.319299 
L 209.98803 256.319831 
L 209.876104 256.318829 
L 209.988129 256.319468 
L 210.160502 256.318801 
L 210.16065 256.319653 
L 210.273261 256.319929 
L 210.162615 256.318726 
L 210.273408 256.319431 
L 210.393336 256.318694 
L 210.273506 256.319778 
L 210.393872 256.319325 
L 210.507085 256.319928 
L 210.394311 256.318597 
L 210.507133 256.319782 
L 210.619127 256.318994 
L 210.507279 256.319896 
L 210.619708 256.319509 
L 210.750519 256.319916 
L 210.61995 256.319227 
L 210.750616 256.319811 
L 210.861337 256.318734 
L 210.751774 256.319984 
L 210.861818 256.319087 
L 210.971202 256.318459 
L 210.862059 256.319762 
L 210.974939 256.319623 
L 211.126409 256.319741 
L 210.975226 256.319116 
L 211.126456 256.319602 
L 211.236137 256.318551 
L 211.128841 256.319927 
L 211.23761 256.319686 
L 211.347531 256.318627 
L 211.237896 256.319863 
L 211.349189 256.319073 
L 211.460477 256.319802 
L 211.350041 256.318592 
L 211.460524 256.31942 
L 211.587418 256.31887 
L 211.460855 256.319881 
L 211.587465 256.319531 
L 211.701498 256.319826 
L 211.588264 256.318748 
L 211.701544 256.319359 
L 212.072984 256.319955 
L 212.07303 256.319734 
L 212.182088 256.318512 
L 212.073308 256.319858 
L 212.184304 256.319564 
L 212.296161 256.3198 
L 212.18555 256.318752 
L 212.296391 256.319611 
L 212.408366 256.318403 
L 212.296805 256.319972 
L 212.409236 256.319162 
L 212.521415 256.319937 
L 212.409649 256.318618 
L 212.521506 256.31932 
L 212.633934 256.318574 
L 212.521643 256.319865 
L 212.634753 256.31937 
L 212.746606 256.319907 
L 212.635572 256.318848 
L 212.747015 256.319293 
L 212.858797 256.319993 
L 212.748375 256.318722 
L 212.859791 256.319494 
L 214.00117 256.31943 
L 214.110443 256.319979 
L 214.001562 256.318768 
L 214.112747 256.319285 
L 214.112878 256.319904 
L 214.225067 256.318546 
L 214.335918 256.3199 
L 214.336264 256.319583 
L 214.446262 256.31871 
L 214.336523 256.319863 
L 214.448069 256.319345 
L 214.560175 256.319955 
L 214.450005 256.318401 
L 214.56026 256.319714 
L 214.671209 256.318676 
L 214.560346 256.31984 
L 214.671636 256.318951 
L 214.782757 256.319888 
L 214.676892 256.318435 
L 214.783183 256.319779 
L 214.894601 256.318821 
L 214.783822 256.319966 
L 214.895492 256.319298 
L 215.006439 256.319933 
L 214.895577 256.318903 
L 215.007073 256.319057 
L 215.007412 256.319681 
L 215.167668 256.318726 
L 215.27756 256.319989 
L 215.27886 256.319495 
L 215.389922 256.318544 
L 215.279196 256.319865 
L 215.391092 256.319553 
L 215.514136 256.319862 
L 215.391259 256.318901 
L 215.514344 256.319298 
L 215.624518 256.318546 
L 215.516467 256.319941 
L 215.625928 256.319683 
L 215.741676 256.319885 
L 215.626011 256.319328 
L 215.742338 256.319573 
L 215.848977 256.318366 
L 215.742751 256.319773 
L 215.854004 256.319095 
L 215.96471 256.319899 
L 215.854745 256.318259 
L 215.965408 256.319336 
L 216.080071 256.318794 
L 215.965614 256.319857 
L 216.080439 256.319444 
L 216.081462 256.318663 
L 216.192576 256.31994 
L 216.299855 256.318538 
L 216.303756 256.31937 
L 216.414878 256.319962 
L 216.305096 256.318742 
L 216.415728 256.31918 
L 216.531066 256.319716 
L 216.416417 256.318729 
L 216.531107 256.31928 
L 216.689378 256.319368 
L 216.531187 256.31973 
L 216.689418 256.319732 
L 216.82346 256.319849 
L 216.689498 256.319378 
L 216.82354 256.319571 
L 216.932772 256.318463 
L 216.82374 256.319925 
L 216.934764 256.319564 
L 217.047831 256.319808 
L 216.935083 256.31877 
L 217.04795 256.319255 
L 217.20498 256.319843 
L 217.048069 256.319015 
L 217.205059 256.319649 
L 217.313484 256.318615 
L 217.206126 256.319942 
L 217.31628 256.319566 
L 217.423156 256.318564 
L 217.316437 256.319932 
L 217.427551 256.319016 
L 217.53887 256.319941 
L 217.428335 256.318781 
L 217.538948 256.319716 
L 217.646338 256.31843 
L 217.539104 256.31981 
L 217.650469 256.319297 
L 217.766693 256.318461 
L 217.650547 256.319782 
L 217.766849 256.319371 
L 217.767431 256.318803 
L 217.878361 256.319901 
L 217.991457 256.318661 
L 218.103351 256.319782 
L 218.103466 256.319714 
L 218.214131 256.318699 
L 218.104542 256.319906 
L 218.214935 256.319372 
L 218.326097 256.319888 
L 218.215509 256.318641 
L 218.326288 256.31962 
L 218.436688 256.318643 
L 218.3277 256.319962 
L 218.437525 256.319572 
L 218.571718 256.319909 
L 218.437905 256.319126 
L 218.571869 256.319549 
L 218.682341 256.318415 
L 218.572513 256.319892 
L 218.683133 256.319443 
L 218.798078 256.318722 
L 218.683586 256.319977 
L 218.798153 256.319671 
L 218.910703 256.319919 
L 218.798755 256.318811 
L 218.910891 256.31942 
L 219.817567 256.319633 
L 219.924086 256.318382 
L 219.817823 256.319877 
L 219.928734 256.319516 
L 220.040678 256.31988 
L 219.932511 256.318264 
L 220.040714 256.319438 
L 220.164892 256.318668 
L 220.041004 256.319848 
L 220.16554 256.319426 
L 220.276129 256.319958 
L 220.189936 256.314665 
L 220.276884 256.319657 
L 220.388597 256.318285 
L 220.277171 256.31991 
L 220.38874 256.31933 
L 220.499532 256.3199 
L 220.39053 256.318637 
L 220.500139 256.319541 
L 220.612542 256.318704 
L 220.500567 256.319835 
L 220.612862 256.319356 
L 220.7242 256.319934 
L 220.61375 256.318772 
L 220.724413 256.319755 
L 220.725086 256.319993 
L 220.835722 256.318667 
L 220.942848 256.319964 
L 220.836322 256.318531 
L 220.946895 256.31938 
L 221.05709 256.318414 
L 220.947317 256.31985 
L 221.058247 256.319439 
L 221.171979 256.319792 
L 221.059685 256.318761 
L 221.172153 256.319331 
L 221.172223 256.31982 
L 221.287191 256.318919 
L 221.397761 256.319928 
L 221.287435 256.318812 
L 221.398628 256.319545 
L 221.401994 256.318184 
L 221.510409 256.319939 
L 221.620598 256.318484 
L 221.621563 256.31936 
L 221.621632 256.319077 
L 221.736045 256.319849 
L 221.846461 256.318494 
L 221.84848 256.318937 
L 221.959843 256.319935 
L 221.960355 256.319503 
L 222.085026 256.318737 
L 221.960423 256.319692 
L 222.085196 256.319027 
L 222.091038 256.318213 
L 222.196492 256.319805 
L 222.307711 256.31864 
L 222.197305 256.319898 
L 222.308149 256.319428 
L 222.429001 256.318954 
L 222.308217 256.319847 
L 222.429069 256.319459 
L 222.541065 256.319947 
L 222.431052 256.318577 
L 222.541299 256.319604 
L 222.654543 256.318922 
L 222.541634 256.319967 
L 222.655144 256.319236 
L 222.766892 256.319974 
L 222.657413 256.31851 
L 222.766959 256.319489 
L 222.878488 256.318661 
L 222.767524 256.319925 
L 222.878687 256.319767 
L 222.992474 256.319747 
L 222.878753 256.318773 
L 222.992507 256.319584 
L 223.10494 256.318754 
L 222.992738 256.319833 
L 223.10573 256.319053 
L 223.21577 256.319953 
L 223.111851 256.318102 
L 223.216983 256.319287 
L 223.325207 256.318448 
L 223.217114 256.319767 
L 223.328803 256.319137 
L 223.439129 256.319976 
L 223.329489 256.318416 
L 223.440009 256.319865 
L 223.550801 256.318645 
L 223.55119 256.319375 
L 223.662346 256.319878 
L 223.552359 256.318626 
L 223.662735 256.319543 
L 223.769059 256.318122 
L 223.663123 256.319838 
L 223.774089 256.31946 
L 223.884771 256.319885 
L 223.774766 256.318848 
L 223.885574 256.319752 
L 223.996709 256.318695 
L 223.885671 256.319875 
L 223.997221 256.319639 
L 224.11011 256.319772 
L 223.997477 256.319002 
L 224.110174 256.319587 
L 224.213608 256.31835 
L 224.111163 256.319976 
L 224.221367 256.319573 
L 224.221653 256.319856 
L 224.336107 256.319077 
L 224.447252 256.319865 
L 224.336677 256.31795 
L 224.447473 256.319722 
L 224.558552 256.318501 
L 224.447726 256.319928 
L 224.558929 256.319026 
L 224.669155 256.319959 
L 224.559559 256.318651 
L 224.670284 256.319594 
L 224.785225 256.318997 
L 224.670378 256.319813 
L 224.785257 256.319031 
L 224.895804 256.319972 
L 224.786881 256.318598 
L 224.896489 256.319764 
L 225.007496 256.318567 
L 224.896552 256.319928 
L 225.007775 256.319089 
L 225.118679 256.319934 
L 225.011933 256.318312 
L 225.11905 256.319475 
L 225.273031 256.319921 
L 225.119112 256.31926 
L 225.273154 256.319631 
L 225.37944 256.318501 
L 225.273492 256.319937 
L 225.38444 256.319663 
L 225.384624 256.319881 
L 225.51368 256.319102 
L 225.624386 256.319905 
L 225.517101 256.318448 
L 225.624903 256.319532 
L 225.731801 256.318439 
L 225.625117 256.319852 
L 225.736201 256.319401 
L 232.444597 256.31959 
L 232.548363 256.318279 
L 232.44615 256.319959 
L 232.555709 256.319545 
L 232.555807 256.319911 
L 232.667371 256.318735 
L 232.777306 256.319967 
L 232.670994 256.318331 
L 232.778502 256.319484 
L 232.889836 256.318646 
L 232.7786 256.319885 
L 232.890298 256.319151 
L 233.000109 256.319968 
L 232.89093 256.318532 
L 233.001562 256.319615 
L 233.112228 256.318278 
L 233.001659 256.319939 
L 233.113315 256.319359 
L 233.225981 256.319841 
L 233.113363 256.318954 
L 233.226005 256.319787 
L 233.337081 256.318731 
L 233.227593 256.319979 
L 233.337177 256.319821 
L 233.46099 256.318462 
L 233.461587 256.319439 
L 233.572262 256.319895 
L 233.462327 256.31885 
L 233.573238 256.319574 
L 233.682678 256.31807 
L 233.573286 256.319863 
L 233.684623 256.319032 
L 233.695321 256.318313 
L 233.795768 256.319953 
L 233.897718 256.317786 
L 233.906932 256.319366 
L 234.017644 256.319828 
L 233.908463 256.318258 
L 234.018184 256.319739 
L 234.131255 256.319081 
L 234.018513 256.319935 
L 234.131418 256.319271 
L 234.242298 256.319981 
L 234.133852 256.318576 
L 234.242648 256.319898 
L 234.351916 256.31849 
L 234.354124 256.319631 
L 234.465309 256.319927 
L 234.354333 256.318553 
L 234.465633 256.319526 
L 234.576805 256.318555 
L 234.466999 256.319914 
L 234.576851 256.319152 
L 234.687135 256.319941 
L 234.577843 256.318538 
L 234.688032 256.319717 
L 234.797961 256.318553 
L 234.688492 256.319915 
L 234.799314 256.319561 
L 234.910487 256.319881 
L 234.801056 256.31837 
L 234.910967 256.319072 
L 235.020119 256.318565 
L 234.911058 256.319907 
L 235.022213 256.3197 
L 235.135845 256.318744 
L 235.022281 256.319795 
L 235.135913 256.31935 
L 235.24666 256.319878 
L 235.135958 256.318538 
L 235.247292 256.31939 
L 235.353581 256.318354 
L 235.24736 256.319929 
L 235.358447 256.319645 
L 235.470792 256.318379 
L 235.35874 256.319943 
L 235.471354 256.31949 
L 235.605804 256.318767 
L 235.471578 256.319769 
L 235.605938 256.318939 
L 235.716291 256.31996 
L 235.612889 256.318194 
L 235.717071 256.319558 
L 235.811545 256.318153 
L 235.718318 256.319943 
L 235.8282 256.319297 
L 235.943241 256.318648 
L 235.828467 256.319968 
L 235.943794 256.319145 
L 236.054346 256.319911 
L 235.945608 256.318605 
L 236.054963 256.319797 
L 236.161906 256.318514 
L 236.056065 256.319974 
L 236.166103 256.319106 
L 236.289252 256.319845 
L 236.166147 256.318381 
L 236.289405 256.319536 
L 236.400157 256.318673 
L 236.289624 256.319969 
L 236.400572 256.319343 
L 236.515465 256.319879 
L 236.401095 256.318822 
L 236.515769 256.319413 
L 236.515943 256.319943 
L 236.630363 256.318559 
L 236.741465 256.319939 
L 236.712726 256.316362 
L 236.741486 256.319527 
L 236.802894 256.319777 
L 236.803347 256.299708 
L 236.803368 34.56 
L 236.859498 256.319995 
L 236.914437 256.319461 
L 237.026921 256.318836 
L 236.914823 256.319881 
L 237.027114 256.319495 
L 237.140913 256.319878 
L 237.027627 256.318482 
L 237.141105 256.319571 
L 237.251339 256.31867 
L 237.141211 256.31994 
L 237.253038 256.318943 
L 237.363866 256.319965 
L 237.255587 256.318443 
L 237.364183 256.319563 
L 237.472774 256.318567 
L 237.364225 256.319895 
L 237.475706 256.31905 
L 237.585816 256.319955 
L 237.477689 256.318664 
L 237.586951 256.319589 
L 237.694629 256.318273 
L 237.589054 256.319974 
L 237.698129 256.319408 
L 238.074605 256.319122 
L 238.074625 256.319503 
L 238.185523 256.319943 
L 238.079513 256.318217 
L 238.185853 256.319583 
L 238.284953 256.318276 
L 238.185956 256.319878 
L 238.297049 256.319346 
L 238.408786 256.319848 
L 238.297707 256.318795 
L 238.40895 256.319424 
L 238.518667 256.318231 
L 238.409135 256.319921 
L 238.520874 256.319313 
L 238.633184 256.319969 
L 238.521384 256.318712 
L 238.634059 256.319774 
L 238.742103 256.318289 
L 238.634161 256.319929 
L 238.74541 256.319046 
L 238.861957 256.31867 
L 238.745592 256.319971 
L 238.862219 256.319263 
L 238.97172 256.319976 
L 238.862846 256.318492 
L 238.973432 256.31967 
L 239.084625 256.319953 
L 238.989521 256.315529 
L 239.085147 256.319758 
L 239.194916 256.31845 
L 239.085889 256.319864 
L 239.196616 256.319078 
L 239.307723 256.319911 
L 239.198517 256.318371 
L 239.307902 256.319631 
L 239.417614 256.318529 
L 239.308759 256.319913 
L 239.419044 256.319626 
L 239.530221 256.319844 
L 239.424368 256.318276 
L 239.53038 256.319512 
L 239.639044 256.318581 
L 239.531112 256.319889 
L 239.64153 256.319639 
L 239.752653 256.319921 
L 239.642437 256.318553 
L 239.752889 256.319162 
L 239.859163 256.31851 
L 239.756841 256.319992 
L 239.864003 256.319694 
L 239.985767 256.31885 
L 239.864199 256.319924 
L 239.985904 256.319226 
L 240.095248 256.319948 
L 239.998043 256.318227 
L 240.097057 256.319375 
L 240.273213 256.318721 
L 240.097135 256.319806 
L 240.273232 256.319515 
L 240.384078 256.319985 
L 240.277817 256.318564 
L 240.384695 256.319695 
L 240.496409 256.318324 
L 240.384849 256.319854 
L 240.496831 256.319277 
L 240.607833 256.319922 
L 240.504727 256.317746 
L 240.607986 256.318833 
L 240.720458 256.318406 
L 240.608542 256.319961 
L 240.720611 256.319516 
L 240.831628 256.319976 
L 240.721413 256.318521 
L 240.831951 256.319738 
L 240.94217 256.318587 
L 240.833016 256.319947 
L 240.943269 256.319338 
L 241.053751 256.319933 
L 240.944557 256.318285 
L 241.054431 256.31924 
L 241.165419 256.319927 
L 241.055413 256.31875 
L 241.16587 256.319728 
L 241.273326 256.318344 
L 241.166115 256.319926 
L 241.276983 256.319733 
L 241.389267 256.319983 
L 241.278334 256.318639 
L 241.390108 256.319787 
L 241.499727 256.318435 
L 241.391042 256.319967 
L 241.501236 256.319556 
L 241.612652 256.319848 
L 241.501534 256.31863 
L 241.612744 256.319701 
L 241.724702 256.318655 
L 241.61306 256.319932 
L 241.724997 256.318727 
L 241.83524 256.319941 
L 241.784209 256.310743 
L 241.836125 256.319197 
L 241.947293 256.319879 
L 241.83924 256.318318 
L 241.947551 256.319343 
L 242.063134 256.318236 
L 241.947642 256.319874 
L 242.063353 256.319183 
L 242.174474 256.319986 
L 242.064104 256.318597 
L 242.174584 256.319756 
L 242.284669 256.318592 
L 242.175167 256.319962 
L 242.28625 256.319448 
L 242.397695 256.319944 
L 242.287432 256.318303 
L 242.397858 256.319608 
L 242.50316 256.318221 
L 242.397949 256.319944 
L 242.509028 256.319055 
L 242.620105 256.319977 
L 242.511357 256.318576 
L 242.620357 256.319453 
L 242.728165 256.318497 
L 242.622552 256.319947 
L 242.7315 256.319615 
L 242.842102 256.319954 
L 242.734441 256.318258 
L 242.842709 256.319624 
L 242.953199 256.318492 
L 242.842745 256.319909 
L 242.95384 256.319318 
L 243.064873 256.319914 
L 242.953875 256.318541 
L 243.06553 256.31914 
L 243.065778 256.318122 
L 243.179665 256.319901 
L 243.287159 256.318361 
L 243.18039 256.31995 
L 243.290772 256.31969 
L 243.400989 256.318704 
L 243.291706 256.319963 
L 243.402588 256.319457 
L 243.513457 256.319906 
L 243.40833 256.318237 
L 243.513772 256.319497 
L 243.614825 256.318359 
L 243.515505 256.319977 
L 243.62489 256.319339 
L 243.735853 256.318525 
L 243.62496 256.319938 
L 243.737035 256.319242 
L 243.848029 256.319859 
L 243.737921 256.318386 
L 243.848202 256.319426 
L 243.964633 256.318554 
L 243.848306 256.319927 
L 243.965203 256.319269 
L 244.073835 256.31996 
L 243.96591 256.318356 
L 244.076363 256.319493 
L 247.189402 256.319615 
L 247.29583 256.318206 
L 247.19062 256.319975 
L 247.300516 256.319394 
L 247.411295 256.319959 
L 247.300734 256.318629 
L 247.412179 256.319429 
L 247.522345 256.318495 
L 247.413622 256.319991 
L 247.523551 256.319549 
L 247.63471 256.319982 
L 247.525916 256.318305 
L 247.634849 256.319409 
L 247.744689 256.318438 
L 247.635696 256.319976 
L 247.746332 256.319726 
L 247.746363 256.319884 
L 247.894315 256.318849 
L 248.005289 256.319961 
L 247.900152 256.318217 
L 248.005441 256.319345 
L 248.116596 256.319915 
L 248.013101 256.318181 
L 248.116657 256.319839 
L 248.226327 256.318395 
L 248.117689 256.31998 
L 248.227794 256.319059 
L 248.339876 256.319972 
L 248.230017 256.318506 
L 248.340133 256.319557 
L 248.44711 256.318442 
L 248.342107 256.319979 
L 248.451286 256.319368 
L 248.562567 256.319887 
L 248.453269 256.318477 
L 248.562657 256.319567 
L 248.674004 256.318704 
L 248.563451 256.319889 
L 248.674034 256.319674 
L 248.78641 256.318864 
L 248.674705 256.319936 
L 248.78644 256.319406 
L 248.899479 256.31992 
L 248.787079 256.318651 
L 248.899656 256.319445 
L 249.007045 256.318434 
L 248.902027 256.31999 
L 249.01078 256.319743 
L 249.128349 256.318364 
L 249.010898 256.319887 
L 249.129363 256.319022 
L 249.239393 256.319946 
L 249.129452 256.318488 
L 249.240493 256.319386 
L 249.387859 256.318423 
L 249.240669 256.319895 
L 249.387932 256.319171 
L 249.499006 256.319978 
L 249.394264 256.318358 
L 249.499064 256.3194 
L 249.60238 256.317985 
L 249.500852 256.319967 
L 249.610235 256.319303 
L 249.724795 256.319858 
L 249.610279 256.318841 
L 249.72491 256.319411 
L 249.835798 256.318308 
L 249.724982 256.319984 
L 249.83633 256.319367 
L 249.946249 256.319945 
L 249.839122 256.31833 
L 249.947482 256.31941 
L 250.054994 256.318498 
L 249.947956 256.319984 
L 250.05861 256.319272 
L 250.179797 256.318681 
L 250.058682 256.319805 
L 250.179839 256.319402 
L 250.290598 256.319906 
L 250.18216 256.318571 
L 250.290981 256.31921 
L 250.291208 256.318589 
L 250.551126 256.319704 
L 250.662151 256.31847 
L 250.55197 256.319933 
L 250.662249 256.319685 
L 250.773354 256.318633 
L 250.662628 256.319936 
L 250.773578 256.319317 
L 250.883982 256.319938 
L 250.777688 256.318295 
L 250.884706 256.319516 
L 250.994357 256.318372 
L 250.886336 256.319997 
L 250.995884 256.319273 
L 251.106777 256.319896 
L 250.997078 256.3185 
L 251.107068 256.319767 
L 251.217291 256.318459 
L 251.10769 256.319986 
L 251.218532 256.319203 
L 251.329393 256.319974 
L 251.22362 256.318162 
L 251.329668 256.319963 
L 251.438766 256.318329 
L 251.440862 256.319538 
L 251.551933 256.319938 
L 251.442423 256.31852 
L 251.552547 256.319234 
L 252.059196 256.319085 
L 251.552629 256.319795 
L 252.059263 256.319712 
L 252.16988 256.319967 
L 252.059935 256.318575 
L 252.170549 256.319916 
L 252.281626 256.31865 
L 252.281853 256.319459 
L 252.393134 256.319982 
L 252.283094 256.318617 
L 252.3932 256.319473 
L 252.509226 256.318565 
L 252.39324 256.319895 
L 252.509677 256.319316 
L 252.620573 256.319973 
L 252.514817 256.318274 
L 252.620916 256.319589 
L 252.729077 256.318405 
L 252.622223 256.319981 
L 252.732051 256.319496 
L 252.842043 256.319964 
L 252.733945 256.318312 
L 252.84325 256.319592 
L 252.950984 256.318474 
L 252.843394 256.319941 
L 252.954381 256.319689 
L 253.064533 256.319975 
L 252.956838 256.318444 
L 253.065666 256.319338 
L 253.172259 256.318279 
L 253.066603 256.319971 
L 253.176802 256.319446 
L 253.287078 256.31852 
L 253.176893 256.31992 
L 253.288048 256.318897 
L 253.398153 256.319954 
L 253.308915 256.31027 
L 253.399184 256.319219 
L 253.5099 256.319927 
L 253.399287 256.318467 
L 253.510375 256.319501 
L 253.621838 256.319961 
L 253.512803 256.318271 
L 253.621889 256.319655 
L 253.730621 256.318369 
L 253.624628 256.319987 
L 253.733007 256.319978 
L 253.837628 256.318456 
L 253.84415 256.318906 
L 253.955255 256.319956 
L 253.848777 256.31795 
L 253.95528 256.31934 
L 254.077819 256.31995 
L 253.955584 256.318302 
L 254.078047 256.319407 
L 254.193872 256.31873 
L 254.078084 256.319857 
L 254.194149 256.319572 
L 254.304723 256.319915 
L 254.197192 256.318421 
L 254.30535 256.319202 
L 254.415245 256.318306 
L 254.305425 256.319989 
L 254.416494 256.319163 
L 254.526099 256.319976 
L 254.416981 256.31813 
L 254.52768 256.319796 
L 254.632232 256.318324 
L 254.528937 256.319987 
L 254.638807 256.319393 
L 254.747823 256.318438 
L 254.638881 256.319959 
L 254.749937 256.319442 
L 254.86943 256.318378 
L 254.750097 256.319962 
L 254.870403 256.319164 
L 254.980986 256.319957 
L 254.882297 256.318237 
L 254.981538 256.319307 
L 255.092268 256.319942 
L 254.982962 256.318605 
L 255.09283 256.319296 
L 255.197524 256.31842 
L 255.094604 256.319972 
L 255.20396 256.319536 
L 255.314526 256.318227 
L 255.204326 256.319912 
L 255.316312 256.319269 
L 255.425926 256.319956 
L 255.331952 256.317974 
L 255.427439 256.319838 
L 255.531177 256.318229 
L 255.42802 256.319957 
L 255.538584 256.319653 
L 255.650995 256.319889 
L 255.543144 256.317964 
L 255.651031 256.319453 
L 255.751585 256.317976 
L 255.651271 256.319992 
L 255.762141 256.319331 
L 255.872095 256.319963 
L 255.774274 256.31815 
L 255.8733 256.31956 
L 255.985316 256.318796 
L 255.873587 256.319931 
L 255.985566 256.31937 
L 256.094964 256.319968 
L 255.988909 256.318345 
L 256.096696 256.319773 
L 256.200791 256.318142 
L 256.09762 256.319968 
L 256.207834 256.319277 
L 256.318498 256.319965 
L 256.209288 256.318447 
L 256.319075 256.319547 
L 256.429769 256.31858 
L 256.319299 256.31991 
L 256.430251 256.319394 
L 256.541291 256.319942 
L 256.430556 256.318528 
L 256.541525 256.319795 
L 256.651811 256.318446 
L 256.542671 256.319979 
L 256.652673 256.319668 
L 256.763499 256.319977 
L 256.656775 256.318057 
L 256.763859 256.319728 
L 256.858918 256.317744 
L 256.764881 256.319951 
L 256.874987 256.31979 
L 256.981028 256.31834 
L 256.875508 256.319965 
L 256.986161 256.319623 
L 257.096276 256.319939 
L 256.991467 256.318299 
L 257.097334 256.319635 
L 257.206899 256.318173 
L 257.097874 256.319937 
L 257.208468 256.3193 
L 257.319382 256.319924 
L 257.215959 256.317988 
L 257.31961 256.318954 
L 257.434808 256.319923 
L 257.320524 256.318672 
L 257.434854 256.319606 
L 257.542307 256.318212 
L 257.437049 256.319942 
L 257.545969 256.319686 
L 257.656489 256.31857 
L 257.546173 256.319932 
L 257.657529 256.319322 
L 257.768738 256.31986 
L 257.658184 256.318544 
L 257.768975 256.319439 
L 257.881002 256.318482 
L 257.769515 256.31994 
L 257.881305 256.319514 
L 257.992251 256.319933 
L 257.883459 256.318371 
L 257.992464 256.319448 
L 258.091295 256.31781 
L 257.993537 256.319961 
L 258.10362 256.319518 
L 258.215173 256.319956 
L 258.104679 256.318618 
L 258.215328 256.319495 
L 258.325269 256.318439 
L 258.216306 256.31996 
L 258.326497 256.319797 
L 258.438243 256.319968 
L 258.327703 256.318137 
L 258.438409 256.319344 
L 258.548726 256.318498 
L 258.438718 256.319989 
L 258.549539 256.319459 
L 258.660288 256.319969 
L 258.551539 256.318228 
L 258.660671 256.319869 
L 258.770397 256.318277 
L 258.661493 256.319968 
L 258.771805 256.319296 
L 258.772896 256.318383 
L 258.883058 256.319934 
L 258.987045 256.318333 
L 258.88482 256.31998 
L 258.994179 256.319846 
L 259.093477 256.317826 
L 258.99614 256.319959 
L 259.105394 256.319108 
L 259.198944 256.319976 
L 259.2 255.84355 
L 259.200011 256.319264 
" clip-path="url(#pb9198870a9)" style="fill: none; stroke: #006ba4; stroke-width: 2; stroke-linecap: square"/>
   </g>
   <g id="line2d_39">
    <path d="M 35.989228 256.319914 
L 62.587809 256.319923 
L 91.977177 256.319887 
L 93.05798 256.319851 
L 96.561845 256.319915 
L 99.989829 256.31975 
L 103.152176 256.306752 
L 103.16161 256.314226 
L 103.188549 255.875897 
L 103.189895 240.137836 
L 103.297421 256.315892 
L 103.298763 256.313192 
L 103.562019 256.319321 
L 103.907529 256.319144 
L 125.585854 256.299991 
L 125.586527 256.049279 
L 125.650413 256.319948 
L 125.696736 256.319977 
L 126.125248 256.319954 
L 127.468648 256.319959 
L 132.219048 256.319947 
L 134.062359 256.319983 
L 134.625999 256.319932 
L 136.679357 256.319938 
L 137.677152 256.319849 
L 138.298087 256.319928 
L 138.687268 256.29905 
L 138.687716 255.910147 
L 138.747348 256.319971 
L 138.797926 256.319909 
L 139.745468 256.319953 
L 140.814678 256.319894 
L 141.495707 256.31995 
L 142.984754 256.319938 
L 144.606463 256.319934 
L 147.171315 256.319923 
L 147.982822 256.313999 
L 147.983158 256.295482 
L 147.987197 256.319843 
L 148.093703 256.319947 
L 149.383179 256.319953 
L 151.460236 256.319947 
L 153.630993 256.31992 
L 154.260394 256.319917 
L 155.192994 256.31422 
L 155.193263 256.20483 
L 155.20484 256.319987 
L 155.30401 256.319923 
L 155.869525 256.319945 
L 156.435679 256.31995 
L 158.130837 256.319953 
L 161.622628 256.319884 
L 161.9347 256.31998 
L 162.186153 256.319941 
L 163.288531 256.319984 
L 163.868468 256.319975 
L 166.133586 256.319974 
L 167.13268 256.319961 
L 167.481551 256.319933 
L 168.504333 256.319979 
L 169.10439 256.31993 
L 169.680439 256.319962 
L 169.970112 256.319912 
L 170.379285 256.318747 
L 170.379622 256.316909 
L 170.37979 256.308856 
L 170.385007 256.31996 
L 170.49067 256.319925 
L 170.981343 256.319953 
L 172.566415 256.319917 
L 172.908874 256.319961 
L 235.213935 256.319916 
L 235.213957 256.312616 
L 235.214342 256.31999 
L 235.325024 256.319936 
L 235.458893 256.319991 
L 235.458938 256.319947 
L 235.831175 256.319953 
L 235.831242 256.319979 
L 235.947997 256.319962 
L 236.092419 256.31997 
L 236.229118 256.319863 
L 236.229205 256.319938 
L 236.282182 256.315378 
L 236.282204 256.032333 
L 236.303628 256.319998 
L 236.393286 256.319923 
L 236.546377 256.319938 
L 236.393329 256.319971 
L 236.546399 256.319974 
L 236.711797 256.319991 
L 236.546464 256.319901 
L 236.711819 256.319963 
L 236.906514 256.319949 
L 237.039155 256.319986 
L 237.039177 256.31997 
L 237.15728 256.319904 
L 237.157344 256.31998 
L 237.316218 256.3124 
L 237.316239 256.31549 
L 237.31626 256.030112 
L 237.363569 256.32 
L 237.427336 256.319973 
L 237.606057 256.319947 
L 237.75051 256.319962 
L 237.890716 256.319914 
L 237.890758 256.319968 
L 242.945398 256.319913 
L 243.059141 256.319964 
L 242.945541 256.319854 
L 243.059176 256.31995 
L 243.059212 256.31988 
L 243.202362 256.319969 
L 243.335731 256.319818 
L 243.335749 256.319871 
L 243.45153 256.319959 
L 243.451565 256.319929 
L 243.572873 256.319879 
L 243.4516 256.319971 
L 243.572995 256.319943 
L 243.57303 256.319913 
L 243.703037 256.319976 
L 243.834117 256.319872 
L 243.834134 256.319919 
L 243.952688 256.31997 
L 243.834221 256.319883 
L 243.952757 256.319941 
L 244.099505 256.31996 
L 244.208596 256.319827 
L 244.099643 256.319979 
L 244.210634 256.319987 
L 244.461321 256.319826 
L 244.573043 256.319961 
L 244.573077 256.319907 
L 244.711578 256.319995 
L 244.824221 256.319863 
L 244.82449 256.319936 
L 244.981911 256.319949 
L 244.981961 256.319867 
L 245.137753 256.319951 
L 245.317618 256.31993 
L 245.440029 256.319985 
L 245.566496 256.319906 
L 245.566512 256.319942 
L 245.795456 256.319969 
L 245.909899 256.319888 
L 245.909948 256.31992 
L 246.02742 256.319988 
L 246.027436 256.319959 
L 246.161498 256.319902 
L 246.274317 256.319971 
L 246.274398 256.319913 
L 246.44122 256.319898 
L 246.274446 256.319983 
L 246.441236 256.319948 
L 246.605182 256.319966 
L 246.833273 256.319966 
L 246.833289 256.319937 
L 246.833336 256.319973 
L 246.94601 256.319893 
L 247.060283 256.319977 
L 247.06033 256.319925 
L 247.190011 256.319876 
L 247.060362 256.319972 
L 247.190027 256.319907 
L 247.311986 256.319976 
L 247.427967 256.319886 
L 247.427983 256.319954 
L 247.620256 256.319865 
L 247.732235 256.319985 
L 247.851006 256.319895 
L 247.851067 256.319876 
L 247.965575 256.319987 
L 248.093108 256.319891 
L 248.093153 256.319947 
L 248.323865 256.319949 
L 248.438921 256.319909 
L 248.323925 256.319998 
L 248.438981 256.319985 
L 248.594542 256.319934 
L 248.708879 256.319971 
L 248.708953 256.31991 
L 248.877946 256.319932 
L 249.105128 256.319931 
L 249.230274 256.319975 
L 249.230288 256.319944 
L 249.230318 256.319984 
L 249.374387 256.319876 
L 249.487355 256.319993 
L 249.604452 256.319839 
L 249.604568 256.319884 
L 249.718613 256.319974 
L 249.604597 256.319863 
L 249.718657 256.319925 
L 249.860685 256.319894 
L 249.860699 256.31991 
L 249.860743 256.319831 
L 249.976783 256.319965 
L 250.088582 256.319874 
L 250.088696 256.319931 
L 250.088782 256.319848 
L 250.203396 256.319965 
L 251.060725 256.319898 
L 251.173703 256.319986 
L 251.06085 256.31987 
L 251.173744 256.319953 
L 251.402359 256.319922 
L 251.51609 256.319984 
L 251.516131 256.319933 
L 251.630961 256.319991 
L 251.516159 256.319914 
L 251.631165 256.319663 
L 251.741965 256.319862 
L 251.631669 256.319997 
L 251.742291 256.319879 
L 251.85747 256.31999 
L 251.857524 256.319928 
L 253.203045 256.319982 
L 253.308915 256.31845 
L 253.315971 256.319972 
L 253.31601 256.319918 
L 253.442705 256.319982 
L 253.561224 256.319902 
L 253.674071 256.319984 
L 253.674212 256.319949 
L 253.787404 256.319889 
L 253.674327 256.319997 
L 253.787506 256.319973 
L 253.907434 256.319894 
L 253.907522 256.319935 
L 254.075585 256.319972 
L 254.210229 256.319948 
L 254.210254 256.319978 
L 254.210279 256.319899 
L 254.389556 256.319968 
L 254.54286 256.319921 
L 254.542873 256.31995 
L 254.714701 256.319963 
L 254.827272 256.319849 
L 254.714738 256.319976 
L 254.827494 256.319965 
L 254.827519 256.319926 
L 254.949184 256.319966 
L 255.061407 256.319909 
L 254.949282 256.319986 
L 255.06142 256.319974 
L 255.181806 256.31991 
L 255.181818 256.319927 
L 255.494525 256.319994 
L 255.543349 256.303599 
L 255.606655 256.319969 
L 255.751849 256.31997 
L 255.606703 256.319895 
L 255.751861 256.319957 
L 255.878302 256.319879 
L 255.751897 256.319988 
L 255.878374 256.319945 
L 255.878445 256.31991 
L 255.994594 256.319996 
L 256.106357 256.319902 
L 256.106487 256.319954 
L 256.106523 256.319971 
L 256.221183 256.31987 
L 256.223616 256.319508 
L 256.332955 256.319979 
L 256.447484 256.319906 
L 256.447531 256.319958 
L 256.44759 256.319897 
L 256.577616 256.31996 
L 256.70918 256.319893 
L 256.709192 256.319919 
L 256.822514 256.319995 
L 256.70925 256.319875 
L 256.822607 256.31995 
L 256.955569 256.31994 
L 257.074152 256.319982 
L 256.955685 256.319882 
L 257.074163 256.319961 
L 257.186123 256.31989 
L 257.074209 256.319997 
L 257.186318 256.319932 
L 257.186352 256.319914 
L 257.310351 256.319977 
L 257.438414 256.319915 
L 257.438448 256.319955 
L 257.55379 256.319989 
L 257.438573 256.319891 
L 257.553858 256.319954 
L 257.89841 256.319962 
L 258.02209 256.319965 
L 257.898466 256.319901 
L 258.022124 256.319938 
L 258.022146 256.319975 
L 258.153599 256.319903 
L 258.267629 256.319991 
L 258.267674 256.319937 
L 259.2 256.318109 
L 259.200011 256.319888 
" clip-path="url(#pb9198870a9)" style="fill: none; stroke: #c85200; stroke-width: 2; stroke-linecap: square"/>
   </g>
   <g id="patch_3">
    <path d="M 36 256.32 
L 36 34.56 
" style="fill: none; stroke: #000000; stroke-width: 2; stroke-linejoin: miter; stroke-linecap: square"/>
   </g>
   <g id="patch_4">
    <path d="M 36 256.32 
L 259.2 256.32 
" style="fill: none; stroke: #000000; stroke-width: 2; stroke-linejoin: miter; stroke-linecap: square"/>
   </g>
  </g>
 </g>
 <defs>
  <clipPath id="pb9198870a9">
   <rect x="36" y="34.56" width="223.2" height="221.76"/>
  </clipPath>
 </defs>
</svg>
