<?xml version="1.0" encoding="utf-8" standalone="no"?>
<!DOCTYPE svg PUBLIC "-//W3C//DTD SVG 1.1//EN"
  "http://www.w3.org/Graphics/SVG/1.1/DTD/svg11.dtd">
<svg xmlns:xlink="http://www.w3.org/1999/xlink" width="576pt" height="288pt" viewBox="0 0 576 288" xmlns="http://www.w3.org/2000/svg" version="1.1">
 <metadata>
  <rdf:RDF xmlns:dc="http://purl.org/dc/elements/1.1/" xmlns:cc="http://creativecommons.org/ns#" xmlns:rdf="http://www.w3.org/1999/02/22-rdf-syntax-ns#">
   <cc:Work>
    <dc:type rdf:resource="http://purl.org/dc/dcmitype/StillImage"/>
    <dc:date>2023-02-23T16:02:02.212998</dc:date>
    <dc:format>image/svg+xml</dc:format>
    <dc:creator>
     <cc:Agent>
      <dc:title>Matplotlib v3.7.0, https://matplotlib.org/</dc:title>
     </cc:Agent>
    </dc:creator>
   </cc:Work>
  </rdf:RDF>
 </metadata>
 <defs>
  <style type="text/css">*{stroke-linejoin: round; stroke-linecap: butt}</style>
 </defs>
 <g id="figure_1">
  <g id="patch_1">
   <path d="M 0 288 
L 576 288 
L 576 0 
L 0 0 
L 0 288 
z
" style="fill: none"/>
  </g>
  <g id="axes_1">
   <g id="matplotlib.axis_1">
    <g id="xtick_1">
     <g id="line2d_1">
      <defs>
       <path id="m8d9e552500" d="M 0 0 
L 0 3.5 
" style="stroke: #000000; stroke-width: 0.8"/>
      </defs>
      <g>
       <use xlink:href="#m8d9e552500" x="72" y="108.48" style="stroke: #000000; stroke-width: 0.8"/>
      </g>
     </g>
    </g>
    <g id="xtick_2">
     <g id="line2d_2">
      <g>
       <use xlink:href="#m8d9e552500" x="295.2" y="108.48" style="stroke: #000000; stroke-width: 0.8"/>
      </g>
     </g>
    </g>
    <g id="xtick_3">
     <g id="line2d_3">
      <g>
       <use xlink:href="#m8d9e552500" x="518.4" y="108.48" style="stroke: #000000; stroke-width: 0.8"/>
      </g>
     </g>
    </g>
   </g>
   <g id="matplotlib.axis_2">
    <g id="ytick_1">
     <g id="line2d_4">
      <defs>
       <path id="m3734f3aa98" d="M 0 0 
L -3.5 0 
" style="stroke: #000000; stroke-width: 0.8"/>
      </defs>
      <g>
       <use xlink:href="#m3734f3aa98" x="72" y="96.458633" style="stroke: #000000; stroke-width: 0.8"/>
      </g>
     </g>
     <g id="text_1">
      <!-- −0.25 -->
      <g transform="translate(19.457188 102.900664) scale(0.18 -0.18)">
       <defs>
        <path id="ArialMT-2212" d="M 3381 1997 
L 356 1997 
L 356 2522 
L 3381 2522 
L 3381 1997 
z
" transform="scale(0.015625)"/>
        <path id="ArialMT-30" d="M 266 2259 
Q 266 3072 433 3567 
Q 600 4063 929 4331 
Q 1259 4600 1759 4600 
Q 2128 4600 2406 4451 
Q 2684 4303 2865 4023 
Q 3047 3744 3150 3342 
Q 3253 2941 3253 2259 
Q 3253 1453 3087 958 
Q 2922 463 2592 192 
Q 2263 -78 1759 -78 
Q 1097 -78 719 397 
Q 266 969 266 2259 
z
M 844 2259 
Q 844 1131 1108 757 
Q 1372 384 1759 384 
Q 2147 384 2411 759 
Q 2675 1134 2675 2259 
Q 2675 3391 2411 3762 
Q 2147 4134 1753 4134 
Q 1366 4134 1134 3806 
Q 844 3388 844 2259 
z
" transform="scale(0.015625)"/>
        <path id="ArialMT-2e" d="M 581 0 
L 581 641 
L 1222 641 
L 1222 0 
L 581 0 
z
" transform="scale(0.015625)"/>
        <path id="ArialMT-32" d="M 3222 541 
L 3222 0 
L 194 0 
Q 188 203 259 391 
Q 375 700 629 1000 
Q 884 1300 1366 1694 
Q 2113 2306 2375 2664 
Q 2638 3022 2638 3341 
Q 2638 3675 2398 3904 
Q 2159 4134 1775 4134 
Q 1369 4134 1125 3890 
Q 881 3647 878 3216 
L 300 3275 
Q 359 3922 746 4261 
Q 1134 4600 1788 4600 
Q 2447 4600 2831 4234 
Q 3216 3869 3216 3328 
Q 3216 3053 3103 2787 
Q 2991 2522 2730 2228 
Q 2469 1934 1863 1422 
Q 1356 997 1212 845 
Q 1069 694 975 541 
L 3222 541 
z
" transform="scale(0.015625)"/>
        <path id="ArialMT-35" d="M 266 1200 
L 856 1250 
Q 922 819 1161 601 
Q 1400 384 1738 384 
Q 2144 384 2425 690 
Q 2706 997 2706 1503 
Q 2706 1984 2436 2262 
Q 2166 2541 1728 2541 
Q 1456 2541 1237 2417 
Q 1019 2294 894 2097 
L 366 2166 
L 809 4519 
L 3088 4519 
L 3088 3981 
L 1259 3981 
L 1013 2750 
Q 1425 3038 1878 3038 
Q 2478 3038 2890 2622 
Q 3303 2206 3303 1553 
Q 3303 931 2941 478 
Q 2500 -78 1738 -78 
Q 1113 -78 717 272 
Q 322 622 266 1200 
z
" transform="scale(0.015625)"/>
       </defs>
       <use xlink:href="#ArialMT-2212"/>
       <use xlink:href="#ArialMT-30" x="58.398438"/>
       <use xlink:href="#ArialMT-2e" x="114.013672"/>
       <use xlink:href="#ArialMT-32" x="141.796875"/>
       <use xlink:href="#ArialMT-35" x="197.412109"/>
      </g>
     </g>
    </g>
    <g id="ytick_2">
     <g id="line2d_5">
      <g>
       <use xlink:href="#m3734f3aa98" x="72" y="75.701886" style="stroke: #000000; stroke-width: 0.8"/>
      </g>
     </g>
     <g id="text_2">
      <!-- 0.00 -->
      <g transform="translate(29.970312 82.143917) scale(0.18 -0.18)">
       <use xlink:href="#ArialMT-30"/>
       <use xlink:href="#ArialMT-2e" x="55.615234"/>
       <use xlink:href="#ArialMT-30" x="83.398438"/>
       <use xlink:href="#ArialMT-30" x="139.013672"/>
      </g>
     </g>
    </g>
    <g id="ytick_3">
     <g id="line2d_6">
      <g>
       <use xlink:href="#m3734f3aa98" x="72" y="54.945139" style="stroke: #000000; stroke-width: 0.8"/>
      </g>
     </g>
     <g id="text_3">
      <!-- 0.25 -->
      <g transform="translate(29.970312 61.38717) scale(0.18 -0.18)">
       <use xlink:href="#ArialMT-30"/>
       <use xlink:href="#ArialMT-2e" x="55.615234"/>
       <use xlink:href="#ArialMT-32" x="83.398438"/>
       <use xlink:href="#ArialMT-35" x="139.013672"/>
      </g>
     </g>
    </g>
   </g>
   <g id="line2d_7">
    <path d="M 72 76.902625 
L 72.4464 70.650499 
L 72.8928 66.385804 
L 73.3392 65.516304 
L 73.7856 69.139224 
L 74.6784 84.645324 
L 75.1248 89.034233 
L 75.5712 87.750684 
L 76.0176 82.864917 
L 76.9104 68.973605 
L 77.3568 63.653088 
L 77.8032 62.328133 
L 78.2496 67.565841 
L 79.1424 85.03867 
L 79.5888 90.255676 
L 80.0352 89.738115 
L 80.4816 83.796526 
L 81.3744 69.429058 
L 81.8208 63.880814 
L 82.2672 61.934787 
L 82.7136 67.627948 
L 83.6064 87.605767 
L 84.0528 94.08562 
L 84.4992 92.491535 
L 84.9456 85.701146 
L 85.8384 68.021294 
L 86.2848 62.783586 
L 86.7312 61.644953 
L 87.1776 66.406507 
L 88.5168 93.257524 
L 88.9632 91.539225 
L 89.4096 84.997265 
L 90.3024 67.483032 
L 90.7488 61.810574 
L 91.1952 60.030167 
L 91.6416 65.909649 
L 92.5344 89.386174 
L 92.9808 95.72111 
L 93.4272 93.899298 
L 94.32 76.053827 
L 94.7664 65.868244 
L 95.2128 59.367689 
L 95.6592 58.042736 
L 96.1056 64.067135 
L 96.9984 89.013531 
L 97.4448 95.72111 
L 97.8912 94.044215 
L 98.3376 86.177301 
L 99.2304 66.406507 
L 99.6768 59.71963 
L 100.1232 58.76732 
L 100.5696 64.10854 
L 101.9088 96.093753 
L 102.3552 94.893014 
L 103.248 76.074529 
L 103.6944 66.385804 
L 104.1408 59.533309 
L 104.5872 59.346987 
L 105.0336 64.957338 
L 105.9264 89.758818 
L 106.3728 97.128873 
L 106.8192 95.514086 
L 107.712 76.012422 
L 108.1584 65.785434 
L 108.6048 58.33257 
L 109.0512 57.152532 
L 109.4976 63.42536 
L 110.3904 88.351054 
L 110.8368 95.679705 
L 111.2832 94.334049 
L 111.7296 86.425731 
L 112.6224 66.986174 
L 113.0688 60.816858 
L 113.5152 59.740333 
L 113.9616 66.634233 
L 114.8544 91.829058 
L 115.3008 98.743662 
L 115.7472 96.07305 
L 116.64 76.509279 
L 117.0864 65.66122 
L 117.5328 58.456784 
L 117.9792 56.966211 
L 118.4256 62.721478 
L 119.3184 87.067505 
L 119.7648 95.182847 
L 120.2112 92.946987 
L 120.6576 85.328503 
L 121.5504 66.054566 
L 121.9968 60.609834 
L 122.4432 59.243476 
L 122.8896 66.075268 
L 123.7824 90.814641 
L 124.2288 97.501517 
L 124.6752 94.748097 
L 125.1216 86.218707 
L 126.0144 65.288577 
L 126.4608 57.897819 
L 126.9072 57.297449 
L 127.3536 63.901516 
L 128.2464 87.688578 
L 128.6928 93.92 
L 129.1392 91.808355 
L 129.5856 85.017967 
L 130.4784 67.586544 
L 130.9248 62.141811 
L 131.3712 61.023882 
L 131.8176 66.282292 
L 132.7104 89.655305 
L 133.1568 95.907431 
L 133.6032 93.402441 
L 134.496 74.666766 
L 134.9424 65.22647 
L 135.3888 59.636821 
L 135.8352 59.057154 
L 136.2816 63.839408 
L 137.1744 85.887468 
L 137.6208 92.450131 
L 138.0672 91.187284 
L 138.96 75.867505 
L 139.4064 67.710758 
L 139.8528 62.617967 
L 140.2992 63.239039 
L 140.7456 68.704473 
L 142.0848 94.16843 
L 142.5312 91.953273 
L 142.9776 84.666026 
L 143.8704 67.358817 
L 144.3168 61.313716 
L 144.7632 61.417227 
L 145.2096 66.468614 
L 146.1024 85.287099 
L 146.5488 89.965842 
L 146.9952 88.868614 
L 148.3344 69.056414 
L 148.7808 64.812422 
L 149.2272 64.667505 
L 149.6736 69.44976 
L 150.5664 85.970278 
L 151.0128 90.441997 
L 151.4592 88.682293 
L 152.7984 69.284141 
L 153.2448 64.667505 
L 153.6912 64.563992 
L 154.1376 68.704473 
L 155.0304 84.748836 
L 155.4768 87.792089 
L 155.9232 87.108909 
L 156.3696 82.264548 
L 157.2624 70.443475 
L 157.7088 67.317412 
L 158.1552 67.048281 
L 158.6016 70.526285 
L 159.4944 83.713716 
L 159.9408 87.274529 
L 160.3872 84.769538 
L 161.7264 71.685619 
L 162.1728 68.24902 
L 162.6192 68.021294 
L 163.0656 71.768429 
L 163.9584 82.243845 
L 164.4048 83.651609 
L 164.8512 82.906322 
L 165.744 76.923328 
L 166.1904 73.051978 
L 166.6368 71.147357 
L 167.0832 70.940333 
L 167.5296 72.927764 
L 168.4224 81.146618 
L 168.8688 82.430167 
L 169.3152 81.229427 
L 169.7616 79.01427 
L 170.6544 73.838669 
L 171.1008 72.265287 
L 171.5472 72.141072 
L 172.8864 79.117782 
L 173.3328 81.022404 
L 174.2256 78.49671 
L 174.672 75.743291 
L 175.1184 74.625361 
L 175.5648 73.942181 
L 176.0112 74.211313 
L 176.4576 75.080814 
L 177.3504 78.476008 
L 177.7968 78.558817 
L 178.2432 78.165472 
L 178.6896 77.337376 
L 179.5824 75.39135 
L 180.4752 76.136636 
L 181.368 77.316673 
L 181.8144 77.171756 
L 182.2608 76.198743 
L 182.7072 77.047542 
L 183.1536 77.420185 
L 183.6 77.565102 
L 184.0464 77.295971 
L 184.4928 77.37878 
L 184.9392 77.751424 
L 185.3856 77.37878 
L 185.832 77.337376 
L 186.7248 74.480444 
L 187.1712 74.604658 
L 187.6176 74.604658 
L 188.9568 79.386913 
L 189.4032 79.469723 
L 189.8496 78.620925 
L 190.296 77.358078 
L 191.1888 73.176193 
L 191.6352 73.776562 
L 192.0816 74.894492 
L 192.9744 78.310389 
L 193.4208 80.815379 
L 193.8672 81.16732 
L 194.76 76.985435 
L 195.2064 73.528133 
L 195.6528 71.188762 
L 196.0992 71.768429 
L 196.992 76.385065 
L 197.8848 82.098928 
L 198.3312 82.575083 
L 199.224 76.281553 
L 199.6704 71.354381 
L 200.1168 69.491165 
L 200.5632 70.712606 
L 201.456 77.627209 
L 201.9024 81.519261 
L 202.3488 83.672311 
L 202.7952 84.87305 
L 203.2416 83.341073 
L 204.1344 72.285989 
L 204.5808 68.600961 
L 205.0272 68.538854 
L 205.4736 72.12037 
L 206.8128 85.576932 
L 207.2592 86.07379 
L 207.7056 82.782108 
L 208.5984 69.96732 
L 209.0448 65.868244 
L 209.4912 66.489316 
L 209.9376 70.070832 
L 210.8304 82.016119 
L 211.2768 85.742551 
L 211.7232 87.667875 
L 212.1696 83.134048 
L 213.0624 68.621664 
L 213.5088 64.667505 
L 213.9552 65.288577 
L 214.848 77.46159 
L 215.7408 89.034233 
L 216.1872 89.903735 
L 216.6336 85.432015 
L 217.08 78.703734 
L 217.5264 69.429058 
L 217.9728 63.42536 
L 218.4192 64.02573 
L 218.8656 69.946618 
L 219.7584 84.52111 
L 220.2048 89.386174 
L 220.6512 89.489686 
L 221.0976 84.852348 
L 222.4368 59.761035 
L 222.8832 61.085988 
L 223.776 77.233864 
L 224.2224 85.763254 
L 224.6688 91.642736 
L 225.1152 92.781368 
L 225.5616 88.413162 
L 226.4544 66.530721 
L 226.9008 61.023882 
L 227.3472 62.286728 
L 227.7936 67.752163 
L 229.1328 91.125176 
L 229.5792 92.553642 
L 230.0256 87.70928 
L 230.9184 65.122957 
L 231.3648 58.601701 
L 231.8112 60.340702 
L 232.2576 67.483032 
L 233.1504 86.115194 
L 233.5968 93.195417 
L 234.0432 94.520371 
L 234.4896 89.448281 
L 235.3824 65.826839 
L 235.8288 57.897819 
L 236.2752 60.112976 
L 237.168 76.985435 
L 237.6144 86.301516 
L 238.0608 93.174714 
L 238.5072 94.334049 
L 238.9536 88.537375 
L 239.8464 62.949206 
L 240.2928 57.007615 
L 240.7392 58.705213 
L 241.632 77.772126 
L 242.0784 87.916304 
L 242.5248 95.141442 
L 242.9712 96.59061 
L 243.4176 90.876747 
L 244.3104 65.454196 
L 244.7568 57.235342 
L 245.2032 58.146248 
L 246.096 75.991719 
L 246.5424 86.570648 
L 246.9888 94.044215 
L 247.4352 94.60318 
L 247.8816 88.206138 
L 248.7744 63.342551 
L 249.2208 56.572865 
L 249.6672 58.51889 
L 250.1136 66.323697 
L 251.0064 86.487838 
L 251.4528 93.692274 
L 251.8992 94.872312 
L 252.3456 89.800222 
L 253.2384 64.708909 
L 253.6848 57.152532 
L 254.1312 58.725915 
L 254.5776 67.37952 
L 255.4704 88.66159 
L 255.9168 95.348466 
L 256.3632 95.80392 
L 256.8096 88.102625 
L 257.7024 63.715194 
L 258.1488 55.661959 
L 258.5952 57.380258 
L 259.0416 65.288577 
L 259.9344 85.99098 
L 260.3808 93.133309 
L 260.8272 94.189132 
L 261.2736 88.433864 
L 262.1664 64.646803 
L 262.6128 57.670092 
L 263.0592 59.968059 
L 263.5056 67.441627 
L 264.3984 87.688578 
L 264.8448 94.127025 
L 265.2912 94.60318 
L 265.7376 88.951423 
L 266.6304 64.398373 
L 267.0768 57.442366 
L 267.5232 58.808724 
L 267.9696 66.489316 
L 268.8624 86.301516 
L 269.3088 92.926285 
L 269.7552 92.988392 
L 270.2016 87.502256 
L 271.0944 64.79172 
L 271.5408 58.891535 
L 271.9872 60.982477 
L 272.4336 68.952902 
L 273.3264 87.750684 
L 273.7728 93.319631 
L 274.2192 93.0505 
L 274.6656 87.046803 
L 275.5584 64.978041 
L 276.0048 58.891535 
L 276.4512 60.651238 
L 276.8976 67.938485 
L 277.7904 85.224991 
L 278.2368 90.566211 
L 278.6832 91.787653 
L 279.1296 87.212422 
L 280.0224 66.199483 
L 280.4688 61.127394 
L 280.9152 63.363253 
L 282.7008 90.483402 
L 283.1472 91.41501 
L 283.5936 86.07379 
L 284.4864 65.702625 
L 284.9328 60.941072 
L 285.3792 62.369539 
L 285.8256 68.186914 
L 286.7184 84.314085 
L 287.1648 89.075638 
L 287.6112 90.338485 
L 288.0576 85.142181 
L 288.9504 67.793568 
L 289.3968 63.839408 
L 289.8432 65.516304 
L 291.6288 88.765103 
L 292.0752 89.365472 
L 292.5216 84.769538 
L 293.4144 69.44976 
L 293.8608 64.419075 
L 294.3072 65.640518 
L 294.7536 69.88451 
L 295.6464 82.368059 
L 296.0928 85.970278 
L 296.5392 85.99098 
L 296.9856 82.80281 
L 297.8784 69.491165 
L 298.3248 66.406507 
L 298.7712 67.979889 
L 299.2176 72.099667 
L 300.1104 82.036821 
L 300.5568 84.852348 
L 301.0032 84.624622 
L 301.4496 81.477856 
L 302.3424 70.691904 
L 302.7888 68.393937 
L 303.2352 69.284141 
L 303.6816 72.493013 
L 304.5744 81.933309 
L 305.0208 83.568799 
L 305.4672 83.548097 
L 306.36 76.819816 
L 306.8064 72.223882 
L 307.2528 69.988022 
L 307.6992 70.961035 
L 308.1456 73.259002 
L 309.0384 80.401331 
L 309.4848 81.68488 
L 309.9312 81.809095 
L 310.3776 80.277117 
L 310.824 76.157339 
L 311.2704 73.652348 
L 311.7168 72.348096 
L 312.1632 72.741442 
L 313.5024 78.476008 
L 313.9488 79.925176 
L 314.3952 79.055675 
L 314.8416 78.869353 
L 315.288 77.02684 
L 315.7344 74.563254 
L 316.1808 73.921479 
L 316.6272 74.211313 
L 317.9664 77.751424 
L 318.4128 78.124067 
L 318.8592 77.502995 
L 319.3056 77.999853 
L 319.752 77.233864 
L 320.1984 76.985435 
L 320.6448 76.923328 
L 321.0912 77.02684 
L 321.5376 76.674899 
L 321.984 77.088947 
L 322.4304 77.130352 
L 322.8768 76.240148 
L 323.3232 76.240148 
L 323.7696 75.950315 
L 324.216 76.012422 
L 324.6624 76.757708 
L 325.1088 77.97915 
L 325.5552 77.751424 
L 326.0016 78.331091 
L 326.448 77.151054 
L 326.8944 75.639779 
L 327.3408 74.811682 
L 327.7872 74.35623 
L 328.2336 74.211313 
L 329.1264 78.227579 
L 329.5728 79.53183 
L 330.0192 79.407616 
L 330.4656 78.49671 
L 331.3584 73.590241 
L 331.8048 73.15549 
L 332.2512 73.093383 
L 332.6976 73.921479 
L 333.5904 79.428318 
L 334.0368 81.560666 
L 334.4832 81.891904 
L 334.9296 79.842366 
L 335.8224 73.631645 
L 336.2688 71.250869 
L 336.7152 70.671202 
L 337.1616 72.141072 
L 338.5008 84.479705 
L 338.9472 83.941442 
L 340.7328 69.718891 
L 341.1792 69.36695 
L 341.6256 72.016858 
L 342.5184 82.430167 
L 342.9648 84.35549 
L 343.4112 83.858632 
L 343.8576 80.1322 
L 344.7504 70.339963 
L 345.1968 66.592828 
L 345.6432 66.489316 
L 346.0896 69.511867 
L 346.9824 83.216858 
L 347.4288 86.901885 
L 347.8752 86.860481 
L 348.3216 82.740703 
L 349.2144 71.685619 
L 349.6608 68.021294 
L 350.1072 66.137375 
L 350.5536 69.801701 
L 351.4464 85.017967 
L 351.8928 89.241257 
L 352.3392 88.66159 
L 354.1248 64.398373 
L 354.5712 63.321849 
L 355.0176 68.166211 
L 355.9104 85.183587 
L 356.3568 90.21427 
L 356.8032 88.620186 
L 357.2496 83.341073 
L 358.5888 63.777301 
L 359.0352 63.321849 
L 359.4816 67.959187 
L 360.8208 92.574344 
L 361.2672 91.145878 
L 362.16 77.233864 
L 363.0528 63.321849 
L 363.4992 62.348835 
L 363.9456 68.621664 
L 364.8384 88.247542 
L 365.2848 93.402441 
L 365.7312 91.580629 
L 366.1776 84.935158 
L 367.0704 68.124806 
L 367.5168 61.851978 
L 367.9632 60.299297 
L 368.4096 64.978041 
L 369.3024 86.260111 
L 369.7488 92.636451 
L 370.1952 91.911868 
L 370.6416 84.914455 
L 371.5344 67.524436 
L 371.9808 61.52074 
L 372.4272 60.257893 
L 372.8736 66.116673 
L 373.7664 89.738115 
L 374.2128 95.431276 
L 374.6592 93.837191 
L 375.1056 86.239409 
L 375.9984 66.282292 
L 376.4448 58.974344 
L 376.8912 57.193937 
L 377.3376 63.611682 
L 378.2304 88.247542 
L 378.6768 94.68599 
L 379.1232 93.692274 
L 380.016 75.929612 
L 380.4624 66.095971 
L 380.9088 60.050869 
L 381.3552 59.264178 
L 381.8016 65.495601 
L 382.6944 89.986544 
L 383.1408 96.383587 
L 383.5872 93.857893 
L 384.0336 86.798374 
L 384.9264 65.495601 
L 385.3728 59.388392 
L 385.8192 58.24976 
L 386.2656 63.839408 
L 387.6048 96.300777 
L 388.0512 94.375454 
L 388.4976 86.694862 
L 389.3904 65.930351 
L 389.8368 59.367689 
L 390.2832 58.415379 
L 390.7296 64.750314 
L 391.6224 90.669723 
L 392.0688 97.563624 
L 392.5152 94.851608 
L 393.408 74.252717 
L 393.8544 64.02573 
L 394.3008 57.959927 
L 394.7472 58.353272 
L 395.1936 64.729612 
L 396.5328 97.046065 
L 396.9792 94.68599 
L 397.4256 86.612052 
L 398.3184 66.17878 
L 398.7648 59.057154 
L 399.2112 58.808724 
L 399.6576 65.22647 
L 400.5504 90.504104 
L 400.9968 96.942551 
L 401.4432 94.08562 
L 401.8896 86.301516 
L 402.7824 66.530721 
L 403.2288 59.823143 
L 403.6752 57.64939 
L 404.1216 62.804289 
L 405.0144 88.019815 
L 405.4608 94.955121 
L 405.9072 93.754382 
L 407.6928 60.941072 
L 408.1392 59.926654 
L 408.5856 65.909649 
L 409.4784 90.110759 
L 409.9248 96.259372 
L 410.3712 93.112607 
L 410.8176 85.576932 
L 411.7104 67.048281 
L 412.1568 59.346987 
L 412.6032 59.305582 
L 413.0496 65.930351 
L 413.9424 88.330352 
L 414.3888 93.298928 
L 414.8352 91.766951 
L 415.2816 85.080075 
L 416.1744 66.944769 
L 416.6208 61.727764 
L 417.0672 62.369539 
L 417.5136 67.669353 
L 418.4064 88.495971 
L 418.8528 93.568059 
L 419.2992 91.539225 
L 420.192 74.977302 
L 420.6384 66.489316 
L 421.0848 61.251608 
L 421.5312 60.734049 
L 421.9776 66.137375 
L 422.8704 86.239409 
L 423.3168 91.290795 
L 423.7632 90.007246 
L 424.2096 84.251978 
L 425.1024 68.538854 
L 425.5488 63.632384 
L 425.9952 63.42536 
L 426.4416 68.559556 
L 427.3344 86.135897 
L 427.7808 90.649021 
L 428.2272 89.282662 
L 430.0128 63.880814 
L 430.4592 64.874529 
L 430.9056 69.739593 
L 431.7984 85.328503 
L 432.2448 88.910019 
L 432.6912 88.309649 
L 434.0304 70.132939 
L 434.4768 67.151793 
L 434.9232 66.385804 
L 435.3696 70.195046 
L 436.2624 83.299668 
L 436.7088 86.881183 
L 437.1552 85.639039 
L 437.6016 81.519261 
L 438.048 75.370647 
L 438.4944 70.795416 
L 438.9408 67.420924 
L 439.3872 67.420924 
L 439.8336 71.271571 
L 440.7264 83.154751 
L 441.1728 86.446433 
L 441.6192 84.87305 
L 442.0656 81.146618 
L 442.9584 71.830536 
L 443.4048 69.615379 
L 443.8512 69.96732 
L 444.2976 72.430906 
L 445.1904 81.643475 
L 445.6368 83.75512 
L 446.0832 83.693014 
L 447.8688 70.48488 
L 448.3152 70.236451 
L 448.7616 72.865656 
L 449.6544 81.16732 
L 450.1008 82.595786 
L 450.5472 81.912607 
L 451.8864 74.149205 
L 452.3328 72.617227 
L 452.7792 72.368799 
L 453.2256 73.880074 
L 454.1184 78.848651 
L 454.5648 79.987283 
L 455.4576 77.97915 
L 455.904 76.240148 
L 456.3504 75.163623 
L 456.7968 75.763993 
L 457.2432 75.329242 
L 457.6896 76.115934 
L 458.5824 77.233864 
L 459.0288 77.917043 
L 459.4752 76.840518 
L 459.9216 76.923328 
L 460.368 76.757708 
L 461.7072 75.681183 
L 462.1536 76.654196 
L 462.6 76.260851 
L 463.0464 76.654196 
L 463.4928 75.846803 
L 463.9392 75.494862 
L 464.3856 76.198743 
L 464.832 75.971017 
L 465.2784 76.42647 
L 465.7248 78.06196 
L 466.1712 78.807246 
L 466.6176 78.186174 
L 467.064 76.881923 
L 467.5104 75.101516 
L 467.9568 74.35623 
L 468.4032 74.169908 
L 469.296 77.109649 
L 470.1888 80.442736 
L 470.6352 81.208725 
L 471.0816 79.345509 
L 471.528 76.322958 
L 472.4208 71.52 
L 472.8672 71.540703 
L 473.76 76.695601 
L 474.2064 79.490425 
L 475.0992 80.980998 
L 475.5456 79.552533 
L 476.4384 71.747727 
L 476.8848 69.843105 
L 477.3312 70.339963 
L 477.7776 73.528133 
L 478.6704 81.539963 
L 479.1168 83.900038 
L 479.5632 83.962144 
L 480.0096 81.643475 
L 480.9024 70.671202 
L 481.3488 68.476747 
L 481.7952 69.698189 
L 482.688 77.710019 
L 483.1344 82.637191 
L 483.5808 85.204289 
L 484.0272 85.680444 
L 484.4736 82.657893 
L 485.8128 66.799853 
L 486.2592 67.627948 
L 486.7056 71.209464 
L 487.5984 82.098928 
L 488.0448 86.280814 
L 488.4912 87.357339 
L 488.9376 83.444585 
L 490.2768 64.274159 
L 490.7232 65.516304 
L 491.1696 70.836821 
L 492.0624 83.651609 
L 492.5088 88.102625 
L 492.9552 88.123328 
L 493.4016 84.231276 
L 494.7408 63.59098 
L 495.1872 64.853826 
L 496.08 77.999853 
L 496.5264 85.452718 
L 496.9728 89.77952 
L 497.4192 90.090056 
L 497.8656 86.094492 
L 498.7584 67.690056 
L 499.2048 62.224621 
L 499.6512 62.804289 
L 500.0976 68.663069 
L 500.9904 84.044954 
L 501.4368 89.572496 
L 501.8832 90.524806 
L 502.3296 85.908171 
L 503.6688 60.878965 
L 504.1152 61.893383 
L 505.008 76.633494 
L 505.4544 85.017967 
L 505.9008 90.317783 
L 506.3472 91.207986 
L 506.7936 86.570648 
L 507.24 76.86122 
L 507.6864 64.688207 
L 508.1328 58.912237 
L 508.5792 60.40281 
L 509.0256 67.834973 
L 509.9184 86.798374 
L 510.3648 93.423143 
L 510.8112 94.541073 
L 511.2576 89.324068 
L 512.1504 65.764732 
L 512.5968 59.326285 
L 513.0432 60.671941 
L 513.4896 67.441627 
L 514.3824 87.315934 
L 514.8288 92.139594 
L 515.2752 93.0505 
L 515.7216 87.378041 
L 516.6144 62.576561 
L 517.0608 56.324437 
L 517.5072 58.187653 
L 518.4 76.716303 
L 518.8464 86.384326 
L 518.8464 86.384326 
" clip-path="url(#p018f8b8b72)" style="fill: none; stroke: #ff800e; stroke-width: 1.5; stroke-linecap: square"/>
   </g>
  </g>
  <g id="axes_2">
   <g id="matplotlib.axis_3">
    <g id="xtick_4">
     <g id="line2d_8">
      <g>
       <use xlink:href="#m8d9e552500" x="72" y="182.4" style="stroke: #000000; stroke-width: 0.8"/>
      </g>
     </g>
    </g>
    <g id="xtick_5">
     <g id="line2d_9">
      <g>
       <use xlink:href="#m8d9e552500" x="295.2" y="182.4" style="stroke: #000000; stroke-width: 0.8"/>
      </g>
     </g>
    </g>
    <g id="xtick_6">
     <g id="line2d_10">
      <g>
       <use xlink:href="#m8d9e552500" x="518.4" y="182.4" style="stroke: #000000; stroke-width: 0.8"/>
      </g>
     </g>
    </g>
   </g>
   <g id="matplotlib.axis_4">
    <g id="ytick_4">
     <g id="line2d_11">
      <g>
       <use xlink:href="#m3734f3aa98" x="72" y="169.316966" style="stroke: #000000; stroke-width: 0.8"/>
      </g>
     </g>
     <g id="text_4">
      <!-- −0.1 -->
      <g transform="translate(29.466875 175.758997) scale(0.18 -0.18)">
       <defs>
        <path id="ArialMT-31" d="M 2384 0 
L 1822 0 
L 1822 3584 
Q 1619 3391 1289 3197 
Q 959 3003 697 2906 
L 697 3450 
Q 1169 3672 1522 3987 
Q 1875 4303 2022 4600 
L 2384 4600 
L 2384 0 
z
" transform="scale(0.015625)"/>
       </defs>
       <use xlink:href="#ArialMT-2212"/>
       <use xlink:href="#ArialMT-30" x="58.398438"/>
       <use xlink:href="#ArialMT-2e" x="114.013672"/>
       <use xlink:href="#ArialMT-31" x="141.796875"/>
      </g>
     </g>
    </g>
    <g id="ytick_5">
     <g id="line2d_12">
      <g>
       <use xlink:href="#m3734f3aa98" x="72" y="145.481577" style="stroke: #000000; stroke-width: 0.8"/>
      </g>
     </g>
     <g id="text_5">
      <!-- 0.0 -->
      <g transform="translate(39.98 151.923608) scale(0.18 -0.18)">
       <use xlink:href="#ArialMT-30"/>
       <use xlink:href="#ArialMT-2e" x="55.615234"/>
       <use xlink:href="#ArialMT-30" x="83.398438"/>
      </g>
     </g>
    </g>
    <g id="ytick_6">
     <g id="line2d_13">
      <g>
       <use xlink:href="#m3734f3aa98" x="72" y="121.646188" style="stroke: #000000; stroke-width: 0.8"/>
      </g>
     </g>
     <g id="text_6">
      <!-- 0.1 -->
      <g transform="translate(39.98 128.088219) scale(0.18 -0.18)">
       <use xlink:href="#ArialMT-30"/>
       <use xlink:href="#ArialMT-2e" x="55.615234"/>
       <use xlink:href="#ArialMT-31" x="83.398438"/>
      </g>
     </g>
    </g>
   </g>
   <g id="line2d_14">
    <path d="M 72 172.815356 
L 72.4464 172.589655 
L 72.8928 172.63717 
L 73.3392 172.993544 
L 73.7856 173.777562 
L 74.232 173.920112 
L 74.6784 174.371518 
L 75.1248 173.599376 
L 75.5712 174.181451 
L 76.464 172.981665 
L 76.9104 172.874752 
L 77.3568 173.052938 
L 77.8032 173.409312 
L 78.2496 173.931991 
L 78.696 174.240847 
L 79.1424 174.276486 
L 79.5888 174.692253 
L 80.0352 173.646894 
L 80.4816 174.086419 
L 80.928 172.886631 
L 81.3744 172.565895 
L 82.2672 173.183609 
L 82.7136 174.015144 
L 83.16 174.33588 
L 84.0528 174.205211 
L 84.4992 173.82508 
L 84.9456 172.827237 
L 85.392 172.625291 
L 86.2848 172.435227 
L 86.7312 173.17173 
L 87.1776 173.433069 
L 87.624 174.537825 
L 88.0704 174.015144 
L 88.5168 173.920112 
L 88.9632 173.219245 
L 89.4096 173.052938 
L 89.856 171.888788 
L 90.3024 171.568053 
L 91.1952 172.150128 
L 91.6416 172.886631 
L 92.5344 173.3024 
L 92.9808 172.77972 
L 93.4272 172.993544 
L 93.8736 171.354228 
L 94.7664 170.261353 
L 95.6592 171.009735 
L 96.1056 171.710602 
L 96.552 171.686844 
L 96.9984 172.114491 
L 97.4448 172.078853 
L 98.784 169.869343 
L 99.6768 168.942775 
L 100.1232 169.703036 
L 100.5696 170.190079 
L 101.4624 170.641485 
L 102.8016 168.930896 
L 103.248 167.529163 
L 103.6944 167.600437 
L 104.1408 167.232187 
L 104.5872 168.313183 
L 105.48 168.99029 
L 105.9264 168.812104 
L 106.3728 168.823983 
L 106.8192 168.051844 
L 107.2656 167.600437 
L 107.712 166.091793 
L 108.1584 166.163067 
L 108.6048 165.806695 
L 109.4976 166.899571 
L 109.944 167.267823 
L 110.3904 167.220306 
L 111.2832 166.293738 
L 112.176 164.286172 
L 112.6224 163.193297 
L 113.0688 163.811008 
L 113.5152 164.179261 
L 113.9616 163.715976 
L 114.408 164.939522 
L 114.8544 164.761336 
L 115.7472 163.870404 
L 116.64 161.910355 
L 117.0864 161.423312 
L 117.5328 161.316401 
L 117.9792 161.601498 
L 118.872 162.480551 
L 119.3184 162.658737 
L 120.2112 161.458949 
L 120.6576 160.045338 
L 121.104 159.724603 
L 121.5504 158.809913 
L 121.9968 158.703001 
L 122.4432 158.881188 
L 122.8896 159.914668 
L 123.336 159.997821 
L 124.2288 159.748361 
L 124.6752 159.10689 
L 125.568 157.099324 
L 126.0144 156.612282 
L 126.4608 156.695435 
L 127.3536 157.004292 
L 127.8 157.479455 
L 129.1392 156.137118 
L 129.5856 155.353099 
L 130.032 153.90385 
L 130.4784 153.701905 
L 130.9248 153.666268 
L 131.3712 154.105794 
L 131.8176 154.236464 
L 132.264 155.020484 
L 133.1568 153.880091 
L 133.6032 153.64251 
L 134.0496 152.834732 
L 134.496 151.646823 
L 135.3888 150.969715 
L 136.2816 151.789372 
L 136.728 151.563669 
L 137.1744 151.68246 
L 137.6208 151.670581 
L 138.0672 150.482673 
L 138.5136 149.959993 
L 139.4064 148.273162 
L 139.8528 147.999943 
L 140.2992 148.902754 
L 140.7456 149.009666 
L 141.192 148.962149 
L 141.6384 149.175973 
L 142.0848 148.593898 
L 142.5312 147.489142 
L 142.9776 147.013979 
L 143.424 147.215924 
L 143.8704 145.837949 
L 144.3168 145.968619 
L 145.2096 145.707279 
L 145.656 146.08741 
L 146.1024 145.600368 
L 146.5488 145.43406 
L 146.9952 144.638162 
L 147.4416 144.471854 
L 147.888 143.236429 
L 148.3344 143.319583 
L 148.7808 142.678112 
L 149.2272 142.689991 
L 149.6736 143.058243 
L 150.12 142.880057 
L 150.5664 143.343341 
L 151.4592 141.858455 
L 151.9056 141.632752 
L 152.352 140.943765 
L 152.7984 139.850889 
L 153.2448 140.670546 
L 153.6912 140.337932 
L 154.1376 140.575514 
L 154.584 140.242899 
L 155.0304 140.135987 
L 155.4768 139.589549 
L 155.9232 139.45888 
L 156.3696 139.043111 
L 156.816 137.938356 
L 157.2624 137.783928 
L 157.7088 137.463193 
L 158.1552 138.294729 
L 158.6016 137.653258 
L 159.048 137.867082 
L 159.4944 137.76017 
L 160.3872 137.094941 
L 160.8336 136.227767 
L 161.28 135.990186 
L 161.7264 135.099255 
L 162.1728 135.467506 
L 162.6192 135.111134 
L 163.0656 135.788242 
L 163.512 135.194287 
L 163.9584 134.89731 
L 164.4048 134.849793 
L 164.8512 134.267718 
L 165.2976 134.101411 
L 165.744 133.127326 
L 166.1904 133.768797 
L 166.6368 132.842228 
L 167.0832 133.139205 
L 167.5296 132.497734 
L 167.976 132.913503 
L 168.4224 132.93726 
L 168.8688 132.248273 
L 169.3152 132.580887 
L 169.7616 131.286067 
L 170.208 131.796868 
L 170.6544 130.383257 
L 171.1008 131.25043 
L 171.5472 130.905936 
L 171.9936 130.965332 
L 172.44 130.525805 
L 172.8864 130.371377 
L 173.7792 129.373534 
L 174.2256 129.967488 
L 174.672 129.052799 
L 175.1184 128.969645 
L 175.5648 128.375691 
L 176.0112 129.207227 
L 176.4576 128.613273 
L 176.904 128.934009 
L 177.3504 128.197505 
L 177.7968 127.85301 
L 178.2432 128.031198 
L 178.6896 127.722342 
L 179.5824 127.48476 
L 180.0288 127.270935 
L 180.4752 126.795772 
L 180.9216 127.235299 
L 181.8144 126.189939 
L 182.2608 126.629465 
L 182.7072 125.762292 
L 183.1536 125.976115 
L 183.6 125.892961 
L 184.0464 126.059268 
L 184.4928 125.299008 
L 184.9392 125.346523 
L 185.3856 124.752569 
L 186.2784 124.716933 
L 186.7248 124.372438 
L 187.1712 124.396197 
L 187.6176 124.253648 
L 188.064 124.669416 
L 188.5104 123.849759 
L 188.9568 123.95667 
L 189.4032 123.909155 
L 190.296 123.006342 
L 190.7424 123.338958 
L 191.1888 122.946948 
L 192.0816 123.208288 
L 192.528 122.994464 
L 192.9744 123.588419 
L 193.4208 122.804399 
L 193.8672 122.745003 
L 194.3136 122.28172 
L 194.76 122.424267 
L 195.2064 122.13917 
L 195.6528 121.568974 
L 196.5456 121.949104 
L 196.992 122.151049 
L 197.4384 121.640249 
L 197.8848 121.996621 
L 198.3312 121.117568 
L 198.7776 121.402667 
L 199.6704 120.547372 
L 201.9024 120.45234 
L 202.7952 120.048451 
L 203.2416 119.335705 
L 203.688 119.003091 
L 204.1344 118.813026 
L 204.5808 118.409137 
L 205.0272 118.919937 
L 205.4736 118.955574 
L 205.92 119.40698 
L 206.3664 119.525772 
L 206.8128 119.40698 
L 207.2592 118.456652 
L 207.7056 118.337862 
L 208.152 117.993369 
L 208.5984 117.387535 
L 209.4912 118.052763 
L 209.9376 119.644562 
L 210.384 118.599202 
L 210.8304 118.884301 
L 211.2768 118.112159 
L 211.7232 117.803303 
L 212.1696 118.017127 
L 212.616 117.066799 
L 213.0624 116.959888 
L 213.5088 117.340019 
L 214.4016 117.530084 
L 214.848 118.741751 
L 215.2944 117.660753 
L 215.7408 118.432895 
L 216.1872 117.70827 
L 217.08 116.615395 
L 217.5264 116.781702 
L 217.9728 116.199625 
L 218.8656 117.31626 
L 219.312 118.147797 
L 219.7584 118.266587 
L 220.6512 117.506327 
L 221.0976 117.209349 
L 221.544 116.389692 
L 221.9904 116.175868 
L 222.4368 116.567878 
L 222.8832 116.520361 
L 223.3296 117.494446 
L 223.776 117.755787 
L 224.2224 118.421016 
L 225.1152 117.185591 
L 225.5616 117.126195 
L 226.4544 116.484724 
L 226.9008 116.627274 
L 227.3472 117.090557 
L 227.7936 117.280624 
L 228.24 118.373499 
L 228.6864 118.813026 
L 229.1328 118.658598 
L 230.0256 117.019284 
L 230.472 117.05492 
L 230.9184 116.900492 
L 231.3648 116.971767 
L 231.8112 117.340019 
L 232.2576 118.622959 
L 232.704 118.492291 
L 233.1504 119.28819 
L 234.4896 118.516048 
L 234.936 117.70827 
L 235.3824 117.874577 
L 236.7216 119.121883 
L 237.6144 120.820592 
L 238.0608 120.654283 
L 238.5072 119.79899 
L 239.8464 118.646719 
L 240.2928 119.050608 
L 240.7392 119.703957 
L 241.1856 120.96314 
L 241.632 121.153206 
L 242.0784 122.032257 
L 242.5248 121.854071 
L 243.864 120.487976 
L 244.3104 120.725558 
L 244.7568 120.191 
L 245.2032 121.687764 
L 245.6496 121.735281 
L 246.096 123.172651 
L 246.5424 123.410231 
L 246.9888 124.063583 
L 247.8816 122.554938 
L 248.328 122.566817 
L 248.7744 122.448027 
L 249.6672 122.970706 
L 250.56 125.39404 
L 251.4528 125.90484 
L 251.8992 125.215854 
L 252.3456 124.811965 
L 252.792 124.087341 
L 253.6848 124.431834 
L 254.1312 125.51283 
L 254.5776 126.083026 
L 255.024 127.306574 
L 255.4704 127.425364 
L 255.9168 127.793616 
L 256.8096 126.712618 
L 257.7024 126.391883 
L 258.1488 127.294693 
L 258.5952 127.520396 
L 259.0416 128.64891 
L 259.9344 130.300104 
L 260.3808 129.444809 
L 260.8272 129.314138 
L 261.2736 129.55172 
L 261.72 129.43293 
L 262.1664 129.124073 
L 262.6128 129.052799 
L 263.952 132.295789 
L 264.8448 132.770953 
L 265.7376 131.678077 
L 266.184 131.64244 
L 267.5232 132.569009 
L 267.9696 133.970741 
L 268.416 134.731003 
L 268.8624 135.111134 
L 269.3088 135.02798 
L 269.7552 134.826035 
L 270.2016 134.790398 
L 270.648 134.208323 
L 271.5408 135.134891 
L 271.9872 135.431869 
L 272.4336 136.382196 
L 272.88 137.700775 
L 273.3264 138.187817 
L 273.7728 138.140301 
L 274.2192 137.593863 
L 274.6656 137.712653 
L 275.112 137.332523 
L 275.5584 137.962114 
L 276.0048 138.057147 
L 276.4512 139.173781 
L 276.8976 139.245056 
L 277.344 140.124108 
L 277.7904 140.741821 
L 278.2368 140.991282 
L 279.1296 140.373569 
L 279.576 140.575514 
L 280.0224 140.409206 
L 280.4688 141.086314 
L 280.9152 141.395171 
L 281.3616 142.45241 
L 282.2544 143.74723 
L 282.7008 144.13924 
L 283.1472 143.509648 
L 283.5936 143.842263 
L 284.04 143.497769 
L 284.4864 144.032328 
L 284.9328 144.376822 
L 285.3792 144.970776 
L 285.8256 145.362786 
L 286.272 146.491299 
L 287.1648 146.562574 
L 287.6112 146.74076 
L 288.0576 145.754796 
L 288.504 146.966463 
L 288.9504 146.61009 
L 289.3968 146.978342 
L 290.2896 148.190009 
L 290.736 149.235368 
L 291.1824 149.817444 
L 291.6288 149.853081 
L 292.0752 149.34228 
L 292.5216 149.686774 
L 292.968 149.401676 
L 293.4144 150.1263 
L 293.8608 149.99563 
L 294.7536 151.42112 
L 295.2 152.038833 
L 295.6464 152.407085 
L 296.0928 152.20514 
L 296.9856 152.929765 
L 297.8784 152.300173 
L 298.3248 153.298016 
L 299.2176 153.832575 
L 299.664 154.80666 
L 300.1104 154.81854 
L 300.5568 155.46001 
L 301.0032 155.020484 
L 301.4496 155.531285 
L 301.896 155.258065 
L 302.3424 156.232151 
L 302.7888 155.638197 
L 303.6816 156.885501 
L 304.128 157.455697 
L 304.5744 157.776433 
L 305.0208 157.657642 
L 305.4672 158.025893 
L 305.9136 157.598246 
L 307.2528 158.275354 
L 308.592 159.867151 
L 309.0384 159.985942 
L 309.4848 160.306678 
L 309.9312 159.748361 
L 310.3776 160.318557 
L 310.824 160.104733 
L 311.2704 160.781842 
L 311.7168 161.090698 
L 312.1632 161.007545 
L 312.6096 161.815323 
L 313.056 162.10042 
L 313.5024 161.83908 
L 313.9488 161.993509 
L 314.3952 162.49243 
L 314.8416 162.254848 
L 315.288 163.015109 
L 315.7344 162.908198 
L 316.1808 163.217054 
L 316.6272 163.27645 
L 317.0736 163.549669 
L 317.52 164.012954 
L 317.9664 163.787251 
L 318.4128 164.381204 
L 318.8592 164.464358 
L 319.752 165.165225 
L 320.1984 164.796972 
L 320.6448 165.616631 
L 321.5376 165.759178 
L 321.984 165.36717 
L 322.4304 165.866091 
L 322.8768 166.13931 
L 323.3232 166.032399 
L 323.7696 166.543199 
L 324.216 166.53132 
L 324.6624 166.329375 
L 325.1088 166.994605 
L 325.5552 166.970845 
L 326.448 167.196548 
L 326.8944 166.875813 
L 327.3408 167.57668 
L 327.7872 167.861777 
L 328.2336 167.541042 
L 328.68 168.277545 
L 329.1264 168.574523 
L 329.5728 168.336941 
L 330.0192 168.776468 
L 330.4656 168.360698 
L 330.912 168.527007 
L 331.3584 168.372579 
L 331.8048 168.99029 
L 332.2512 168.812104 
L 332.6976 169.263511 
L 333.144 169.097203 
L 333.5904 169.798068 
L 334.0368 169.869343 
L 334.4832 170.095046 
L 334.9296 169.560487 
L 335.8224 168.966533 
L 336.2688 169.691157 
L 336.7152 170.142561 
L 338.9472 170.855307 
L 339.3936 170.42766 
L 339.84 170.29699 
L 340.2864 170.30887 
L 340.7328 170.772154 
L 341.1792 170.807792 
L 342.072 172.00758 
L 342.5184 171.888788 
L 342.9648 171.259196 
L 343.4112 171.948184 
L 343.8576 172.090733 
L 344.304 171.294834 
L 344.7504 171.781877 
L 345.1968 171.722481 
L 345.6432 172.589655 
L 346.0896 172.423348 
L 346.536 173.314279 
L 346.9824 173.385554 
L 347.4288 173.635015 
L 347.8752 173.504344 
L 348.3216 172.732203 
L 348.768 172.554017 
L 349.2144 171.781877 
L 350.1072 173.088576 
L 351 173.706288 
L 351.4464 174.038904 
L 351.8928 174.181451 
L 352.3392 173.516223 
L 352.7856 173.658772 
L 353.232 172.684687 
L 353.6784 172.886631 
L 354.1248 172.565895 
L 354.5712 173.575619 
L 355.0176 173.670651 
L 355.464 174.442793 
L 355.9104 174.644736 
L 356.3568 173.991387 
L 356.8032 174.549704 
L 357.2496 173.02918 
L 357.696 172.363952 
L 358.1424 172.649049 
L 358.5888 173.373673 
L 359.0352 173.385554 
L 359.4816 174.359639 
L 359.928 174.692253 
L 360.8208 174.656615 
L 361.7136 173.433069 
L 362.16 172.506501 
L 362.6064 172.898511 
L 363.0528 172.292677 
L 363.4992 173.266762 
L 364.392 174.07454 
L 364.8384 174.407154 
L 365.2848 173.789443 
L 365.7312 173.931991 
L 366.1776 172.827237 
L 366.624 172.672808 
L 367.0704 171.73436 
L 367.5168 172.542138 
L 367.9632 172.51838 
L 368.4096 173.278641 
L 368.856 172.755962 
L 369.3024 173.599376 
L 369.7488 173.872597 
L 370.1952 172.542138 
L 370.6416 172.862873 
L 371.088 171.401746 
L 371.9808 171.092889 
L 372.4272 171.817513 
L 372.8736 171.603691 
L 373.32 172.755962 
L 374.2128 172.387709 
L 374.6592 171.817513 
L 375.1056 170.795913 
L 375.552 170.498935 
L 375.9984 169.821828 
L 376.4448 169.750553 
L 376.8912 170.190079 
L 377.3376 171.104768 
L 377.784 171.045374 
L 378.2304 171.104768 
L 378.6768 171.34235 
L 379.5696 169.976254 
L 380.016 168.075601 
L 380.4624 168.455733 
L 380.9088 168.194391 
L 381.3552 169.01405 
L 381.8016 169.287268 
L 382.248 169.798068 
L 382.6944 169.91686 
L 383.5872 169.512971 
L 384.0336 168.111238 
L 384.48 167.43413 
L 384.9264 166.38877 
L 385.3728 167.06588 
L 385.8192 167.101516 
L 386.2656 167.861777 
L 387.1584 167.956811 
L 388.0512 166.863934 
L 388.4976 166.519441 
L 388.944 165.260257 
L 389.3904 165.141467 
L 389.8368 164.4406 
L 390.2832 165.343411 
L 390.7296 165.676025 
L 391.176 165.676025 
L 391.6224 166.53132 
L 392.5152 165.177103 
L 392.9616 163.9298 
L 393.8544 162.730012 
L 394.3008 162.908198 
L 394.7472 162.551826 
L 395.1936 163.739733 
L 395.64 163.644701 
L 396.0864 163.288329 
L 396.5328 163.240812 
L 396.9792 162.670616 
L 397.872 160.781842 
L 398.3184 160.900632 
L 398.7648 160.009701 
L 399.2112 160.484864 
L 399.6576 160.758084 
L 400.5504 161.494587 
L 401.4432 160.461106 
L 402.336 158.025893 
L 402.7824 157.895224 
L 403.2288 157.907102 
L 404.1216 158.204079 
L 404.568 158.9881 
L 405.4608 158.085288 
L 405.9072 156.89738 
L 406.3536 156.695435 
L 406.8 155.46001 
L 407.2464 155.044242 
L 407.6928 154.972967 
L 408.5856 156.089602 
L 409.032 156.053965 
L 409.4784 155.531285 
L 409.9248 155.745108 
L 410.3712 154.616595 
L 411.7104 152.46648 
L 412.1568 152.347689 
L 412.6032 152.59715 
L 413.0496 153.012918 
L 413.496 153.048556 
L 413.9424 152.953523 
L 414.3888 152.704062 
L 414.8352 152.015075 
L 415.2816 150.708375 
L 416.1744 149.520466 
L 416.6208 149.651137 
L 417.0672 149.567983 
L 417.5136 149.841202 
L 417.96 150.506431 
L 418.8528 149.758048 
L 419.2992 149.318522 
L 420.6384 146.705123 
L 421.0848 146.907067 
L 421.5312 147.251561 
L 422.424 147.310956 
L 422.8704 147.465384 
L 423.7632 146.206201 
L 424.2096 145.719159 
L 424.656 144.828227 
L 425.1024 144.186756 
L 425.5488 144.376822 
L 425.9952 144.151119 
L 426.4416 144.53125 
L 426.888 144.626282 
L 427.3344 144.127361 
L 427.7808 144.448096 
L 428.2272 143.177034 
L 428.6736 143.450253 
L 429.12 141.822818 
L 429.5664 141.834697 
L 430.0128 141.312017 
L 430.4592 142.024762 
L 430.9056 141.608994 
L 431.352 141.894092 
L 431.7984 141.775302 
L 432.2448 141.003161 
L 432.6912 141.27638 
L 433.1376 139.862768 
L 433.584 139.779615 
L 434.0304 139.126265 
L 434.4768 139.114386 
L 434.9232 139.518275 
L 435.3696 138.567948 
L 435.816 139.506396 
L 436.2624 138.686739 
L 436.7088 138.864925 
L 437.1552 138.223455 
L 437.6016 137.902719 
L 438.048 136.679173 
L 438.4944 136.84548 
L 438.9408 136.310922 
L 439.3872 136.049581 
L 439.8336 136.916754 
L 440.28 136.097097 
L 440.7264 136.20401 
L 441.1728 135.610055 
L 441.6192 135.907033 
L 442.0656 134.980464 
L 442.512 134.932948 
L 442.9584 133.614368 
L 443.4048 134.077652 
L 443.8512 134.315234 
L 444.2976 133.887588 
L 445.1904 133.745038 
L 445.6368 133.899467 
L 446.0832 132.913503 
L 446.5296 132.984776 
L 446.976 132.117603 
L 447.4224 132.248273 
L 447.8688 131.606802 
L 448.3152 131.689956 
L 448.7616 132.022571 
L 449.208 131.523649 
L 449.6544 131.737473 
L 450.1008 130.905936 
L 450.5472 131.226672 
L 450.9936 130.620838 
L 451.44 130.525805 
L 451.8864 130.288223 
L 452.3328 129.789302 
L 452.7792 129.634874 
L 453.2256 129.765544 
L 453.672 129.504205 
L 454.1184 128.541998 
L 454.5648 129.29038 
L 455.0112 128.53012 
L 455.4576 128.637031 
L 455.904 128.114352 
L 456.3504 127.936164 
L 456.7968 128.090592 
L 457.2432 127.354089 
L 457.6896 126.902685 
L 458.136 127.413485 
L 459.0288 127.009596 
L 459.4752 127.116507 
L 459.9216 126.55819 
L 460.8144 126.498796 
L 461.2608 125.821687 
L 461.7072 126.118664 
L 462.1536 125.655379 
L 462.6 125.90484 
L 463.0464 125.239612 
L 463.4928 125.358403 
L 463.9392 125.299008 
L 464.3856 125.51283 
L 464.832 125.572226 
L 465.2784 124.978272 
L 466.1712 124.693173 
L 466.6176 124.265527 
L 467.9568 124.051702 
L 468.4032 123.588419 
L 468.8496 123.517144 
L 469.296 123.885395 
L 469.7424 123.457749 
L 470.1888 123.493387 
L 470.6352 123.137013 
L 471.0816 123.148892 
L 471.528 122.721245 
L 471.9744 122.745003 
L 472.4208 121.830314 
L 472.8672 122.495542 
L 473.3136 122.543059 
L 473.76 122.804399 
L 474.2064 122.649971 
L 474.6528 122.25796 
L 475.0992 122.127291 
L 475.992 121.153206 
L 476.4384 121.034415 
L 476.8848 121.081932 
L 477.3312 121.367029 
L 477.7776 121.438304 
L 478.224 121.224479 
L 478.6704 121.521457 
L 480.0096 120.286032 
L 480.456 119.53765 
L 480.9024 119.929661 
L 481.3488 119.216915 
L 481.7952 119.28819 
L 482.688 119.882143 
L 484.0272 119.133761 
L 484.4736 119.098123 
L 484.92 118.622959 
L 485.3664 117.803303 
L 485.8128 118.397258 
L 486.2592 118.088402 
L 486.7056 118.694234 
L 487.152 118.349741 
L 487.5984 118.908058 
L 488.0448 118.777388 
L 488.4912 118.064642 
L 488.9376 118.230951 
L 489.384 117.185591 
L 489.8304 117.423173 
L 490.2768 117.149953 
L 490.7232 118.266587 
L 491.1696 117.625117 
L 491.616 118.432895 
L 492.0624 118.432895 
L 492.9552 117.743908 
L 493.4016 117.185591 
L 493.848 117.066799 
L 494.2944 116.80546 
L 495.1872 116.959888 
L 495.6336 117.470688 
L 496.08 117.779545 
L 496.5264 118.278466 
L 496.9728 118.337862 
L 497.4192 116.888613 
L 497.8656 117.173711 
L 498.312 115.795736 
L 498.7584 116.496603 
L 499.2048 116.211506 
L 499.6512 116.769822 
L 500.0976 116.983646 
L 500.9904 118.10028 
L 501.4368 118.112159 
L 501.8832 117.636995 
L 502.3296 116.460967 
L 502.776 116.80546 
L 503.2224 116.15211 
L 503.6688 116.80546 
L 504.1152 116.698549 
L 504.5616 117.506327 
L 505.008 117.660753 
L 505.4544 118.943695 
L 505.9008 118.527927 
L 506.3472 117.743908 
L 506.7936 117.530084 
L 507.24 116.449088 
L 507.6864 117.138074 
L 508.1328 116.734185 
L 508.5792 117.530084 
L 509.0256 118.052763 
L 509.472 118.290345 
L 509.9184 118.908058 
L 510.8112 118.314105 
L 511.2576 117.625117 
L 511.704 117.363777 
L 512.1504 117.351898 
L 512.5968 117.743908 
L 513.0432 117.05492 
L 513.4896 118.884301 
L 513.936 119.549529 
L 514.8288 120.107846 
L 515.2752 119.157519 
L 515.7216 119.110002 
L 516.168 118.717994 
L 516.6144 118.848662 
L 517.0608 118.575444 
L 517.9536 119.620804 
L 518.4 120.856229 
L 518.8464 121.09381 
L 518.8464 121.09381 
" clip-path="url(#p81530bce86)" style="fill: none; stroke: #c85200; stroke-width: 1.5; stroke-linecap: square"/>
   </g>
  </g>
  <g id="axes_3">
   <g id="matplotlib.axis_5">
    <g id="xtick_7">
     <g id="line2d_15">
      <g>
       <use xlink:href="#m8d9e552500" x="72" y="256.32" style="stroke: #000000; stroke-width: 0.8"/>
      </g>
     </g>
     <g id="text_7">
      <!-- 0 -->
      <g transform="translate(66.995156 276.204063) scale(0.18 -0.18)">
       <use xlink:href="#ArialMT-30"/>
      </g>
     </g>
    </g>
    <g id="xtick_8">
     <g id="line2d_16">
      <g>
       <use xlink:href="#m8d9e552500" x="295.2" y="256.32" style="stroke: #000000; stroke-width: 0.8"/>
      </g>
     </g>
     <g id="text_8">
      <!-- 0.1 -->
      <g transform="translate(282.69 276.204063) scale(0.18 -0.18)">
       <use xlink:href="#ArialMT-30"/>
       <use xlink:href="#ArialMT-2e" x="55.615234"/>
       <use xlink:href="#ArialMT-31" x="83.398438"/>
      </g>
     </g>
    </g>
    <g id="xtick_9">
     <g id="line2d_17">
      <g>
       <use xlink:href="#m8d9e552500" x="518.4" y="256.32" style="stroke: #000000; stroke-width: 0.8"/>
      </g>
     </g>
     <g id="text_9">
      <!-- 0.2 -->
      <g transform="translate(505.89 276.204063) scale(0.18 -0.18)">
       <use xlink:href="#ArialMT-30"/>
       <use xlink:href="#ArialMT-2e" x="55.615234"/>
       <use xlink:href="#ArialMT-32" x="83.398438"/>
      </g>
     </g>
    </g>
   </g>
   <g id="matplotlib.axis_6">
    <g id="ytick_7">
     <g id="line2d_18">
      <g>
       <use xlink:href="#m3734f3aa98" x="72" y="239.818666" style="stroke: #000000; stroke-width: 0.8"/>
      </g>
     </g>
     <g id="text_10">
      <!-- −10 -->
      <g transform="translate(34.4675 246.260697) scale(0.18 -0.18)">
       <use xlink:href="#ArialMT-2212"/>
       <use xlink:href="#ArialMT-31" x="58.398438"/>
       <use xlink:href="#ArialMT-30" x="114.013672"/>
      </g>
     </g>
    </g>
    <g id="ytick_8">
     <g id="line2d_19">
      <g>
       <use xlink:href="#m3734f3aa98" x="72" y="219.509333" style="stroke: #000000; stroke-width: 0.8"/>
      </g>
     </g>
     <g id="text_11">
      <!-- 0 -->
      <g transform="translate(54.990313 225.951364) scale(0.18 -0.18)">
       <use xlink:href="#ArialMT-30"/>
      </g>
     </g>
    </g>
    <g id="ytick_9">
     <g id="line2d_20">
      <g>
       <use xlink:href="#m3734f3aa98" x="72" y="199.2" style="stroke: #000000; stroke-width: 0.8"/>
      </g>
     </g>
     <g id="text_12">
      <!-- 10 -->
      <g transform="translate(44.980625 205.642031) scale(0.18 -0.18)">
       <use xlink:href="#ArialMT-31"/>
       <use xlink:href="#ArialMT-30" x="55.615234"/>
      </g>
     </g>
    </g>
   </g>
   <g id="line2d_21">
    <path d="M 72 219.489422 
L 72.4464 239.559822 
L 72.8928 251.645865 
L 73.3392 251.864888 
L 73.7856 240.137245 
L 74.6784 199.219911 
L 75.1248 187.193599 
L 75.5712 186.576355 
L 76.0176 199.219911 
L 76.9104 239.579732 
L 77.3568 251.785243 
L 77.8032 252.283021 
L 78.2496 240.017778 
L 79.1424 199.180089 
L 79.5888 186.835199 
L 80.0352 186.496711 
L 80.4816 199.120355 
L 81.3744 239.699199 
L 81.8208 252.004266 
L 82.2672 252.083909 
L 82.7136 240.037689 
L 83.6064 199.160178 
L 84.0528 187.054222 
L 84.4992 186.656002 
L 84.9456 199.399112 
L 85.8384 239.818666 
L 86.2848 252.004266 
L 86.7312 252.024177 
L 87.1776 239.71911 
L 88.0704 199.379199 
L 88.5168 186.656002 
L 88.9632 186.516622 
L 89.4096 198.821689 
L 90.3024 239.679288 
L 90.7488 252.083909 
L 91.1952 252.10382 
L 91.6416 239.858488 
L 92.5344 199.100444 
L 92.9808 187.332979 
L 93.4272 186.496711 
L 93.8736 199.239822 
L 94.7664 239.997865 
L 95.2128 251.944533 
L 95.6592 252.063998 
L 96.1056 240.25671 
L 96.9984 199.279645 
L 97.4448 186.715734 
L 97.8912 187.054222 
L 98.3376 199.219911 
L 99.2304 239.699199 
L 99.6768 251.665776 
L 100.1232 252.044087 
L 100.5696 240.097421 
L 101.4624 199.160178 
L 101.9088 186.237867 
L 102.3552 186.815288 
L 102.8016 199.020801 
L 103.6944 239.619554 
L 104.1408 252.024177 
L 104.5872 251.785243 
L 105.0336 239.878398 
L 105.9264 199.438934 
L 106.3728 186.934757 
L 106.8192 186.536533 
L 107.2656 199.279645 
L 108.1584 239.739021 
L 108.6048 251.924621 
L 109.0512 252.26311 
L 109.4976 239.918222 
L 110.3904 199.160178 
L 110.8368 186.795377 
L 111.2832 186.496711 
L 111.7296 198.881421 
L 112.6224 239.241243 
L 113.0688 252.024177 
L 113.5152 252.163556 
L 113.9616 239.898311 
L 114.8544 199.478755 
L 115.3008 186.636091 
L 115.7472 186.954668 
L 116.1936 199.160178 
L 117.0864 239.758934 
L 117.5328 252.183467 
L 117.9792 251.924621 
L 118.4256 239.818666 
L 119.3184 199.299556 
L 119.7648 186.994489 
L 120.2112 186.85511 
L 120.6576 198.921245 
L 121.5504 239.420444 
L 121.9968 251.984355 
L 122.4432 252.183467 
L 122.8896 239.997865 
L 123.7824 199.438934 
L 124.2288 187.133867 
L 124.6752 186.775467 
L 125.1216 199.279645 
L 126.0144 239.559822 
L 126.4608 251.805154 
L 126.9072 252.243199 
L 127.3536 240.196977 
L 128.2464 199.379199 
L 128.6928 186.815288 
L 129.1392 186.476801 
L 129.5856 198.881421 
L 130.4784 239.480176 
L 130.9248 251.665776 
L 131.3712 251.90471 
L 131.8176 239.818666 
L 132.7104 199.478755 
L 133.1568 186.914846 
L 133.6032 186.934757 
L 134.0496 198.901334 
L 134.9424 239.599643 
L 135.3888 252.044087 
L 135.8352 252.322843 
L 136.2816 239.838577 
L 137.1744 199.299556 
L 137.6208 186.795377 
L 138.0672 186.835199 
L 138.5136 199.2 
L 139.4064 239.758934 
L 139.8528 251.785243 
L 140.2992 251.645865 
L 140.7456 239.977954 
L 141.6384 199.498666 
L 142.0848 187.253334 
L 142.5312 186.735645 
L 142.9776 199.219911 
L 143.8704 239.639467 
L 144.3168 251.7056 
L 144.7632 252.283021 
L 145.2096 239.559822 
L 146.1024 199.5584 
L 146.5488 186.85511 
L 146.9952 186.875021 
L 147.4416 199.040712 
L 148.3344 239.619554 
L 148.7808 251.665776 
L 149.2272 252.243199 
L 149.6736 240.0576 
L 150.5664 199.478755 
L 151.0128 186.914846 
L 151.4592 186.715734 
L 151.9056 199.140268 
L 152.7984 239.579732 
L 153.2448 252.063998 
L 153.6912 252.083909 
L 154.1376 239.838577 
L 155.0304 199.319467 
L 155.4768 186.835199 
L 155.9232 186.835199 
L 156.3696 198.682311 
L 157.2624 239.71911 
L 157.7088 251.765332 
L 158.1552 252.302932 
L 158.6016 239.679288 
L 159.4944 199.399112 
L 159.9408 186.815288 
L 160.3872 186.934757 
L 160.8336 199.2 
L 161.7264 239.878398 
L 162.1728 252.083909 
L 162.6192 252.063998 
L 163.0656 239.977954 
L 163.9584 199.419023 
L 164.4048 186.835199 
L 164.8512 186.894935 
L 165.2976 199.040712 
L 166.1904 239.599643 
L 166.6368 251.765332 
L 167.0832 251.944533 
L 167.5296 239.878398 
L 168.4224 199.458844 
L 168.8688 186.914846 
L 169.3152 186.85511 
L 169.7616 199.399112 
L 170.6544 239.500087 
L 171.1008 252.004266 
L 171.5472 252.283021 
L 171.9936 239.679288 
L 172.8864 199.180089 
L 173.3328 186.875021 
L 173.7792 186.357332 
L 174.2256 198.921245 
L 175.1184 239.778844 
L 175.5648 251.984355 
L 176.0112 252.004266 
L 176.4576 239.758934 
L 177.3504 199.5584 
L 177.7968 186.675913 
L 178.2432 187.153778 
L 178.6896 198.682311 
L 179.5824 239.619554 
L 180.0288 252.044087 
L 180.4752 251.566222 
L 180.9216 239.938133 
L 181.8144 199.2 
L 182.2608 186.85511 
L 182.7072 186.715734 
L 183.1536 198.8416 
L 184.0464 239.480176 
L 184.4928 252.163556 
L 184.9392 252.183467 
L 185.3856 239.918222 
L 186.2784 199.259732 
L 186.7248 186.85511 
L 187.1712 186.755556 
L 187.6176 199.438934 
L 188.5104 239.898311 
L 188.9568 252.004266 
L 189.4032 252.024177 
L 189.8496 239.699199 
L 190.7424 199.2 
L 191.1888 186.775467 
L 191.6352 186.715734 
L 192.0816 199.319467 
L 192.9744 239.36071 
L 193.4208 251.765332 
L 193.8672 252.044087 
L 194.3136 240.037689 
L 195.2064 199.339378 
L 195.6528 186.875021 
L 196.0992 186.85511 
L 196.5456 199.020801 
L 197.4384 239.958044 
L 197.8848 251.7056 
L 198.3312 252.083909 
L 198.7776 240.017778 
L 199.6704 199.319467 
L 200.1168 186.835199 
L 200.5632 186.755556 
L 201.0096 198.961066 
L 201.9024 239.659378 
L 202.3488 251.506488 
L 202.7952 252.223289 
L 203.2416 239.619554 
L 204.1344 198.921245 
L 204.5808 186.755556 
L 205.0272 186.735645 
L 205.4736 198.901334 
L 206.3664 239.320888 
L 206.8128 251.884799 
L 207.2592 251.984355 
L 207.7056 240.0576 
L 208.5984 199.080533 
L 209.0448 187.094045 
L 209.4912 186.636091 
L 209.9376 199.060622 
L 210.8304 239.659378 
L 211.2768 251.924621 
L 211.7232 252.044087 
L 212.1696 239.539911 
L 213.0624 199.259732 
L 213.5088 186.914846 
L 213.9552 186.875021 
L 214.4016 198.86151 
L 215.2944 239.679288 
L 215.7408 251.884799 
L 216.1872 252.283021 
L 216.6336 239.739021 
L 217.5264 199.279645 
L 217.9728 187.0144 
L 218.4192 186.377243 
L 218.8656 199.140268 
L 219.7584 239.898311 
L 220.2048 251.90471 
L 220.6512 251.90471 
L 221.0976 239.579732 
L 221.9904 199.458844 
L 222.4368 186.994489 
L 222.8832 186.815288 
L 223.3296 199.379199 
L 224.2224 239.599643 
L 224.6688 251.765332 
L 225.1152 251.964444 
L 225.5616 239.71911 
L 226.4544 199.319467 
L 226.9008 187.034311 
L 227.3472 186.277689 
L 227.7936 199.020801 
L 228.6864 239.778844 
L 229.1328 251.924621 
L 229.5792 251.864888 
L 230.0256 239.679288 
L 230.9184 199.080533 
L 231.3648 186.974579 
L 231.8112 186.45689 
L 232.2576 199.180089 
L 233.1504 239.699199 
L 233.5968 251.486577 
L 234.0432 252.063998 
L 234.4896 239.898311 
L 235.3824 199.438934 
L 235.8288 187.094045 
L 236.2752 187.0144 
L 236.7216 198.921245 
L 237.6144 239.818666 
L 238.0608 251.785243 
L 238.5072 252.004266 
L 238.9536 239.818666 
L 239.8464 199.279645 
L 240.2928 186.695823 
L 240.7392 186.616176 
L 241.1856 198.941156 
L 242.0784 239.858488 
L 242.5248 251.864888 
L 242.9712 251.924621 
L 243.4176 240.017778 
L 244.3104 199.399112 
L 244.7568 186.835199 
L 245.2032 186.536533 
L 245.6496 199.000888 
L 246.5424 239.71911 
L 246.9888 251.864888 
L 247.4352 252.183467 
L 247.8816 239.898311 
L 248.7744 199.2 
L 249.2208 186.536533 
L 249.6672 186.85511 
L 250.1136 199.120355 
L 251.0064 239.320888 
L 251.4528 251.884799 
L 251.8992 251.944533 
L 252.3456 239.858488 
L 253.2384 199.53849 
L 253.6848 186.914846 
L 254.1312 186.616176 
L 254.5776 198.980977 
L 255.4704 239.52 
L 255.9168 251.884799 
L 256.3632 252.143645 
L 256.8096 239.599643 
L 257.7024 199.618133 
L 258.1488 186.735645 
L 258.5952 186.417068 
L 259.0416 198.781867 
L 259.9344 239.898311 
L 260.3808 251.7056 
L 260.8272 251.745421 
L 261.2736 239.898311 
L 262.1664 199.219911 
L 262.6128 186.815288 
L 263.0592 186.974579 
L 263.5056 198.64249 
L 264.3984 239.281066 
L 264.8448 252.044087 
L 265.2912 251.825067 
L 265.7376 239.739021 
L 266.6304 199.578311 
L 267.0768 186.914846 
L 267.5232 186.755556 
L 267.9696 199.279645 
L 268.8624 240.07751 
L 269.3088 251.825067 
L 269.7552 251.884799 
L 270.2016 239.559822 
L 271.0944 199.180089 
L 271.5408 187.0144 
L 271.9872 186.397157 
L 272.4336 199.180089 
L 273.3264 239.599643 
L 273.7728 251.685687 
L 274.2192 251.964444 
L 274.6656 239.977954 
L 275.5584 199.478755 
L 276.0048 187.054222 
L 276.4512 186.636091 
L 276.8976 198.8416 
L 277.7904 239.918222 
L 278.2368 251.964444 
L 278.6832 252.024177 
L 279.1296 239.818666 
L 280.0224 199.379199 
L 280.4688 187.193599 
L 280.9152 186.974579 
L 281.3616 199.020801 
L 282.2544 239.739021 
L 282.7008 251.725511 
L 283.1472 252.243199 
L 283.5936 239.997865 
L 284.4864 199.478755 
L 284.9328 186.934757 
L 285.3792 187.074133 
L 285.8256 199.419023 
L 286.7184 239.52 
L 287.1648 251.944533 
L 287.6112 252.063998 
L 288.0576 239.71911 
L 288.9504 199.2 
L 289.3968 186.835199 
L 289.8432 186.815288 
L 290.2896 199.060622 
L 291.1824 239.739021 
L 291.6288 251.984355 
L 292.0752 252.083909 
L 292.5216 239.997865 
L 293.4144 199.319467 
L 293.8608 186.675913 
L 294.3072 186.45689 
L 294.7536 199.020801 
L 295.6464 239.539911 
L 296.0928 251.884799 
L 296.5392 251.765332 
L 296.9856 239.818666 
L 297.8784 199.239822 
L 298.3248 186.875021 
L 298.7712 186.775467 
L 299.2176 199.020801 
L 300.1104 239.71911 
L 300.5568 252.26311 
L 301.0032 251.805154 
L 301.4496 240.25671 
L 302.3424 199.419023 
L 302.7888 186.656002 
L 303.2352 186.596266 
L 303.6816 198.961066 
L 304.5744 239.221332 
L 305.0208 252.342753 
L 305.4672 252.063998 
L 305.9136 240.097421 
L 306.8064 199.359288 
L 307.2528 187.432533 
L 307.6992 187.153778 
L 308.1456 199.259732 
L 309.0384 239.818666 
L 309.4848 251.924621 
L 309.9312 251.944533 
L 310.3776 239.898311 
L 311.2704 199.180089 
L 311.7168 186.516622 
L 312.1632 186.994489 
L 312.6096 198.821689 
L 313.5024 239.380622 
L 313.9488 251.884799 
L 314.3952 251.805154 
L 314.8416 240.097421 
L 315.7344 199.100444 
L 316.1808 186.496711 
L 316.6272 186.715734 
L 317.0736 199.040712 
L 317.9664 239.500087 
L 318.4128 251.805154 
L 318.8592 252.044087 
L 319.3056 239.858488 
L 320.1984 199.518579 
L 320.6448 187.173689 
L 321.0912 186.536533 
L 321.5376 199.438934 
L 322.4304 239.480176 
L 322.8768 252.044087 
L 323.3232 252.024177 
L 323.7696 239.71911 
L 324.6624 199.319467 
L 325.1088 187.034311 
L 325.5552 186.735645 
L 326.0016 199.080533 
L 326.8944 239.619554 
L 327.3408 252.163556 
L 327.7872 251.825067 
L 328.2336 239.798755 
L 329.1264 199.578311 
L 329.5728 186.875021 
L 330.0192 186.536533 
L 330.4656 199.2 
L 331.3584 239.659378 
L 331.8048 252.183467 
L 332.2512 252.004266 
L 332.6976 239.958044 
L 333.5904 199.419023 
L 334.0368 186.795377 
L 334.4832 186.616176 
L 334.9296 198.961066 
L 335.8224 239.918222 
L 336.2688 251.864888 
L 336.7152 252.183467 
L 337.1616 239.739021 
L 338.0544 199.2 
L 338.5008 187.054222 
L 338.9472 186.695823 
L 339.3936 198.821689 
L 340.2864 239.739021 
L 340.7328 251.90471 
L 341.1792 252.10382 
L 341.6256 240.137245 
L 342.5184 198.980977 
L 342.9648 186.934757 
L 343.4112 186.85511 
L 343.8576 199.259732 
L 344.7504 239.619554 
L 345.1968 252.143645 
L 345.6432 252.063998 
L 346.0896 239.938133 
L 346.9824 199.259732 
L 347.4288 187.253334 
L 347.8752 186.815288 
L 348.3216 198.86151 
L 349.2144 239.699199 
L 349.6608 251.825067 
L 350.1072 252.203378 
L 350.5536 239.958044 
L 351.4464 199.100444 
L 351.8928 186.257778 
L 352.3392 186.576355 
L 352.7856 199.279645 
L 353.6784 240.037689 
L 354.1248 251.805154 
L 354.5712 252.163556 
L 355.0176 239.619554 
L 355.9104 199.299556 
L 356.3568 186.894935 
L 356.8032 186.775467 
L 357.2496 199.040712 
L 358.1424 239.500087 
L 358.5888 251.924621 
L 359.0352 252.283021 
L 359.4816 240.336355 
L 360.3744 199.160178 
L 360.8208 186.795377 
L 361.2672 186.397157 
L 361.7136 199.120355 
L 362.6064 239.579732 
L 363.0528 252.143645 
L 363.4992 251.844977 
L 363.9456 240.356266 
L 364.8384 199.339378 
L 365.2848 186.85511 
L 365.7312 186.616176 
L 366.1776 198.980977 
L 367.0704 239.639467 
L 367.5168 251.805154 
L 367.9632 252.203378 
L 368.4096 239.878398 
L 369.3024 199.239822 
L 369.7488 186.835199 
L 370.1952 186.45689 
L 370.6416 199.279645 
L 371.5344 239.52 
L 371.9808 251.924621 
L 372.4272 252.024177 
L 372.8736 239.997865 
L 373.7664 199.299556 
L 374.2128 186.755556 
L 374.6592 186.417068 
L 375.1056 198.921245 
L 375.9984 239.878398 
L 376.4448 252.024177 
L 376.8912 251.924621 
L 377.3376 240.07751 
L 378.2304 199.319467 
L 378.6768 186.954668 
L 379.1232 186.636091 
L 379.5696 199.160178 
L 380.4624 239.599643 
L 380.9088 251.844977 
L 381.3552 251.884799 
L 381.8016 239.958044 
L 382.6944 199.657956 
L 383.1408 186.735645 
L 383.5872 186.795377 
L 384.0336 198.801778 
L 384.9264 239.659378 
L 385.3728 251.884799 
L 385.8192 251.90471 
L 386.2656 239.818666 
L 387.1584 199.140268 
L 387.6048 186.875021 
L 388.0512 186.795377 
L 388.4976 199.080533 
L 389.3904 239.36071 
L 389.8368 251.924621 
L 390.2832 252.044087 
L 390.7296 239.739021 
L 391.6224 199.319467 
L 392.0688 186.636091 
L 392.5152 186.755556 
L 392.9616 199.000888 
L 393.8544 239.639467 
L 394.3008 252.163556 
L 394.7472 252.283021 
L 395.1936 239.739021 
L 396.0864 199.279645 
L 396.5328 186.775467 
L 396.9792 186.45689 
L 397.4256 199.239822 
L 398.3184 239.918222 
L 398.7648 252.024177 
L 399.2112 251.944533 
L 399.6576 240.037689 
L 400.5504 199.319467 
L 400.9968 187.0144 
L 401.4432 187.233423 
L 401.8896 198.921245 
L 402.7824 239.71911 
L 403.2288 251.944533 
L 403.6752 252.10382 
L 404.1216 240.097421 
L 405.0144 199.518579 
L 405.4608 187.054222 
L 405.9072 186.436979 
L 406.3536 198.801778 
L 407.2464 239.300977 
L 407.6928 251.924621 
L 408.1392 252.382575 
L 408.5856 239.559822 
L 409.4784 199.817245 
L 409.9248 186.755556 
L 410.3712 186.755556 
L 410.8176 198.961066 
L 411.7104 239.639467 
L 412.1568 251.825067 
L 412.6032 252.183467 
L 413.0496 240.177066 
L 413.9424 199.419023 
L 414.3888 186.596266 
L 414.8352 186.695823 
L 415.2816 199.140268 
L 416.1744 239.818666 
L 416.6208 251.805154 
L 417.0672 252.203378 
L 417.5136 239.898311 
L 418.4064 199.379199 
L 418.8528 187.133867 
L 419.2992 186.636091 
L 419.7456 199.180089 
L 420.6384 239.559822 
L 421.0848 251.526399 
L 421.5312 252.083909 
L 421.9776 239.878398 
L 422.8704 199.339378 
L 423.3168 187.074133 
L 423.7632 186.875021 
L 424.2096 199.140268 
L 425.1024 239.400533 
L 425.5488 252.083909 
L 425.9952 252.163556 
L 426.4416 240.037689 
L 427.3344 199.160178 
L 427.7808 187.0144 
L 428.2272 186.954668 
L 428.6736 199.180089 
L 429.5664 239.619554 
L 430.0128 252.143645 
L 430.4592 252.123731 
L 430.9056 239.838577 
L 431.7984 199.458844 
L 432.2448 186.954668 
L 432.6912 186.735645 
L 433.1376 199.2 
L 434.0304 239.36071 
L 434.4768 251.765332 
L 434.9232 252.163556 
L 435.3696 240.0576 
L 436.2624 199.518579 
L 436.7088 186.954668 
L 437.1552 186.795377 
L 437.6016 199.040712 
L 438.4944 239.599643 
L 438.9408 252.10382 
L 439.3872 252.123731 
L 439.8336 239.619554 
L 440.7264 199.180089 
L 441.1728 187.113956 
L 441.6192 186.656002 
L 442.0656 199.259732 
L 442.9584 239.539911 
L 443.4048 251.864888 
L 443.8512 252.004266 
L 444.2976 239.659378 
L 445.1904 199.299556 
L 445.6368 186.815288 
L 446.0832 186.795377 
L 446.5296 199.100444 
L 447.4224 239.898311 
L 447.8688 251.964444 
L 448.3152 252.004266 
L 448.7616 239.798755 
L 449.6544 199.060622 
L 450.1008 186.875021 
L 450.5472 186.596266 
L 450.9936 199.319467 
L 451.8864 239.739021 
L 452.3328 252.283021 
L 452.7792 251.924621 
L 453.2256 239.758934 
L 454.1184 199.239822 
L 454.5648 186.914846 
L 455.0112 186.85511 
L 455.4576 198.881421 
L 456.3504 239.52 
L 456.7968 251.944533 
L 457.2432 251.964444 
L 457.6896 239.798755 
L 458.5824 199.319467 
L 459.0288 186.835199 
L 459.4752 186.576355 
L 459.9216 199.319467 
L 460.8144 239.659378 
L 461.2608 251.665776 
L 461.7072 252.163556 
L 462.1536 240.097421 
L 463.0464 198.8416 
L 463.4928 187.113956 
L 463.9392 186.636091 
L 464.3856 198.881421 
L 465.2784 239.500087 
L 465.7248 252.004266 
L 466.1712 251.805154 
L 466.6176 240.0576 
L 467.5104 199.000888 
L 467.9568 186.596266 
L 468.4032 186.436979 
L 468.8496 199.319467 
L 469.7424 239.579732 
L 470.1888 251.884799 
L 470.6352 252.123731 
L 471.0816 240.196977 
L 471.9744 199.458844 
L 472.4208 186.914846 
L 472.8672 186.835199 
L 473.3136 198.901334 
L 474.2064 239.699199 
L 474.6528 252.123731 
L 475.0992 251.864888 
L 475.5456 239.997865 
L 476.4384 199.498666 
L 476.8848 186.277689 
L 477.3312 186.636091 
L 477.7776 199.2 
L 478.6704 240.0576 
L 479.1168 251.844977 
L 479.5632 251.625955 
L 480.0096 240.037689 
L 480.9024 199.419023 
L 481.3488 186.914846 
L 481.7952 186.914846 
L 482.2416 199.180089 
L 483.1344 239.400533 
L 483.5808 251.984355 
L 484.0272 252.10382 
L 484.4736 239.559822 
L 485.3664 199.160178 
L 485.8128 186.755556 
L 486.2592 186.755556 
L 486.7056 198.961066 
L 487.5984 239.798755 
L 488.0448 251.546309 
L 488.4912 251.844977 
L 488.9376 239.938133 
L 489.8304 199.53849 
L 490.2768 186.954668 
L 490.7232 186.815288 
L 491.1696 198.961066 
L 492.0624 239.958044 
L 492.5088 252.063998 
L 492.9552 251.944533 
L 493.4016 239.798755 
L 494.2944 199.379199 
L 494.7408 186.735645 
L 495.1872 186.516622 
L 495.6336 198.463289 
L 496.5264 239.400533 
L 496.9728 251.526399 
L 497.4192 252.063998 
L 497.8656 239.599643 
L 498.7584 199.180089 
L 499.2048 186.715734 
L 499.6512 186.675913 
L 500.0976 198.622577 
L 500.9904 239.798755 
L 501.4368 251.90471 
L 501.8832 251.884799 
L 502.3296 239.997865 
L 503.2224 199.598222 
L 503.6688 187.133867 
L 504.1152 186.636091 
L 504.5616 198.941156 
L 505.4544 239.619554 
L 505.9008 251.486577 
L 506.3472 251.90471 
L 506.7936 239.818666 
L 507.6864 199.100444 
L 508.1328 186.795377 
L 508.5792 186.795377 
L 509.0256 199.100444 
L 509.9184 239.460266 
L 510.3648 251.685687 
L 510.8112 251.964444 
L 511.2576 239.878398 
L 512.1504 199.060622 
L 512.5968 187.094045 
L 513.0432 187.034311 
L 513.4896 199.140268 
L 514.3824 239.539911 
L 514.8288 251.606044 
L 515.2752 251.745421 
L 515.7216 239.918222 
L 516.6144 199.060622 
L 517.0608 186.994489 
L 517.5072 187.0144 
L 517.9536 199.100444 
L 518.8464 239.938133 
L 518.8464 239.938133 
" clip-path="url(#p7b373bb6b0)" style="fill: none; stroke: #006ba4; stroke-width: 1.5; stroke-linecap: square"/>
   </g>
  </g>
 </g>
 <defs>
  <clipPath id="p018f8b8b72">
   <rect x="72" y="34.56" width="446.4" height="73.92"/>
  </clipPath>
  <clipPath id="p81530bce86">
   <rect x="72" y="108.48" width="446.4" height="73.92"/>
  </clipPath>
  <clipPath id="p7b373bb6b0">
   <rect x="72" y="182.4" width="446.4" height="73.92"/>
  </clipPath>
 </defs>
</svg>
